<svg width="472" height="317" viewBox="0 0 472 317" fill="none" xmlns="http://www.w3.org/2000/svg">
<path d="M94.3957 287.701H409.943C409.943 287.701 473.262 174.927 375.908 89.7411C292.262 16.5507 261.111 -19.1811 154.102 79.3677C47.0927 177.917 -2.51798 201.832 94.3957 287.701Z" fill="#EEEEF5"/>
<path d="M391.634 276.532C391.592 280.282 391.377 283.79 391.113 286.756H380.326C375.405 281.018 371.054 274.074 367.925 267.269C366.658 264.542 365.573 261.734 364.676 258.864C363.816 256.176 363.242 253.405 362.962 250.597C362.664 247.12 363.081 244.171 364.374 242.082C366.088 239.323 369.336 238.067 374.495 239.088C375.29 239.244 376.073 239.457 376.837 239.727V239.731C377.899 240.098 378.918 240.58 379.876 241.17C381.423 242.13 382.806 243.332 383.973 244.73C385.732 246.809 387.112 249.319 388.183 252.104C388.347 252.518 388.502 252.939 388.646 253.366C389.531 255.994 390.192 258.692 390.622 261.431C390.664 261.684 390.705 261.938 390.744 262.195C390.792 262.51 390.837 262.828 390.879 263.146C391.312 266.4 391.558 269.676 391.615 272.959C391.64 274.167 391.647 275.363 391.634 276.532Z" fill="#404396"/>
<path d="M387.217 286.787C387.014 286.062 386.798 285.307 386.571 284.522L386.51 284.311C385.669 281.409 384.811 278.548 383.961 275.805C383.262 273.553 382.55 271.327 381.842 269.188C380.82 266.109 379.865 263.358 378.92 260.777C377.633 257.263 376.372 254.074 375.169 251.298C372.743 245.699 370.479 241.605 368.441 239.132L368.618 238.986C370.67 241.476 372.945 245.588 375.38 251.207C376.585 253.987 377.849 257.18 379.135 260.698C380.081 263.281 381.038 266.035 382.06 269.116C382.768 271.256 383.481 273.484 384.18 275.737C385.03 278.481 385.889 281.344 386.731 284.247L386.792 284.459C387.018 285.244 387.235 286 387.439 286.725L387.217 286.787Z" fill="black"/>
<path d="M389.667 295.781L389.609 295.563L389.831 295.504L389.889 295.723L389.667 295.781Z" fill="black"/>
<path d="M375.36 251.476L364.157 242.052L364.305 241.876L375.189 251.031L376.723 239.712L376.95 239.743L375.36 251.476Z" fill="black"/>
<path d="M379.093 260.915L362.899 250.695L363.022 250.501L378.962 260.561L383.945 244.439L384.164 244.507L379.093 260.915Z" fill="black"/>
<path d="M382.01 269.319L364.615 258.959L364.733 258.762L381.889 268.98L388.077 252.058L388.293 252.136L382.01 269.319Z" fill="black"/>
<path d="M384.118 275.926L367.87 267.37L367.977 267.167L384.024 275.617L390.778 263.092L390.98 263.201L384.118 275.926Z" fill="black"/>
<path d="M386.659 284.425L373.633 277.875L373.736 277.67L386.582 284.13L391.533 276.845L391.723 276.973L386.659 284.425Z" fill="black"/>
<path d="M392.901 275.19C392.901 275.19 364.921 229.244 390.007 219.284C415.093 209.324 399.012 269.085 392.901 275.19Z" fill="#404396"/>
<path d="M392.627 275.046C392.608 274.922 390.752 262.505 389.924 249.37C388.812 231.703 389.993 221.219 393.437 218.207L393.588 218.379C385.496 225.458 392.78 274.518 392.854 275.012L392.627 275.046Z" fill="black"/>
<path d="M390.171 227.665L386.848 220.882L387.054 220.781L390.233 227.27L398.342 218.868L398.508 219.027L390.171 227.665Z" fill="black"/>
<path d="M389.626 236.235L389.557 236.122L382.646 224.863L382.842 224.743L389.683 235.888L402.613 225.094L402.76 225.27L389.626 236.235Z" fill="black"/>
<path d="M389.815 245.781L379.686 232.999L379.865 232.856L389.853 245.458L403.543 234.596L403.685 234.776L389.815 245.781Z" fill="black"/>
<path d="M390.454 255.278L390.386 255.211L380.567 245.702L380.727 245.537L390.477 254.98L402.301 246.584L402.434 246.771L390.454 255.278Z" fill="black"/>
<path d="M391.099 262.079L382.799 253.645L382.962 253.484L391.125 261.778L400.533 255.036L400.667 255.223L391.099 262.079Z" fill="black"/>
<path d="M416.311 266.409C415.597 268.964 414.646 271.448 413.471 273.827C411.136 278.618 408.02 282.987 404.251 286.756H388.27C388.147 285.793 388.035 284.774 387.945 283.714V283.71C387.913 283.302 387.881 282.884 387.852 282.464C387.562 278.085 387.668 273.108 388.726 268.34V268.336C388.772 268.137 388.817 267.941 388.864 267.742C389.002 267.167 389.154 266.595 389.324 266.029C389.704 264.72 390.178 263.439 390.742 262.197C390.806 262.053 390.874 261.905 390.945 261.761C390.983 261.675 391.025 261.591 391.067 261.505C391.35 260.926 391.652 260.357 391.984 259.801C393.639 256.945 395.931 254.509 398.683 252.682C399.589 252.079 400.538 251.544 401.523 251.082C402.277 250.725 403.049 250.408 403.835 250.13C405.308 249.582 406.847 249.228 408.411 249.077C410.463 248.903 412.142 249.256 413.471 250.024C415.21 251.03 416.349 252.752 416.939 254.956C417.762 258.039 417.508 262.065 416.311 266.409Z" fill="#7B7DB5"/>
<path d="M393.17 286.796L392.954 286.718C393.299 285.753 393.676 284.728 394.074 283.671C394.836 281.656 395.628 279.687 396.427 277.818C397.511 275.274 398.669 272.761 399.871 270.352C402.004 266.044 404.427 261.885 407.122 257.904C409.023 255.109 411.117 252.45 413.387 249.945L413.557 250.1C411.294 252.597 409.207 255.248 407.311 258.033C404.622 262.006 402.205 266.156 400.076 270.454C398.877 272.86 397.72 275.368 396.638 277.908C395.84 279.774 395.049 281.74 394.289 283.752C393.891 284.807 393.515 285.832 393.17 286.796Z" fill="black"/>
<path d="M407.075 258.164L408.299 249.059L408.526 249.089L407.351 257.837L416.904 254.845L416.972 255.064L407.075 258.164Z" fill="black"/>
<path d="M399.87 270.548L398.568 252.687L398.798 252.67L400.079 270.26L416.285 266.298L416.34 266.521L399.87 270.548Z" fill="black"/>
<path d="M394.105 283.84L394.072 283.749L388.62 268.374L388.837 268.298L394.256 283.581L409.067 280.992L409.106 281.218L394.105 283.84Z" fill="black"/>
<path d="M389.116 286.8L387.83 283.713L387.949 283.712L388.051 283.669L389.328 286.712L389.116 286.8Z" fill="black"/>
<path d="M396.448 277.999L396.42 277.889L391.872 259.829L392.095 259.772L396.615 277.723L413.446 273.717L413.499 273.94L396.448 277.999Z" fill="black"/>
<path d="M241.493 280.527C241.467 282.924 241.329 285.168 241.16 287.064H234.262C231.068 283.287 228.401 279.095 226.332 274.603C225.522 272.859 224.828 271.063 224.255 269.228C223.705 267.509 223.337 265.737 223.159 263.942C222.967 261.719 223.235 259.832 224.061 258.497C225.157 256.732 227.235 255.929 230.534 256.582C231.042 256.682 231.542 256.818 232.031 256.991V256.994C232.711 257.229 233.362 257.538 233.974 257.915C234.964 258.529 235.848 259.297 236.594 260.191C237.749 261.602 238.659 263.196 239.287 264.906C239.391 265.172 239.49 265.441 239.583 265.714C240.148 267.394 240.571 269.12 240.846 270.871C240.873 271.033 240.899 271.196 240.924 271.36C240.955 271.562 240.984 271.765 241.01 271.968C241.287 274.049 241.445 276.144 241.482 278.243C241.498 279.014 241.501 279.779 241.493 280.527Z" fill="#404396"/>
<path d="M238.63 287.095C238.495 286.617 238.352 286.118 238.202 285.598L238.178 285.512C237.638 283.654 237.09 281.823 236.547 280.074C236.101 278.639 235.646 277.216 235.192 275.844C234.538 273.873 233.927 272.114 233.323 270.466C232.503 268.222 231.696 266.183 230.926 264.407C229.376 260.83 227.931 258.216 226.631 256.637L226.808 256.491C228.123 258.086 229.579 260.719 231.138 264.316C231.91 266.096 232.718 268.139 233.54 270.387C234.144 272.037 234.756 273.798 235.411 275.771C235.865 277.145 236.321 278.569 236.766 280.006C237.308 281.756 237.858 283.588 238.397 285.449L238.421 285.535C238.571 286.055 238.715 286.554 238.849 287.034L238.63 287.095Z" fill="black"/>
<path d="M240.289 292.493L240.068 292.552L240.105 292.691L240.326 292.632L240.289 292.493Z" fill="black"/>
<path d="M231.119 264.583L223.897 258.508L224.045 258.333L230.948 264.139L231.918 256.975L232.146 257.005L231.119 264.583Z" fill="black"/>
<path d="M233.499 270.604L223.098 264.039L223.22 263.845L233.368 270.25L236.538 259.992L236.757 260.06L233.499 270.604Z" fill="black"/>
<path d="M235.362 275.976L224.195 269.325L224.313 269.128L235.241 275.637L239.181 264.862L239.396 264.941L235.362 275.976Z" fill="black"/>
<path d="M236.706 280.195L226.279 274.704L226.387 274.501L236.611 279.886L240.911 271.912L241.113 272.021L236.706 280.195Z" fill="black"/>
<path d="M238.327 285.627L229.965 281.422L230.068 281.217L238.25 285.332L241.396 280.703L241.586 280.832L238.327 285.627Z" fill="black"/>
<path d="M242.306 279.668C242.306 279.668 224.414 250.287 240.455 243.917C256.496 237.548 246.213 275.763 242.306 279.668Z" fill="#404396"/>
<path d="M242.089 279.583C242.077 279.503 240.889 271.562 240.36 263.159C239.648 251.849 240.409 245.133 242.62 243.198L242.771 243.371C237.614 247.883 242.268 279.233 242.316 279.548L242.089 279.583Z" fill="black"/>
<path d="M240.548 249.348L238.397 244.958L238.604 244.857L240.611 248.954L245.755 243.623L245.921 243.782L240.548 249.348Z" fill="black"/>
<path d="M240.201 254.82L240.132 254.707L235.713 247.507L235.909 247.388L240.258 254.474L248.49 247.602L248.637 247.778L240.201 254.82Z" fill="black"/>
<path d="M240.326 260.921L233.822 252.715L234.002 252.572L240.363 260.598L249.085 253.678L249.228 253.857L240.326 260.921Z" fill="black"/>
<path d="M240.737 266.989L240.668 266.923L234.39 260.842L234.55 260.677L240.76 266.691L248.292 261.342L248.426 261.529L240.737 266.989Z" fill="black"/>
<path d="M241.148 271.339L235.815 265.921L235.979 265.76L241.174 271.038L247.162 266.747L247.296 266.934L241.148 271.339Z" fill="black"/>
<path d="M257.275 274.053C256.818 275.687 256.21 277.275 255.459 278.797C253.966 281.86 251.973 284.654 249.563 287.065H239.343C239.265 286.448 239.193 285.797 239.137 285.119V285.117C239.116 284.856 239.096 284.589 239.077 284.32C238.892 281.52 238.96 278.337 239.636 275.288V275.286C239.665 275.158 239.694 275.033 239.725 274.905C239.813 274.538 239.91 274.171 240.019 273.81C240.262 272.973 240.565 272.153 240.926 271.359C240.967 271.267 241.01 271.172 241.055 271.08C241.08 271.024 241.107 270.971 241.134 270.915C241.315 270.546 241.508 270.181 241.72 269.826C242.779 268 244.244 266.442 246.004 265.273C246.583 264.888 247.19 264.546 247.82 264.25C248.302 264.023 248.796 263.82 249.298 263.642C250.241 263.292 251.224 263.065 252.225 262.968C253.537 262.857 254.611 263.083 255.46 263.574C256.573 264.217 257.301 265.318 257.677 266.728C258.203 268.7 258.04 271.275 257.275 274.053Z" fill="#7B7DB5"/>
<path d="M242.516 287.103L242.3 287.026C242.518 286.415 242.759 285.759 243.016 285.076C243.503 283.79 244.009 282.529 244.521 281.332C245.214 279.705 245.956 278.097 246.725 276.555C248.09 273.798 249.64 271.137 251.364 268.59C252.581 266.801 253.921 265.099 255.374 263.496L255.544 263.651C254.098 265.246 252.765 266.94 251.554 268.719C249.835 271.258 248.29 273.91 246.93 276.657C246.163 278.196 245.424 279.799 244.733 281.422C244.222 282.617 243.716 283.873 243.231 285.157C242.974 285.839 242.734 286.493 242.516 287.103Z" fill="black"/>
<path d="M251.319 268.839L252.11 262.952L252.338 262.983L251.595 268.513L257.642 266.618L257.71 266.837L251.319 268.839Z" fill="black"/>
<path d="M246.723 276.752L245.888 265.281L246.117 265.265L246.933 276.464L257.248 273.942L257.303 274.165L246.723 276.752Z" fill="black"/>
<path d="M243.048 285.247L239.528 275.324L239.745 275.247L243.199 284.987L252.635 283.338L252.675 283.564L243.048 285.247Z" fill="black"/>
<path d="M239.846 287.109L239.021 285.119L239.138 285.118L239.241 285.074L240.058 287.02L239.846 287.109Z" fill="black"/>
<path d="M244.542 281.514L244.515 281.404L241.606 269.855L241.829 269.799L244.71 281.238L255.433 278.686L255.486 278.909L244.542 281.514Z" fill="black"/>
<path d="M123.382 275.752C123.336 279.932 123.095 283.844 122.801 287.15H110.776C105.29 280.752 100.438 273.011 96.9488 265.425C95.5371 262.384 94.3273 259.254 93.3272 256.054C92.3687 253.057 91.7282 249.968 91.4163 246.838C91.0828 242.962 91.5488 239.674 92.9903 237.345C94.9014 234.268 98.5228 232.868 104.274 234.007C105.16 234.18 106.033 234.418 106.884 234.72V234.723C108.069 235.132 109.205 235.671 110.273 236.328C111.998 237.399 113.54 238.739 114.841 240.298C116.802 242.615 118.34 245.413 119.534 248.518C119.717 248.98 119.889 249.45 120.05 249.926C121.036 252.856 121.773 255.863 122.252 258.917C122.298 259.2 122.345 259.483 122.388 259.769C122.442 260.12 122.492 260.475 122.539 260.83C123.021 264.458 123.295 268.11 123.36 271.769C123.389 273.115 123.396 274.448 123.382 275.752Z" fill="#404396"/>
<path d="M118.47 287.181C118.249 286.391 118.013 285.57 117.768 284.716L117.682 284.42C116.742 281.178 115.785 277.987 114.839 274.937C114.06 272.425 113.265 269.943 112.477 267.56C111.337 264.124 110.272 261.056 109.219 258.182C107.787 254.265 106.38 250.71 105.037 247.614C102.332 241.37 99.8078 236.806 97.5352 234.047L97.7122 233.901C99.9987 236.676 102.534 241.259 105.248 247.523C106.592 250.623 108.001 254.183 109.435 258.103C110.488 260.98 111.555 264.049 112.696 267.488C113.485 269.873 114.281 272.356 115.06 274.869C116.006 277.921 116.963 281.113 117.904 284.356L117.989 284.655C118.234 285.508 118.469 286.33 118.693 287.12L118.47 287.181Z" fill="black"/>
<path d="M121.202 297.208L121.138 296.965L121.36 296.906L121.424 297.151L121.202 297.208Z" fill="black"/>
<path d="M105.229 247.792L92.7578 237.301L92.9057 237.126L105.058 247.348L106.771 234.704L106.999 234.735L105.229 247.792Z" fill="black"/>
<path d="M109.394 258.321L91.3545 246.936L91.4769 246.742L109.263 257.967L114.822 239.978L115.042 240.045L109.394 258.321Z" fill="black"/>
<path d="M112.645 267.692L93.2666 256.149L93.384 255.952L112.524 267.353L119.429 248.472L119.644 248.55L112.645 267.692Z" fill="black"/>
<path d="M114.998 275.059L96.8955 265.526L97.0025 265.323L114.904 274.75L122.439 260.774L122.642 260.883L114.998 275.059Z" fill="black"/>
<path d="M117.831 284.534L103.319 277.237L103.423 277.032L117.755 284.239L123.281 276.107L123.471 276.236L117.831 284.534Z" fill="black"/>
<path d="M124.795 274.254C124.795 274.254 93.6007 223.031 121.568 211.927C149.535 200.823 131.607 267.448 124.795 274.254Z" fill="#404396"/>
<path d="M124.502 274.093C124.481 273.955 122.412 260.112 121.489 245.467C120.249 225.776 121.565 214.091 125.4 210.736L125.551 210.909C116.525 218.806 124.646 273.507 124.729 274.058L124.502 274.093Z" fill="black"/>
<path d="M121.755 221.248L118.059 213.703L118.265 213.602L121.817 220.853L130.871 211.473L131.037 211.632L121.755 221.248Z" fill="black"/>
<path d="M121.147 230.805L121.078 230.692L113.374 218.14L113.569 218.021L121.204 230.459L135.631 218.414L135.778 218.59L121.147 230.805Z" fill="black"/>
<path d="M121.356 241.45L110.071 227.21L110.251 227.067L121.394 241.127L136.666 229.009L136.809 229.188L121.356 241.45Z" fill="black"/>
<path d="M122.068 252.039L122 251.972L111.054 241.371L111.213 241.206L122.091 251.741L135.282 242.374L135.415 242.561L122.068 252.039Z" fill="black"/>
<path d="M122.787 259.62L113.541 250.226L113.705 250.065L122.813 259.319L133.311 251.797L133.444 251.983L122.787 259.62Z" fill="black"/>
<path d="M150.894 264.465C150.097 267.314 149.037 270.083 147.728 272.736C145.124 278.076 141.651 282.947 137.448 287.15H119.632C119.496 286.076 119.37 284.94 119.27 283.758V283.754C119.234 283.299 119.198 282.834 119.166 282.365C118.844 277.482 118.961 271.934 120.141 266.618V266.614C120.191 266.392 120.241 266.174 120.295 265.952C120.449 265.309 120.617 264.673 120.808 264.042C121.232 262.582 121.76 261.154 122.389 259.769C122.461 259.608 122.536 259.443 122.615 259.282C122.658 259.185 122.705 259.092 122.751 258.995C123.067 258.351 123.404 257.717 123.773 257.097C125.619 253.913 128.175 251.196 131.242 249.159C132.252 248.487 133.31 247.891 134.408 247.375C135.249 246.979 136.109 246.625 136.986 246.315C138.628 245.704 140.344 245.309 142.088 245.14C144.376 244.947 146.247 245.341 147.728 246.197C149.668 247.318 150.937 249.238 151.593 251.695C152.512 255.134 152.228 259.622 150.894 264.465Z" fill="#7B7DB5"/>
<path d="M125.082 287.189L124.866 287.112C125.245 286.049 125.665 284.906 126.115 283.714C126.964 281.47 127.846 279.275 128.737 277.19C129.946 274.352 131.238 271.552 132.577 268.867C134.955 264.064 137.655 259.428 140.659 254.991C142.778 251.875 145.112 248.911 147.642 246.119L147.812 246.274C145.288 249.058 142.961 252.013 140.848 255.12C137.85 259.549 135.155 264.176 132.781 268.969C131.445 271.649 130.155 274.446 128.948 277.28C128.057 279.362 127.176 281.554 126.329 283.795C125.881 284.985 125.461 286.127 125.082 287.189Z" fill="black"/>
<path d="M140.613 255.254L141.975 245.124L142.202 245.155L140.889 254.928L151.559 251.586L151.627 251.805L140.613 255.254Z" fill="black"/>
<path d="M132.575 269.063L131.126 249.166L131.355 249.149L132.785 268.776L150.867 264.355L150.922 264.578L132.575 269.063Z" fill="black"/>
<path d="M126.145 283.883L126.113 283.792L120.034 266.652L120.251 266.575L126.297 283.624L142.819 280.736L142.858 280.962L126.145 283.883Z" fill="black"/>
<path d="M120.588 287.195L119.155 283.758L119.274 283.756L119.376 283.714L120.799 287.106L120.588 287.195Z" fill="black"/>
<path d="M128.759 277.371L128.731 277.261L123.661 257.126L123.884 257.07L128.927 277.096L147.703 272.626L147.757 272.849L128.759 277.371Z" fill="black"/>
<path d="M347.966 285.004C369.968 285.004 387.805 281.44 387.805 277.044C387.805 272.648 369.968 269.084 347.966 269.084C325.963 269.084 308.126 272.648 308.126 277.044C308.126 281.44 325.963 285.004 347.966 285.004Z" fill="#404396"/>
<path d="M106.891 232.893C106.554 240.499 98.9211 248.971 98.9211 248.971C98.9211 248.971 91.7062 240.75 91.3442 232.893C91.1021 227.638 94.8245 224.597 99.1177 224.597C103.411 224.597 107.091 228.375 106.891 232.893Z" fill="#ECA7A9"/>
<path d="M99.0958 237.545C101.718 237.545 103.844 235.421 103.844 232.801C103.844 230.181 101.718 228.058 99.0958 228.058C96.4735 228.058 94.3477 230.181 94.3477 232.801C94.3477 235.421 96.4735 237.545 99.0958 237.545Z" fill="#31AAB7"/>
<path d="M57.4762 151.982C57.4762 151.982 116.317 164.084 133.334 150.829C150.352 137.574 103.337 117.693 61.5142 137.286C19.6913 156.88 57.4762 151.982 57.4762 151.982Z" fill="white"/>
<path d="M150.929 66.4009C150.929 66.4009 191.31 79.3676 227.364 66.4009C263.418 53.4341 244.093 45.0776 224.191 48.5355C204.289 51.9934 196.213 26.0595 162.466 38.45C128.719 50.8406 150.929 66.4009 150.929 66.4009Z" fill="white"/>
<path d="M67.466 152.709L123.816 143.364L120.787 125.134L92.9671 129.747L104.398 113.62C110.716 104.787 114.627 95.3805 112.974 85.4369C110.201 68.7457 95.3289 61.2377 80.531 63.6918C69.0479 65.5962 58.8837 73.2422 55.6022 86.4369L73.1379 93.1382C74.5217 87.5566 78.0356 83.0814 83.8364 82.1194C89.4004 81.1966 93.3052 84.1982 94.1707 89.4068C94.9772 94.2602 92.2322 99.7027 88.2047 105.479L65.1842 138.977L67.466 152.709Z" fill="#31AAB7"/>
<path d="M179.375 111.009H170.975V93.009H151.535V111.009H134.015L160.775 58.209H140.135L113.375 111.009V128.769H151.535V142.209H170.975V128.769H179.375V111.009Z" fill="#31AAB7"/>
<path d="M218.223 97.075C217.709 108.68 206.062 121.607 206.062 121.607C206.062 121.607 195.053 109.064 194.5 97.075C194.131 89.0563 199.811 84.416 206.362 84.416C212.913 84.416 218.528 90.1813 218.223 97.075Z" fill="#1097A3" fill-opacity="0.4"/>
<path d="M206.328 104.172C210.329 104.172 213.573 100.932 213.573 96.9342C213.573 92.9368 210.329 89.6963 206.328 89.6963C202.327 89.6963 199.083 92.9368 199.083 96.9342C199.083 100.932 202.327 104.172 206.328 104.172Z" fill="#31AAB7"/>
<path d="M385.138 72.1635C385.138 72.1635 335.815 63.2308 310.145 76.774C284.474 90.3171 335.509 99.2284 383.687 96.9339C431.864 94.6393 385.138 72.1635 385.138 72.1635Z" fill="white"/>
<path d="M173.495 215.428L169.645 226.058L170.076 226.214L173.927 215.585L173.495 215.428Z" fill="#19274A"/>
<path d="M261.038 163.235L266.642 162.811L271.633 162.878L274.843 163.81C274.843 163.81 273.509 169.412 269.363 169.93C265.217 170.447 261.653 167.542 261.038 163.235Z" fill="#5A174A"/>
<path d="M310.045 285.645H297.987C298.067 284.38 298.543 283.172 299.348 282.193C300.153 281.213 301.246 280.512 302.473 280.188C303.699 279.864 304.997 279.934 306.181 280.388C307.366 280.842 308.377 281.657 309.072 282.717V282.718C309.175 282.874 309.271 283.036 309.358 283.2L309.384 283.251C309.77 283.994 309.995 284.81 310.045 285.645Z" fill="white"/>
<path d="M264.289 221.625V221.629L256.263 232.122L251.463 238.396C251.463 238.396 253.326 246.557 254.567 252.012C256.188 259.143 258.519 269.138 258.636 269.826C258.64 269.834 255.828 270.481 255.828 270.488L248.934 272.364C248.934 272.364 239.275 241.395 238.54 237.837C238.108 235.737 242.466 224.863 246.106 216.32C248.626 210.405 250.799 205.603 250.799 205.603L254.91 205.788L257.248 205.895C257.755 206.9 259.504 210.441 261.584 215.179L264.289 221.625Z" fill="#404396"/>
<path d="M246.146 216.547L246.063 216.095C246.122 216.084 251.976 214.902 254.69 205.724L255.13 205.854C252.33 215.321 246.397 216.501 246.146 216.547Z" fill="#19274A"/>
<path d="M251.279 238.258L249.603 240.49L249.97 240.766L251.647 238.533L251.279 238.258Z" fill="#19274A"/>
<path d="M286.265 243.702C285.215 240.908 284.6 229.674 284.797 219.046C284.926 212.027 285.125 206.441 285.125 206.441L275.07 206.141L257.249 205.894C257.754 206.899 259.504 210.442 261.584 215.178C262.327 216.866 263.111 218.707 263.894 220.637C264.028 220.967 264.291 221.628 264.291 221.628C269.278 234.179 272.149 248.756 276.986 254.647C280.917 259.434 293.749 275.602 293.749 275.602L304.585 269.083C304.585 269.083 287.081 245.87 286.265 243.702Z" fill="#404396"/>
<path d="M284.746 219.27C281.886 218.627 279.504 216.782 277.665 213.789C276.471 211.772 275.595 209.583 275.069 207.3L274.845 206.186L275.295 206.096L275.518 207.202C277.64 216.272 282.749 218.35 284.847 218.822L284.746 219.27Z" fill="#19274A"/>
<path d="M256.188 272.726L251.277 274.538L250.172 272.06L250.184 272.056L255.829 270.49C255.829 271.014 256.188 272.726 256.188 272.726Z" fill="#FD8680"/>
<path d="M257.515 280.257L249.703 285.01L244.216 288.348C243.656 287.956 243.217 287.415 242.946 286.788L249.303 282.861C249.031 282.224 248.629 281.65 248.125 281.175C247.62 280.7 247.022 280.334 246.369 280.1C246.88 279.829 247.505 279.508 248.149 279.202C248.272 279.144 248.395 279.085 248.518 279.03C248.518 279.03 249.83 280.425 250.43 280.241C250.866 280.089 251.283 279.887 251.672 279.64C251.957 279.481 252.209 279.269 252.412 279.014C252.722 278.523 252.184 276.49 252.184 276.49C252.211 275.746 251.277 274.539 251.277 274.539L256.188 272.727L257.751 277.646L257.784 277.748L258.147 278.529C258.292 278.842 258.307 279.2 258.189 279.524C258.07 279.848 257.828 280.111 257.515 280.257Z" fill="#FFAA40"/>
<path d="M252.412 279.012C252.208 279.267 251.957 279.48 251.672 279.638C251.634 279.625 251.598 279.607 251.564 279.586C251.562 279.585 251.561 279.585 251.559 279.583C251.541 279.573 251.523 279.561 251.506 279.548C251.413 279.477 251.33 279.393 251.261 279.298C251.246 279.279 251.233 279.26 251.219 279.239C251.182 279.187 251.148 279.133 251.115 279.075C251.097 279.047 251.081 279.018 251.066 278.988C251.028 278.919 250.992 278.847 250.959 278.776C250.937 278.73 250.917 278.686 250.896 278.638C250.875 278.591 250.857 278.548 250.837 278.503C250.818 278.458 250.801 278.414 250.783 278.371C250.747 278.283 250.714 278.2 250.682 278.122C250.665 278.084 250.65 278.047 250.636 278.011C250.633 278.004 250.63 277.997 250.626 277.991C250.618 277.972 250.611 277.954 250.603 277.936C250.584 277.896 250.566 277.86 250.55 277.827C251.081 277.566 251.58 277.244 252.035 276.866C252.132 276.763 252.185 276.627 252.184 276.486C252.184 276.486 252.722 278.522 252.412 279.012Z" fill="#19274A"/>
<path d="M251.672 279.638C251.282 279.886 250.866 280.088 250.43 280.24C249.829 280.423 248.518 279.029 248.518 279.029C249.132 278.743 249.999 278.079 250.512 277.846C250.524 277.84 250.536 277.835 250.549 277.828C250.565 277.861 250.583 277.897 250.602 277.937C250.61 277.955 250.617 277.973 250.625 277.992C250.629 277.999 250.632 278.005 250.635 278.012C250.648 278.048 250.665 278.085 250.68 278.123C250.712 278.201 250.746 278.284 250.782 278.372C250.799 278.416 250.817 278.459 250.836 278.504C250.855 278.549 250.875 278.595 250.895 278.64C250.915 278.685 250.936 278.731 250.958 278.777C250.991 278.849 251.027 278.919 251.065 278.989C251.08 279.019 251.096 279.048 251.114 279.077C251.147 279.134 251.181 279.189 251.218 279.241C251.231 279.261 251.245 279.28 251.26 279.299C251.329 279.394 251.411 279.479 251.505 279.549C251.522 279.562 251.54 279.574 251.558 279.585C251.56 279.586 251.561 279.586 251.562 279.588C251.597 279.608 251.634 279.625 251.672 279.638Z" fill="#19274A"/>
<path d="M257.515 280.256L249.703 285.009L244.216 288.347C243.656 287.954 243.217 287.414 242.946 286.787L249.303 282.86L257.751 277.645L257.784 277.747L258.147 278.528C258.292 278.841 258.307 279.199 258.189 279.523C258.07 279.847 257.828 280.11 257.515 280.256Z" fill="#19274A"/>
<path d="M249.302 282.86L242.946 286.787C242.695 286.247 242.552 285.662 242.527 285.067C242.502 284.472 242.595 283.878 242.8 283.319C243.005 282.76 243.318 282.246 243.721 281.808C244.125 281.369 244.611 281.015 245.152 280.764C245.152 280.764 245.647 280.483 246.369 280.099C247.022 280.333 247.619 280.699 248.124 281.174C248.629 281.649 249.03 282.223 249.302 282.86Z" fill="white"/>
<path d="M309.359 283.2L304.016 273.002L298.29 276.699L297.987 285.644C298.067 284.38 298.543 283.172 299.348 282.192C300.153 281.213 301.246 280.511 302.473 280.187C303.699 279.863 304.997 279.933 306.181 280.387C307.366 280.841 308.377 281.656 309.072 282.716V282.718C309.176 282.874 309.271 283.035 309.359 283.2ZM300.039 277.33L299.794 276.907C299.725 276.787 299.707 276.644 299.743 276.51C299.779 276.376 299.867 276.262 299.987 276.192L302.255 274.884C302.315 274.85 302.38 274.828 302.448 274.819C302.517 274.81 302.586 274.814 302.652 274.832C302.719 274.85 302.781 274.881 302.836 274.922C302.89 274.964 302.936 275.016 302.97 275.076L303.215 275.499C303.249 275.559 303.272 275.624 303.281 275.693C303.29 275.761 303.285 275.83 303.267 275.896C303.25 275.963 303.219 276.025 303.177 276.079C303.135 276.134 303.083 276.18 303.024 276.214L300.754 277.522C300.695 277.556 300.629 277.578 300.561 277.587C300.493 277.596 300.424 277.592 300.357 277.574C300.291 277.556 300.228 277.526 300.174 277.484C300.119 277.442 300.074 277.39 300.039 277.33ZM303.841 277.896L301.572 279.204C301.513 279.238 301.447 279.261 301.379 279.27C301.311 279.279 301.241 279.274 301.175 279.256C301.109 279.238 301.046 279.208 300.992 279.166C300.937 279.124 300.892 279.072 300.857 279.013L300.612 278.59C300.543 278.47 300.524 278.327 300.56 278.193C300.596 278.059 300.684 277.944 300.804 277.874L303.073 276.567C303.132 276.532 303.198 276.51 303.266 276.501C303.334 276.492 303.404 276.496 303.47 276.514C303.537 276.532 303.599 276.563 303.653 276.604C303.708 276.646 303.754 276.698 303.788 276.758L304.033 277.181C304.102 277.302 304.121 277.445 304.085 277.579C304.049 277.713 303.962 277.827 303.841 277.897V277.896Z" fill="#FFAA40"/>
<path d="M303.841 277.898L301.572 279.206C301.512 279.24 301.447 279.262 301.379 279.271C301.31 279.28 301.241 279.276 301.175 279.258C301.108 279.24 301.046 279.209 300.991 279.168C300.937 279.126 300.891 279.074 300.857 279.014L300.612 278.592C300.543 278.472 300.524 278.329 300.56 278.195C300.596 278.06 300.683 277.946 300.803 277.876L303.072 276.568C303.132 276.534 303.198 276.512 303.266 276.503C303.334 276.494 303.403 276.498 303.47 276.516C303.536 276.534 303.598 276.564 303.653 276.606C303.708 276.648 303.753 276.7 303.788 276.76L304.033 277.183C304.102 277.303 304.12 277.446 304.084 277.58C304.049 277.714 303.961 277.828 303.841 277.898Z" fill="#19274A"/>
<path d="M303.023 276.215L300.754 277.523C300.695 277.557 300.629 277.58 300.561 277.589C300.493 277.598 300.424 277.593 300.357 277.575C300.291 277.558 300.228 277.527 300.174 277.485C300.119 277.443 300.074 277.391 300.039 277.332L299.794 276.908C299.725 276.788 299.707 276.645 299.743 276.511C299.779 276.377 299.867 276.263 299.987 276.193L302.255 274.886C302.314 274.851 302.38 274.829 302.448 274.82C302.516 274.811 302.586 274.815 302.652 274.833C302.719 274.851 302.781 274.882 302.835 274.923C302.89 274.965 302.936 275.017 302.97 275.077L303.215 275.501C303.249 275.56 303.272 275.626 303.281 275.694C303.29 275.762 303.285 275.831 303.267 275.897C303.25 275.964 303.219 276.026 303.177 276.08C303.135 276.135 303.083 276.181 303.023 276.215Z" fill="#19274A"/>
<path d="M297.988 285.645H310.046V286.453C310.046 286.833 309.895 287.198 309.627 287.466C309.358 287.735 308.993 287.886 308.613 287.886H299.423C299.043 287.886 298.678 287.735 298.409 287.466C298.14 287.198 297.989 286.833 297.989 286.453V285.645H297.988Z" fill="#19274A"/>
<path d="M291.357 196.089C290.603 197.076 287.968 197.755 284.621 198.221L285.343 207.631C279.591 207.631 250.504 210.145 250.001 209.641C249.763 209.405 249.445 203.465 249.176 197.264C244.146 197.486 224.247 198.363 222.927 198.363C221.418 198.363 221.586 194.341 221.992 193.191C222.404 192.029 237.506 187.93 240.447 187.142C243.109 180.435 248.493 166.982 249.246 165.942C249.755 165.24 252.76 164.556 255.611 164.05C258.399 163.558 261.038 163.235 261.038 163.235C264.957 171.641 271.285 171.209 274.844 163.811C274.844 163.811 276.584 164.279 278.811 164.981C282.137 166.029 286.546 167.597 287.86 168.91C290.522 171.571 293.994 192.641 291.357 196.089Z" fill="#9395D1"/>
<path d="M240.506 187.364L240.387 186.921C240.706 186.835 240.882 186.788 240.882 186.788L240.999 187.232C240.999 187.232 240.823 187.278 240.506 187.364Z" fill="#19274A"/>
<path d="M248.946 197.274C248.649 190.417 248.407 183.143 248.405 183.071L248.865 183.056C248.867 183.128 249.109 190.4 249.405 197.255L248.946 197.274Z" fill="#19274A"/>
<path d="M239.176 190.977L238.749 190.809C238.749 190.809 239.338 189.314 240.233 187.058L240.66 187.227C239.765 189.483 239.176 190.976 239.176 190.977Z" fill="#19274A"/>
<path d="M265.265 199.458C264.692 199.458 264.363 199.455 264.344 199.455L264.116 199.453V194.231L264.263 194.175C270.664 191.714 280.318 187.945 281.002 187.524C281.187 187.076 281.119 183.624 280.943 180.489L281.402 180.463C281.548 183.05 281.732 187.45 281.336 187.847C280.953 188.229 268.608 192.996 264.576 194.547V198.998C266.286 199.006 277.234 199.017 284.59 197.994L284.653 198.449C277.941 199.381 268.266 199.458 265.265 199.458Z" fill="#19274A"/>
<path d="M256.869 204.242C256.441 204.018 252.671 202.04 252.176 201.543L252.501 201.219C252.838 201.557 255.426 202.969 257.082 203.835L256.869 204.242Z" fill="#19274A"/>
<path d="M280.229 200.544L276.454 203.866L276.758 204.211L280.533 200.888L280.229 200.544Z" fill="#19274A"/>
<path d="M271.635 157.258C271.526 157.243 271.415 157.223 271.3 157.196C270.655 158.185 268.534 161.228 266.423 161.909C266.104 162.017 265.766 162.061 265.43 162.038C259.69 161.556 260.527 154.255 260.801 152.559C260.955 152.64 260.705 153.253 261.121 153.161C262.142 152.931 264.409 151.055 264.511 150.97C264.898 151.123 265.28 151.278 265.656 151.435C266.649 151.848 267.601 152.276 268.513 152.72C269.305 153.104 270.064 153.5 270.789 153.907C271.271 153.582 272.248 153.035 273.156 153.189C273.462 153.24 273.748 153.375 273.981 153.579C274.018 153.61 274.054 153.643 274.088 153.677C275.064 154.651 274.349 157.633 271.635 157.258Z" fill="#FD8680"/>
<path d="M264.638 151.162L264.498 150.952L264.676 151.13L264.638 151.162ZM264.51 150.971L264.352 150.806L264.51 150.971Z" fill="#2DEA43"/>
<path d="M264.511 150.969C264.408 151.055 262.142 152.932 261.121 153.16C260.705 153.252 260.954 152.639 260.8 152.558C260.176 152.228 258.523 154.614 258.205 154.001C257.887 153.389 260.212 151.678 259.909 151.118C259.473 150.313 256.273 152.42 256.273 151.572C256.273 150.322 260.02 149.783 260.966 149.668C261.545 149.867 262.113 150.068 262.672 150.271C263.297 150.5 263.91 150.732 264.511 150.969Z" fill="#8E3332"/>
<path d="M273.156 153.189C272.247 153.034 271.271 153.582 270.788 153.907C270.064 153.5 269.305 153.104 268.513 152.72C268.995 151.737 269.825 150.397 270.299 149.653C271.815 150.672 272.992 151.885 273.156 153.189Z" fill="#9395D1"/>
<path d="M264.08 146.87C263.536 147.971 263.065 149.107 262.671 150.27C262.113 150.067 261.545 149.866 260.966 149.667C260.966 149.667 261.581 146.96 262.575 146.654C262.836 146.62 263.101 146.636 263.356 146.703C263.567 146.742 263.81 146.798 264.08 146.87Z" fill="#404396"/>
<path d="M267.157 147.966C266.597 149.096 266.096 150.253 265.655 151.435C265.28 151.277 264.898 151.122 264.511 150.97C263.911 150.733 263.297 150.499 262.671 150.27C263.065 149.107 263.536 147.971 264.08 146.87C265.131 147.16 266.159 147.526 267.157 147.966Z" fill="#9395D1"/>
<path d="M270.299 149.653C269.826 150.396 268.995 151.737 268.513 152.719C267.602 152.276 266.65 151.848 265.655 151.434C266.096 150.253 266.598 149.095 267.158 147.965C268.253 148.434 269.304 148.998 270.299 149.653Z" fill="#404396"/>
<path d="M275.381 150.08C275.323 148.883 274.731 147.419 273.603 146.218C273.161 145.746 272.656 145.336 272.102 145.001C271.017 144.35 269.786 143.979 268.521 143.922C265.495 143.753 263.814 145.987 263.356 146.703C263.568 146.742 263.81 146.798 264.08 146.87C265.131 147.161 266.16 147.527 267.158 147.966C268.253 148.434 269.304 148.999 270.299 149.653C271.815 150.671 272.992 151.884 273.156 153.188C273.462 153.24 273.748 153.375 273.981 153.579C274.393 152.854 275.422 150.949 275.381 150.08ZM269.554 148.145C269.203 148.099 267.032 146.866 267.091 146.363C267.126 146.066 267.862 145.477 268.157 145.602C268.453 145.728 270.429 146.454 270.429 146.896C270.429 147.339 269.907 148.19 269.554 148.145Z" fill="#404396"/>
<path d="M273.603 146.218C273.161 145.746 272.656 145.336 272.103 145.001C272.184 144.884 272.289 144.786 272.411 144.712C272.533 144.638 272.669 144.591 272.81 144.573C272.951 144.555 273.095 144.566 273.231 144.607C273.368 144.647 273.495 144.716 273.603 144.808C274.498 145.443 273.603 146.218 273.603 146.218Z" fill="#9395D1"/>
<path d="M270.429 146.896C270.429 147.339 269.907 148.19 269.555 148.144C269.202 148.099 267.032 146.866 267.091 146.362C267.126 146.065 267.862 145.477 268.157 145.602C268.453 145.727 270.429 146.453 270.429 146.896Z" fill="#FEFEFE"/>
<path d="M271.681 155.675L271.313 155.4C271.552 155.089 271.882 154.86 272.257 154.745C272.633 154.63 273.035 154.636 273.407 154.761L273.254 155.194C272.974 155.102 272.673 155.099 272.391 155.186C272.11 155.272 271.861 155.443 271.681 155.675Z" fill="#CC5754"/>
<path d="M271.634 157.258V162.878C270.256 165.672 268.483 166.671 266.316 165.874L266.422 161.909C268.534 161.228 270.654 158.185 271.3 157.196C271.414 157.223 271.526 157.243 271.634 157.258Z" fill="#FD8680"/>
<path d="M266.422 161.909C267.61 161.526 268.8 160.394 269.73 159.304C269.73 159.304 269.452 162.045 266.316 163.763L266.422 161.909Z" fill="#CC5754"/>
<path d="M223.337 192.827C223.337 192.827 216.999 191.375 217.212 191.964C217.425 192.552 219.38 193.033 219.38 193.033L218.872 193.972C218.872 193.972 214.304 194.752 214.252 195.4C214.201 196.048 218.153 195.383 218.153 195.383C218.153 195.383 214.864 196.428 214.541 197.219C214.218 198.01 218.388 196.79 218.388 196.79C218.388 196.79 215.529 197.869 215.57 198.442C215.611 199.016 222.93 197.94 222.93 197.94L223.337 192.827Z" fill="#FD8680"/>
<path d="M261.469 170.828H216.049V207.43H261.469V170.828Z" fill="#E57D00"/>
<path d="M238.759 170.828H216.049V207.43H238.759V170.828Z" fill="#FFAA40"/>
<path d="M221.315 194.182H216.049V197.325H221.315V194.182Z" fill="#E57D00"/>
<path d="M261.469 176.217H256.203V178.687H261.469V176.217Z" fill="#FFAA40"/>
<path d="M264.798 194.322C264.798 194.322 258.461 192.871 258.674 193.459C258.887 194.047 260.842 194.528 260.842 194.528L260.334 195.467C260.334 195.467 255.766 196.247 255.714 196.895C255.663 197.543 259.615 196.878 259.615 196.878C259.615 196.878 256.326 197.923 256.003 198.713C255.68 199.503 259.85 198.284 259.85 198.284C259.85 198.284 256.991 199.363 257.032 199.936C257.073 200.51 264.391 199.434 264.391 199.434L264.798 194.322Z" fill="#FD8680"/>
<path d="M260.722 212.701L260.3 212.882L264.081 221.715L264.503 221.534L260.722 212.701Z" fill="#19274A"/>
<path d="M304.016 273.002L302.538 270.314L295.976 274.262L298.29 276.699L304.016 273.002Z" fill="#FD8680"/>
<path d="M142.785 189.094C145.961 190.68 149.848 188.569 154.496 186.262L155.004 209.71H166.698V167.965C164.271 167.997 158.995 168.25 156.731 169.757C154.503 171.241 150.131 175.921 145.867 180.104L140.886 169.757H135.703C135.703 169.757 138.998 187.202 142.785 189.094Z" fill="#404396"/>
<path d="M177.195 168.215V209.685C177.195 209.685 186.463 209.85 186.962 209.352C187.247 209.067 187.314 200.176 187.321 192.634C189.431 195.994 191.464 199.009 193.009 201.239C193.614 204.763 197.128 218.176 197.128 218.844C197.128 219.573 200.981 219.168 201.711 218.844C202.258 218.601 200.716 200.988 200.716 199.13C200.716 197.273 192.31 178.421 190.118 174.836C188.284 171.836 179.885 169.045 177.195 168.215ZM180.119 184.437H184.636V185.611H180.119L180.119 184.437Z" fill="#404396"/>
<path d="M192.783 201.279C192.733 201.03 192.703 200.778 192.691 200.524H193.151C193.162 200.751 193.191 200.977 193.237 201.199L192.783 201.279Z" fill="#19274A"/>
<path d="M195.614 205.306C195.603 205.291 194.487 203.775 192.82 201.37L193.198 201.108C194.86 203.508 195.973 205.019 195.984 205.034L195.614 205.306Z" fill="#19274A"/>
<path d="M187.091 192.634V192.633H187.55L187.091 192.634Z" fill="#19274A"/>
<path d="M187.091 192.634V192.632C187.095 187.075 187.065 182.187 187.064 182.139L187.524 182.136C187.524 182.184 187.554 187.074 187.55 192.632L187.091 192.634Z" fill="#19274A"/>
<path d="M154.571 180.407L154.111 180.417L154.288 188.198L154.748 188.187L154.571 180.407Z" fill="#19274A"/>
<path d="M166.697 169.759V209.71H177.195V169.759C177.022 169.984 176.831 170.195 176.624 170.389C175.3 171.666 171.746 174.078 166.697 169.759Z" fill="#7B7DB5"/>
<path d="M184.637 184.438H180.119V185.612H184.637V184.438Z" fill="#E2DAF1"/>
<path d="M177.196 168.215L175.287 167.996L169.041 167.914L166.698 167.966L166.658 171.69L172.411 175.877L177.341 171.526L177.196 168.215Z" fill="#5A174A"/>
<path d="M173.799 215.266L175.883 209.511L185.448 209.394L187.643 276.172H178.012C178.012 276.172 175.612 254.858 171.583 234.615L171.544 234.408L169.863 226.154L169.859 226.133L169.849 226.083L173.71 215.505L173.799 215.266Z" fill="#9395D1"/>
<path d="M141.27 276.674L152.128 278.932L169.859 226.134L173.711 215.505L173.798 215.267L175.883 209.513L156.214 209.395L154.088 220.198L141.27 276.674Z" fill="#9395D1"/>
<path d="M188.162 285.13H196.799C196.799 283.986 196.344 282.888 195.534 282.079C194.724 281.27 193.626 280.815 192.481 280.815C191.335 280.815 190.237 281.27 189.427 282.079C188.617 282.888 188.162 283.986 188.162 285.13Z" fill="white"/>
<path d="M140.345 287.719H151.816C151.74 286.515 151.287 285.366 150.521 284.434C149.755 283.502 148.715 282.835 147.548 282.527C146.381 282.218 145.147 282.285 144.02 282.717C142.893 283.149 141.931 283.924 141.27 284.933V284.934C140.723 285.766 140.404 286.726 140.345 287.719Z" fill="white"/>
<path d="M188.162 285.129H196.799C196.8 285.848 196.621 286.555 196.277 287.187H180.532V285.129H188.162Z" fill="#19274A"/>
<path d="M179.735 278.294L180.532 285.13H188.163C188.163 283.986 188.618 282.889 189.427 282.08C190.237 281.271 191.336 280.816 192.481 280.816C192.481 280.816 190.908 280.685 189.268 280.667C189.14 280.667 189.009 280.664 188.881 280.667C188.881 280.667 188.308 282.395 187.716 282.477C187.279 282.52 186.838 282.512 186.403 282.454C186.094 282.431 185.792 282.348 185.515 282.21C185.05 281.912 185.448 280.34 185.448 280.34C185.127 279.71 185.448 278.295 185.448 278.295L179.735 278.294Z" fill="#FFAC32"/>
<path d="M141.27 284.934C141.781 284.154 142.474 283.51 143.289 283.058C144.105 282.606 145.018 282.359 145.951 282.338C146.883 282.317 147.807 282.523 148.642 282.939C149.477 283.354 150.198 283.966 150.743 284.722L150.234 280.284H142.262L141.27 284.934Z" fill="#FFAC32"/>
<path d="M185.323 221.8C185.271 221.766 180.105 218.318 179.306 209.488L179.763 209.447C180.542 218.058 185.523 221.383 185.574 221.415L185.323 221.8Z" fill="#19274A"/>
<path d="M154.2 220.397L153.977 219.995C160.201 216.546 162.285 209.555 162.305 209.484L162.746 209.612C162.726 209.685 160.587 216.858 154.2 220.397Z" fill="#19274A"/>
<path d="M185.515 282.209C185.793 282.347 186.095 282.43 186.404 282.454C186.845 282.013 187.012 281.085 187.065 280.685C186.618 280.713 186.17 280.687 185.73 280.608C185.605 280.558 185.504 280.462 185.449 280.34C185.449 280.34 185.051 281.91 185.515 282.209Z" fill="#404396"/>
<path d="M186.403 282.454C186.839 282.512 187.279 282.519 187.716 282.477C188.308 282.395 188.881 280.666 188.881 280.666C188.238 280.666 187.6 280.682 187.064 280.686C187.011 281.085 186.844 282.013 186.403 282.454Z" fill="#404396"/>
<path d="M149.956 289.578H142.204C141.711 289.578 141.238 289.382 140.889 289.034C140.54 288.685 140.344 288.212 140.344 287.72H151.815C151.815 288.212 151.619 288.685 151.271 289.034C150.922 289.382 150.448 289.578 149.955 289.578H149.956Z" fill="#19274A"/>
<path d="M169.087 167.998C171.3 170.274 173.347 170.274 175.23 167.998L174.902 164.028C174.055 164.339 173.159 164.493 172.257 164.484C171.407 164.481 170.568 164.279 169.811 163.893L169.087 167.998Z" fill="#FD8680"/>
<path d="M174.752 164.083C174.041 164.691 173.203 165.132 172.3 165.374C171.396 165.617 170.45 165.655 169.53 165.485L169.811 163.893L174.752 164.083Z" fill="#CC5754"/>
<path d="M165.037 154.558C165.427 154.762 165.767 155.051 166.03 155.404C169.372 154.662 171.053 149.703 171.053 149.703C172.572 155.938 177.973 156.298 177.973 156.298C178.29 155.91 179.053 155.116 180.021 155.082C179.667 153.182 178.594 149.379 175.533 147.77C174.278 147.133 172.861 146.888 171.465 147.065C170.282 147.158 169.146 147.567 168.175 148.25C166.074 149.764 165.3 152.404 165.037 154.558Z" fill="#8E3332"/>
<path d="M163.375 158.215C163.623 158.808 164.02 159.327 164.527 159.723C165.033 160.119 165.633 160.379 166.269 160.476C167.077 161.716 168.261 163.119 169.811 163.893C170.568 164.279 171.407 164.481 172.257 164.484C173.159 164.493 174.055 164.339 174.902 164.028C176.425 163.455 177.64 162.351 178.558 160.782C178.944 160.87 179.346 160.853 179.723 160.734C180.1 160.615 180.439 160.398 180.704 160.104C181.991 158.817 182.429 156.005 180.926 155.279C180.645 155.139 180.334 155.071 180.021 155.081C179.054 155.117 178.289 155.911 177.973 156.297C177.973 156.297 172.572 155.938 171.052 149.702C171.052 149.702 169.371 154.661 166.029 155.404C165.766 155.051 165.427 154.761 165.037 154.558C164.896 154.491 164.743 154.455 164.588 154.453C163.428 154.454 162.387 155.879 163.375 158.215Z" fill="#FD8680"/>
<path d="M178.876 158.931L178.452 158.754C178.559 158.466 178.731 158.207 178.955 157.998C179.179 157.788 179.449 157.634 179.743 157.547L179.87 157.988C179.642 158.056 179.434 158.177 179.261 158.341C179.088 158.505 178.957 158.707 178.876 158.931Z" fill="#CC5754"/>
<path d="M179.87 157.987L179.743 157.546C179.976 157.478 180.22 157.454 180.462 157.477L180.402 157.932C180.223 157.918 180.043 157.937 179.87 157.987Z" fill="#CC5754"/>
<path d="M166.197 157.969C165.795 157.143 164.333 156.943 164.318 156.942L164.378 156.486C164.447 156.496 166.1 156.72 166.61 157.768L166.197 157.969Z" fill="#CC5754"/>
<path d="M164.756 158.074L164.419 157.762C164.445 157.734 165.074 157.063 165.757 156.989L165.807 157.445C165.38 157.492 164.903 157.916 164.756 158.074Z" fill="#CC5754"/>
<path d="M179.549 158.431C179.398 158.348 179.269 158.229 179.174 158.085L179.566 157.846C179.623 157.925 179.698 157.991 179.784 158.037L179.549 158.431Z" fill="#19274A"/>
<path d="M180.03 158.642C179.862 158.591 179.7 158.52 179.549 158.432L179.785 158.038C179.903 158.106 180.027 158.161 180.157 158.201L180.03 158.642Z" fill="#19274A"/>
<path d="M179.577 157.768V157.767H180.037L179.577 157.768Z" fill="#19274A"/>
<path d="M179.438 158.234V158.233H179.897L179.438 158.234Z" fill="#CC5754"/>
<path d="M168.176 148.249C169.146 147.566 170.282 147.157 171.465 147.064C172.861 146.887 174.278 147.132 175.533 147.769C176.272 146.393 176.473 144.793 176.098 143.277C175.536 141.098 173.299 139.591 171.392 139.591C168.593 139.591 166.913 142.49 166.809 143.797C166.685 145.4 167.173 146.991 168.176 148.249Z" fill="#8E3332"/>
<path d="M140.885 169.759C140.885 169.759 141.84 163.645 141.265 163.891C140.69 164.138 140.361 166.025 140.361 166.025L139.375 165.615C139.375 165.615 138.224 161.346 137.567 161.346C136.909 161.346 137.895 165.04 137.895 165.04C137.895 165.04 136.581 162.002 135.759 161.756C134.938 161.51 136.499 165.368 136.499 165.368C136.499 165.368 135.184 162.741 134.609 162.823C134.034 162.906 135.703 169.758 135.703 169.758L140.885 169.759Z" fill="#FD8680"/>
<path d="M197.128 218.845L196.488 223.74C196.488 223.74 197.269 224.068 197.475 223.289C197.68 222.509 197.844 221.4 197.844 221.4L198.707 222.221L198.173 226.655C198.173 226.655 198.543 226.778 198.871 226.285C199.2 225.793 200.022 222.591 200.022 222.591L199.734 225.875C199.734 225.875 199.94 226.121 200.433 225.259C200.926 224.397 201.255 222.509 201.255 222.509L201.213 224.685C201.439 224.559 201.631 224.382 201.774 224.168C201.917 223.954 202.006 223.709 202.035 223.453C202.118 222.591 201.83 218.691 201.83 218.691L197.128 218.845Z" fill="#FD8680"/>
<path d="M142.262 280.284L142.583 276.946L150.412 278.615L150.234 280.284H142.262Z" fill="#FD8680"/>
<path d="M179.735 278.293L179.379 276.171H185.714L185.448 278.293H179.735Z" fill="#FD8680"/>
<path d="M249.961 96.6442L249.402 103.052L244.142 102.595L244.7 96.1868L240.875 95.8541L239.417 112.591L243.242 112.923L243.821 106.277L249.081 106.734L248.502 113.381L252.328 113.714L253.786 96.9769L249.961 96.6442ZM260.79 114.787C264.305 115.092 267.366 112.588 267.676 109.026C267.987 105.463 265.405 102.468 261.89 102.163C258.376 101.857 255.315 104.361 255.004 107.924C254.694 111.486 257.276 114.481 260.79 114.787ZM261.094 111.296C259.54 111.161 258.443 109.933 258.591 108.236C258.739 106.538 260.032 105.518 261.586 105.653C263.14 105.789 264.238 107.016 264.09 108.714C263.942 110.411 262.649 111.431 261.094 111.296ZM277.949 103.896L277.38 110.424C277.232 112.121 276.257 112.807 274.942 112.693C273.794 112.593 272.922 111.819 273.051 110.336L273.645 103.522L270.058 103.21L269.419 110.55C269.138 113.778 271.044 115.678 273.459 115.888C275.037 116.026 276.282 115.556 277.005 114.727L276.907 115.851L280.493 116.163L281.535 104.208L277.949 103.896ZM287.566 106.877L287.752 104.749L284.165 104.437L283.124 116.392L286.71 116.704L287.181 111.3C287.387 108.933 289.543 108.518 291.005 108.886L291.359 104.822C289.853 104.691 288.184 105.317 287.566 106.877ZM295.756 108.962C295.793 108.532 296.196 108.326 296.818 108.38C297.607 108.449 298.048 108.921 298.328 109.571L301.533 108.188C300.676 106.403 299.03 105.392 297.093 105.224C294.607 105.008 292.292 106.132 292.065 108.738C291.705 112.874 297.647 112.692 297.532 114.007C297.491 114.485 297.037 114.711 296.177 114.636C295.125 114.545 294.499 113.984 294.267 113.049L291.005 114.548C291.769 116.565 293.507 117.632 295.897 117.84C298.48 118.064 300.973 117.101 301.212 114.351C301.598 109.928 295.637 110.325 295.756 108.962Z" fill="#31AAB7"/>
</svg>
