<svg width="205" height="62" viewBox="0 0 205 62" fill="none" xmlns="http://www.w3.org/2000/svg">
<g id="icon/app/appstore">
<g id="icon/app/appstore_2">
<rect id="Rectangle" x="1" y="1" width="203" height="60" rx="8" fill="#31AAB7" stroke="#31AAB7"/>
<path id="Fill 4" fill-rule="evenodd" clip-rule="evenodd" d="M52.4264 29.6321C52.3904 25.3361 55.9424 23.2481 56.0984 23.1521C54.0824 20.2241 50.9624 19.8161 49.8704 19.7801C47.2544 19.5041 44.7104 21.3521 43.3784 21.3521C42.0224 21.3521 39.9584 19.8161 37.7504 19.8521C34.9064 19.9001 32.2304 21.5441 30.7784 24.1121C27.7664 29.3321 30.0104 37.0121 32.9024 41.2361C34.3544 43.3001 36.0344 45.6161 38.2544 45.5321C40.4144 45.4481 41.2304 44.1521 43.8344 44.1521C46.4264 44.1521 47.1824 45.5321 49.4384 45.4841C51.7664 45.4481 53.2184 43.4081 54.6224 41.3201C56.2904 38.9561 56.9624 36.6161 56.9864 36.4961C56.9264 36.4721 52.4744 34.7681 52.4264 29.6321Z" fill="black"/>
<path id="Fill 6" fill-rule="evenodd" clip-rule="evenodd" d="M48.1663 17.0076C49.3303 15.5556 50.1223 13.5756 49.9063 11.5596C48.2263 11.6316 46.1143 12.7236 44.9023 14.1516C43.8343 15.4116 42.8743 17.4636 43.1143 19.3956C45.0103 19.5396 46.9543 18.4356 48.1663 17.0076Z" fill="black"/>
<path id="Fill 8" fill-rule="evenodd" clip-rule="evenodd" d="M78.5984 37.8398L77.0984 33.2198C76.9424 32.7398 76.6424 31.6358 76.2104 29.8838H76.1504C75.9704 30.6398 75.6944 31.7558 75.3104 33.2198L73.8344 37.8398H78.5984ZM83.7704 45.2318H80.7464L79.0904 40.0238H73.3304L71.7584 45.2318H68.8184L74.5184 27.5078H78.0464L83.7704 45.2318Z" fill="black"/>
<path id="Fill 10" fill-rule="evenodd" clip-rule="evenodd" d="M95.5304 38.7885C95.5304 37.5405 95.2544 36.5205 94.6904 35.7165C94.0784 34.8765 93.2504 34.4565 92.2184 34.4565C91.5224 34.4565 90.8864 34.6965 90.3104 35.1525C89.7464 35.6205 89.3624 36.2205 89.1944 36.9765C89.1104 37.3245 89.0624 37.6125 89.0624 37.8405V39.9765C89.0624 40.9005 89.3504 41.6925 89.9144 42.3285C90.4784 42.9645 91.2224 43.2885 92.1344 43.2885C93.2024 43.2885 94.0304 42.8685 94.6304 42.0525C95.2304 41.2245 95.5304 40.1445 95.5304 38.7885ZM98.4224 38.6925C98.4224 40.8645 97.8344 42.5805 96.6464 43.8405C95.5904 44.9685 94.2704 45.5205 92.7104 45.5205C91.0184 45.5205 89.8064 44.9205 89.0624 43.7085V50.4165H86.2184V36.6525C86.2184 35.2845 86.1824 33.8925 86.1104 32.4525H88.6064L88.7624 34.4805H88.8104C89.7584 32.9565 91.1984 32.1885 93.1184 32.1885C94.6304 32.1885 95.8784 32.7885 96.8864 33.9765C97.9184 35.1765 98.4224 36.7365 98.4224 38.6925Z" fill="black"/>
<path id="Fill 12" fill-rule="evenodd" clip-rule="evenodd" d="M110.218 38.7885C110.218 37.5405 109.942 36.5205 109.378 35.7165C108.766 34.8765 107.938 34.4565 106.906 34.4565C106.21 34.4565 105.574 34.6965 104.998 35.1525C104.434 35.6205 104.062 36.2205 103.882 36.9765C103.798 37.3245 103.75 37.6125 103.75 37.8405V39.9765C103.75 40.9005 104.038 41.6925 104.602 42.3285C105.166 42.9645 105.91 43.2885 106.822 43.2885C107.89 43.2885 108.73 42.8685 109.318 42.0525C109.93 41.2245 110.218 40.1445 110.218 38.7885ZM113.11 38.6925C113.11 40.8645 112.522 42.5805 111.334 43.8405C110.278 44.9685 108.958 45.5205 107.398 45.5205C105.706 45.5205 104.494 44.9205 103.75 43.7085V50.4165H100.906V36.6525C100.906 35.2845 100.87 33.8925 100.798 32.4525H103.294L103.45 34.4805H103.498C104.446 32.9565 105.886 32.1885 107.806 32.1885C109.318 32.1885 110.566 32.7885 111.574 33.9765C112.606 35.1765 113.11 36.7365 113.11 38.6925Z" fill="black"/>
<path id="Fill 14" fill-rule="evenodd" clip-rule="evenodd" d="M129.55 40.2639C129.55 41.7759 129.022 42.9999 127.978 43.9479C126.826 44.9799 125.218 45.4959 123.154 45.4959C121.246 45.4959 119.722 45.1239 118.57 44.3919L119.23 42.0279C120.478 42.7599 121.846 43.1319 123.334 43.1319C124.402 43.1319 125.242 42.8919 125.83 42.4119C126.43 41.9319 126.73 41.2839 126.73 40.4799C126.73 39.7599 126.478 39.1599 125.998 38.6679C125.506 38.1759 124.69 37.7199 123.55 37.2999C120.418 36.1359 118.87 34.4439 118.87 32.2239C118.87 30.7719 119.422 29.5839 120.514 28.6479C121.606 27.7239 123.058 27.2559 124.87 27.2559C126.478 27.2559 127.822 27.5319 128.89 28.0959L128.17 30.3999C127.162 29.8599 126.034 29.5839 124.762 29.5839C123.766 29.5839 122.974 29.8359 122.41 30.3159C121.942 30.7599 121.702 31.2879 121.702 31.9239C121.702 32.6199 121.978 33.2079 122.518 33.6519C122.986 34.0719 123.85 34.5279 125.098 35.0199C126.622 35.6319 127.738 36.3519 128.458 37.1799C129.19 38.0079 129.55 39.0399 129.55 40.2639Z" fill="black"/>
<path id="Fill 16" fill-rule="evenodd" clip-rule="evenodd" d="M138.958 34.5885H135.826V40.7925C135.826 42.3645 136.378 43.1565 137.482 43.1565C137.986 43.1565 138.406 43.1085 138.742 43.0245L138.826 45.1845C138.262 45.3885 137.53 45.4965 136.618 45.4965C135.49 45.4965 134.626 45.1485 133.99 44.4645C133.354 43.7805 133.042 42.6285 133.042 41.0205V34.5765H131.182V32.4525H133.042V30.1125L135.826 29.2725V32.4525H138.958V34.5885Z" fill="black"/>
<path id="Fill 18" fill-rule="evenodd" clip-rule="evenodd" d="M150.106 38.8002C150.106 37.6242 149.854 36.6282 149.35 35.7882C148.75 34.7682 147.898 34.2642 146.794 34.2642C145.654 34.2642 144.778 34.7682 144.19 35.7882C143.674 36.6282 143.434 37.6482 143.434 38.8602C143.434 40.0362 143.686 41.0442 144.19 41.8722C144.802 42.8922 145.666 43.3962 146.77 43.3962C147.85 43.3962 148.702 42.8802 149.326 41.8482C149.842 40.9842 150.106 39.9762 150.106 38.8002ZM153.046 38.7402C153.046 40.7082 152.482 42.3162 151.366 43.5762C150.19 44.8722 148.63 45.5202 146.686 45.5202C144.814 45.5202 143.314 44.8962 142.198 43.6602C141.082 42.4242 140.53 40.8522 140.53 38.9562C140.53 36.9762 141.106 35.3562 142.246 34.0962C143.398 32.8362 144.946 32.2002 146.89 32.2002C148.762 32.2002 150.274 32.8242 151.414 34.0722C152.506 35.2722 153.046 36.8322 153.046 38.7402Z" fill="black"/>
<path id="Fill 20" fill-rule="evenodd" clip-rule="evenodd" d="M162.286 34.9475C162.01 34.8995 161.71 34.8755 161.386 34.8755C160.39 34.8755 159.61 35.2475 159.07 36.0035C158.602 36.6635 158.362 37.5155 158.362 38.5235V45.2315H155.518V36.4715C155.518 34.9955 155.494 33.6515 155.434 32.4515H157.906L158.014 34.8995H158.098C158.398 34.0595 158.866 33.3755 159.514 32.8715C160.15 32.4155 160.834 32.1875 161.566 32.1875C161.83 32.1875 162.07 32.2115 162.274 32.2355L162.286 34.9475Z" fill="black"/>
<path id="Fill 22" fill-rule="evenodd" clip-rule="evenodd" d="M172.27 37.5043C172.294 36.6643 172.102 35.9323 171.718 35.3203C171.226 34.5283 170.47 34.1323 169.462 34.1323C168.538 34.1323 167.782 34.5163 167.206 35.2843C166.738 35.8963 166.45 36.6403 166.366 37.4923L172.27 37.5043ZM174.982 38.2363C174.982 38.7403 174.946 39.1723 174.874 39.5203H166.354C166.39 40.7803 166.798 41.7523 167.59 42.4123C168.31 43.0003 169.234 43.3003 170.374 43.3003C171.634 43.3003 172.786 43.0963 173.818 42.7003L174.262 44.6683C173.05 45.1963 171.622 45.4603 169.978 45.4603C167.998 45.4603 166.438 44.8723 165.31 43.7083C164.182 42.5443 163.618 40.9723 163.618 39.0163C163.618 37.0963 164.146 35.4883 165.202 34.2043C166.306 32.8363 167.794 32.1523 169.666 32.1523C171.502 32.1523 172.906 32.8363 173.842 34.2043C174.598 35.3083 174.982 36.6403 174.982 38.2363Z" fill="black"/>
<path id="Fill 24" fill-rule="evenodd" clip-rule="evenodd" d="M74.674 17.536L73.942 15.256C73.87 15.028 73.726 14.476 73.498 13.612H73.474C73.378 13.984 73.258 14.524 73.054 15.256L72.334 17.536H74.674ZM77.23 21.172H75.742L74.926 18.616H72.094L71.314 21.172H69.874L72.67 12.46H74.398L77.23 21.172Z" fill="black"/>
<path id="Fill 26" fill-rule="evenodd" clip-rule="evenodd" d="M84.2381 14.8838L81.8621 21.1718H80.5061L78.2021 14.8838H79.7021L80.7701 18.2078C80.9501 18.7598 81.1061 19.2878 81.2261 19.7918H81.2621C81.3701 19.3358 81.5261 18.8078 81.7181 18.2078L82.7741 14.8838H84.2381Z" fill="black"/>
<path id="Fill 28" fill-rule="evenodd" clip-rule="evenodd" d="M89.1103 18.0404C87.5623 18.0404 86.7823 18.4124 86.7823 19.3124C86.7823 19.9724 87.1783 20.2964 87.7423 20.2964C88.4503 20.2964 89.1103 19.7564 89.1103 19.0124V18.0404ZM89.3023 21.1724L89.1943 20.4524H89.1583C88.7263 21.0284 88.1143 21.3164 87.3223 21.3164C86.1943 21.3164 85.4023 20.5244 85.4023 19.4684C85.4023 17.9204 86.7463 17.1164 89.0743 17.1164V16.9964C89.0743 16.1684 88.6303 15.7604 87.7663 15.7604C87.1423 15.7604 86.6023 15.9164 86.1223 16.2284L85.8343 15.3164C86.4103 14.9564 87.1423 14.7764 87.9943 14.7764C89.6383 14.7764 90.4663 15.6404 90.4663 17.3804V19.6964C90.4663 20.3324 90.4903 20.8244 90.5623 21.1964L89.3023 21.1724Z" fill="black"/>
<mask id="mask0_2140_3669" style="mask-type:luminance" maskUnits="userSpaceOnUse" x="1" y="1" width="203" height="60">
<path id="Clip 31" fill-rule="evenodd" clip-rule="evenodd" d="M1 61H203.5V1H1V61Z" fill="white"/>
</mask>
<g mask="url(#mask0_2140_3669)">
<path id="Fill 30" fill-rule="evenodd" clip-rule="evenodd" d="M92.9021 21.1596H94.2941V14.8836H92.9021V21.1596ZM93.5741 13.8516C93.1061 13.8516 92.7461 13.4916 92.7461 13.0116C92.7461 12.5316 93.1181 12.1836 93.5981 12.1836C94.0781 12.1836 94.4621 12.5316 94.4501 13.0116C94.4501 13.5156 94.0901 13.8516 93.5741 13.8516Z" fill="black"/>
<path id="Fill 32" fill-rule="evenodd" clip-rule="evenodd" d="M96.7783 21.1599H98.1703V12.0039H96.7783V21.1599Z" fill="black"/>
<path id="Fill 33" fill-rule="evenodd" clip-rule="evenodd" d="M103.906 18.0397C102.358 18.0397 101.578 18.4117 101.578 19.3117C101.578 19.9717 101.974 20.2957 102.538 20.2957C103.246 20.2957 103.906 19.7557 103.906 19.0117V18.0397ZM104.098 21.1717L103.99 20.4517H103.954C103.522 21.0277 102.91 21.3157 102.118 21.3157C100.99 21.3157 100.198 20.5237 100.198 19.4677C100.198 17.9197 101.542 17.1157 103.87 17.1157V16.9957C103.87 16.1677 103.426 15.7597 102.562 15.7597C101.938 15.7597 101.398 15.9157 100.918 16.2277L100.63 15.3037C101.206 14.9437 101.938 14.7637 102.79 14.7637C104.434 14.7637 105.262 15.6277 105.262 17.3677V19.6837C105.262 20.3197 105.286 20.8117 105.346 21.1837H104.098V21.1717Z" fill="black"/>
<path id="Fill 34" fill-rule="evenodd" clip-rule="evenodd" d="M110.638 15.8559C109.834 15.8559 109.102 16.5519 109.102 17.5239V18.6279C109.102 19.4919 109.762 20.1999 110.614 20.1999C111.658 20.1999 112.282 19.3479 112.282 17.9919C112.282 16.7199 111.634 15.8559 110.638 15.8559ZM110.926 21.3159C110.038 21.3159 109.378 20.9439 108.946 20.1999H108.922L108.838 21.1719H107.65C107.686 20.6679 107.698 20.1039 107.698 19.4799V12.0039H109.102V15.8079H109.126C109.546 15.1119 110.206 14.7639 111.13 14.7639C112.642 14.7639 113.698 16.0599 113.698 17.9439C113.698 19.8879 112.522 21.3159 110.926 21.3159Z" fill="black"/>
<path id="Fill 35" fill-rule="evenodd" clip-rule="evenodd" d="M115.762 21.1599H117.154V12.0039H115.762V21.1599Z" fill="black"/>
<path id="Fill 36" fill-rule="evenodd" clip-rule="evenodd" d="M123.478 17.3682C123.478 16.3962 122.986 15.7122 122.098 15.7122C121.294 15.7122 120.67 16.4082 120.574 17.3682H123.478ZM124.75 18.3642H120.562C120.586 19.5522 121.378 20.2242 122.542 20.2242C123.166 20.2242 123.73 20.1162 124.234 19.9242L124.45 20.8962C123.862 21.1602 123.166 21.2802 122.35 21.2802C120.382 21.2802 119.218 20.0442 119.218 18.1122C119.218 16.1922 120.406 14.7402 122.194 14.7402C123.79 14.7402 124.81 15.9282 124.81 17.7282C124.81 17.9802 124.798 18.1962 124.75 18.3642Z" fill="black"/>
<path id="Fill 37" fill-rule="evenodd" clip-rule="evenodd" d="M133.27 15.7837C132.262 15.7837 131.614 16.7317 131.614 18.0397C131.614 19.3357 132.274 20.2717 133.258 20.2717C134.242 20.2717 134.902 19.2637 134.902 18.0037C134.89 16.7317 134.254 15.7837 133.27 15.7837ZM133.21 21.3157C131.374 21.3157 130.186 19.9477 130.186 18.0877C130.186 16.1437 131.398 14.7637 133.318 14.7637C135.13 14.7637 136.342 16.0717 136.342 17.9797C136.342 19.9357 135.094 21.3157 133.21 21.3157Z" fill="black"/>
<path id="Fill 38" fill-rule="evenodd" clip-rule="evenodd" d="M143.842 21.172H142.45V17.56C142.45 16.444 142.018 15.892 141.178 15.892C140.35 15.892 139.786 16.6 139.786 17.428V21.16H138.394V16.684C138.394 16.132 138.382 15.532 138.346 14.884H139.57L139.63 15.856H139.666C140.038 15.184 140.806 14.752 141.658 14.752C142.978 14.752 143.842 15.76 143.842 17.404V21.172Z" fill="black"/>
<path id="Fill 39" fill-rule="evenodd" clip-rule="evenodd" d="M152.974 15.9402H151.438V18.9882C151.438 19.7682 151.714 20.1522 152.254 20.1522C152.494 20.1522 152.71 20.1282 152.878 20.0922L152.914 21.1482C152.638 21.2562 152.278 21.3042 151.834 21.3042C150.73 21.3042 150.082 20.6922 150.082 19.1082V15.9402H149.17V14.8962H150.082V13.7442L151.45 13.3242V14.8842H152.986V15.9402" fill="black"/>
<path id="Fill 40" fill-rule="evenodd" clip-rule="evenodd" d="M160.366 21.1719H158.974V17.5839C158.974 16.4559 158.542 15.8919 157.702 15.8919C156.982 15.8919 156.31 16.3839 156.31 17.3799V21.1599H154.918V12.0039H156.31V15.7719H156.334C156.778 15.0879 157.402 14.7519 158.218 14.7519C159.55 14.7519 160.366 15.7839 160.366 17.4279V21.1719Z" fill="black"/>
<path id="Fill 41" fill-rule="evenodd" clip-rule="evenodd" d="M166.222 17.3682C166.222 16.3962 165.73 15.7122 164.842 15.7122C164.038 15.7122 163.402 16.4082 163.318 17.3682H166.222ZM167.494 18.3642H163.306C163.33 19.5522 164.122 20.2242 165.286 20.2242C165.91 20.2242 166.474 20.1162 166.978 19.9242L167.194 20.8962C166.606 21.1602 165.91 21.2802 165.094 21.2802C163.126 21.2802 161.962 20.0442 161.962 18.1122C161.962 16.1922 163.15 14.7402 164.938 14.7402C166.534 14.7402 167.554 15.9282 167.554 17.7282C167.554 17.9802 167.542 18.1962 167.494 18.3642Z" fill="black"/>
</g>
</g>
</g>
</svg>
