<svg width="25" height="24" viewBox="0 0 25 24" fill="none" xmlns="http://www.w3.org/2000/svg">
<g clip-path="url(#clip0_2138_2099)">
<ellipse cx="14.9478" cy="11.9586" rx="9.19491" ry="9.19492" fill="#FFF3EE"/>
<path d="M16.7868 22.9936H7.95971C7.37443 22.9936 6.81313 22.7611 6.39928 22.3472C5.98543 21.9334 5.75293 21.3721 5.75293 20.7868V3.13256C5.75293 2.54729 5.98543 1.98598 6.39928 1.57213C6.81313 1.15828 7.37443 0.925781 7.95971 0.925781H16.7868C17.3721 0.925781 17.9334 1.15828 18.3473 1.57213C18.7611 1.98598 18.9936 2.54729 18.9936 3.13256V20.7868C18.9936 21.3721 18.7611 21.9334 18.3473 22.3472C17.9334 22.7611 17.3721 22.9936 16.7868 22.9936ZM7.95971 2.39697C7.76462 2.39697 7.57752 2.47447 7.43957 2.61242C7.30162 2.75037 7.22412 2.93747 7.22412 3.13256V20.7868C7.22412 20.9819 7.30162 21.169 7.43957 21.3069C7.57752 21.4449 7.76462 21.5224 7.95971 21.5224H16.7868C16.9819 21.5224 17.169 21.4449 17.307 21.3069C17.4449 21.169 17.5224 20.9819 17.5224 20.7868V3.13256C17.5224 2.93747 17.4449 2.75037 17.307 2.61242C17.169 2.47447 16.9819 2.39697 16.7868 2.39697H7.95971Z" fill="#FE917B"/>
<path d="M16.7868 20.7861H7.95971C7.37443 20.7861 6.81313 20.5536 6.39928 20.1398C5.98543 19.7259 5.75293 19.1646 5.75293 18.5793C5.75293 18.3843 5.83043 18.1972 5.96838 18.0592C6.10633 17.9212 6.29343 17.8438 6.48852 17.8438C6.68361 17.8438 6.87072 17.9212 7.00867 18.0592C7.14662 18.1972 7.22412 18.3843 7.22412 18.5793C7.22412 18.7744 7.30162 18.9615 7.43957 19.0995C7.57752 19.2374 7.76462 19.3149 7.95971 19.3149H16.7868C16.9819 19.3149 17.169 19.2374 17.307 19.0995C17.4449 18.9615 17.5224 18.7744 17.5224 18.5793C17.5224 18.3843 17.5999 18.1972 17.7379 18.0592C17.8758 17.9212 18.0629 17.8438 18.258 17.8438C18.4531 17.8438 18.6402 17.9212 18.7782 18.0592C18.9161 18.1972 18.9936 18.3843 18.9936 18.5793C18.9936 19.1646 18.7611 19.7259 18.3473 20.1398C17.9334 20.5536 17.3721 20.7861 16.7868 20.7861Z" fill="#FE917B"/>
<path d="M12.373 4.60205H10.1663C9.97117 4.60205 9.78406 4.52455 9.64611 4.3866C9.50816 4.24864 9.43066 4.06154 9.43066 3.86645C9.43066 3.67136 9.50816 3.48426 9.64611 3.34631C9.78406 3.20836 9.97117 3.13086 10.1663 3.13086H12.373C12.5681 3.13086 12.7552 3.20836 12.8932 3.34631C13.0311 3.48426 13.1086 3.67136 13.1086 3.86645C13.1086 4.06154 13.0311 4.24864 12.8932 4.3866C12.7552 4.52455 12.5681 4.60205 12.373 4.60205Z" fill="#FE917B"/>
<path d="M15.3149 4.60205H14.5793C14.3843 4.60205 14.1972 4.52455 14.0592 4.3866C13.9212 4.24864 13.8438 4.06154 13.8438 3.86645C13.8438 3.67136 13.9212 3.48426 14.0592 3.34631C14.1972 3.20836 14.3843 3.13086 14.5793 3.13086H15.3149C15.51 3.13086 15.6971 3.20836 15.8351 3.34631C15.973 3.48426 16.0505 3.67136 16.0505 3.86645C16.0505 4.06154 15.973 4.24864 15.8351 4.3866C15.6971 4.52455 15.51 4.60205 15.3149 4.60205Z" fill="#FE917B"/>
<path d="M12.3762 15.6372C12.1811 15.6372 11.994 15.5597 11.8561 15.4217C11.7181 15.2838 11.6406 15.0967 11.6406 14.9016V9.01684C11.6406 8.82175 11.7181 8.63465 11.8561 8.4967C11.994 8.35875 12.1811 8.28125 12.3762 8.28125C12.5713 8.28125 12.7584 8.35875 12.8964 8.4967C13.0343 8.63465 13.1118 8.82175 13.1118 9.01684V14.9016C13.1118 15.0967 13.0343 15.2838 12.8964 15.4217C12.7584 15.5597 12.5713 15.6372 12.3762 15.6372Z" fill="#FE917B"/>
<path d="M12.3758 15.6368C12.279 15.6373 12.183 15.6188 12.0934 15.5822C12.0038 15.5456 11.9223 15.4916 11.8535 15.4235L10.3823 13.9523C10.3138 13.8837 10.2594 13.8023 10.2222 13.7127C10.1851 13.623 10.166 13.527 10.166 13.43C10.166 13.333 10.1851 13.237 10.2222 13.1474C10.2594 13.0577 10.3138 12.9763 10.3823 12.9077C10.4509 12.8392 10.5324 12.7847 10.622 12.7476C10.7116 12.7105 10.8076 12.6914 10.9046 12.6914C11.0016 12.6914 11.0977 12.7105 11.1873 12.7476C11.2769 12.7847 11.3583 12.8392 11.4269 12.9077L12.3758 13.864L13.3247 12.9077C13.4632 12.7692 13.6511 12.6914 13.847 12.6914C14.0429 12.6914 14.2307 12.7692 14.3693 12.9077C14.5078 13.0463 14.5856 13.2341 14.5856 13.43C14.5856 13.6259 14.5078 13.8138 14.3693 13.9523L12.8981 15.4235C12.8293 15.4916 12.7478 15.5456 12.6582 15.5822C12.5686 15.6188 12.4726 15.6373 12.3758 15.6368Z" fill="#FE917B"/>
</g>
<defs>
<clipPath id="clip0_2138_2099">
<rect width="23.539" height="23.539" fill="white" transform="translate(0.603516 0.189453)"/>
</clipPath>
</defs>
</svg>
