<svg width="132" height="38" viewBox="0 0 132 38" fill="none" xmlns="http://www.w3.org/2000/svg">
<g id="Group 627485">
<path id="Vector" d="M84.3723 26.857C84.3723 29.1437 84.4745 31.4112 84.5128 31.7902H79.2539C79.1176 31.3644 79.0793 30.2998 79.0409 29.8016C78.0956 31.3239 76.0602 32.2671 72.7579 32.2671C67.9439 32.2671 66 29.3332 66 26.5185C66 21.8961 70.0454 20.6123 75.2341 20.6123H78.9217V20.0587C78.9217 18.6322 78.3021 17.4803 75.728 17.4803C73.3221 17.4803 72.7919 18.3809 72.562 19.3965H66.9964C67.1455 17.2248 68.6784 13.7139 75.6407 13.7139C83.2864 13.7139 84.3702 17.3121 84.3702 20.2567L84.3723 26.857ZM78.9302 24.136C78.5278 24.1062 77.3121 24.1062 75.3405 24.1062C72.5109 24.1062 71.3995 24.8492 71.3995 26.2353C71.3995 27.3808 72.3235 28.3069 74.3419 28.3069C77.3951 28.3069 78.9302 26.9102 78.9302 24.4064V24.136Z" fill="#31AAB7"/>
<g id="Group 347">
<g id="Group 341">
<path id="Vector_2" d="M29.7265 37.0996H35.3435L18.2873 20.0424L16.2841 18.0391L17.1001 17.2119L34.3108 0H28.6939L14.8621 13.8307L14.8587 13.8273L14.2775 14.4164L10.6604 18.0335L10.6852 18.0583L8.10983 20.6698L5.63938 18.1994L23.8388 0H18.2207L0.0224609 18.1994L18.9227 37.0996H24.5408L10.9189 23.4789L13.4943 20.8674L29.7265 37.0996Z" fill="#31AAB7"/>
<g id="Group">
<path id="Vector_3" style="mix-blend-mode:multiply" d="M10.9233 23.483L8.11426 26.292L10.2194 28.3972L13.0285 25.5881L10.9233 23.483Z" fill="url(#paint0_linear_2138_1772)"/>
</g>
<g id="Group_2">
<path id="Vector_4" style="mix-blend-mode:multiply" d="M18.4303 20.1856L15.6224 22.9946L13.5176 20.8887L16.2848 18.0391L18.3343 20.0886L18.4303 20.1856Z" fill="url(#paint1_linear_2138_1772)"/>
</g>
<path id="Vector_5" d="M12.5735 37.099L0 24.5244V37.099H12.5735Z" fill="white"/>
</g>
<g id="Group 340">
<path id="Vector_6" d="M39.6016 7.12012H45.4226V17.6125C48.8825 14.4188 52.2018 11.3741 56.7709 7.12012H63.895L52.6319 17.4507L64.5273 31.1154H57.2883L48.4737 20.6401L45.4226 23.1951V31.1197H39.6016V7.12012Z" fill="#31AAB7"/>
<path id="Vector_7" d="M89.1426 6.85742H94.7081V11.3052H89.1426V6.85742ZM89.1426 14.6202H94.7081V32.2239H89.1426V14.6202Z" fill="#31AAB7"/>
<path id="Vector_8" d="M99.6473 18.2934C99.6473 16.7008 99.6473 15.0997 99.6133 13.5114H105.064C105.158 14.1331 105.226 16.0812 105.226 17.0287C106.207 14.7122 108.36 12.9833 112.011 13.0643V18.1295C108.03 18.0656 105.226 19.6624 105.226 24.6829V31.115H99.6473V18.2934Z" fill="#31AAB7"/>
<path id="Vector_9" d="M131.86 26.1822C131.86 28.4689 131.962 30.7364 132 31.1154H126.741C126.605 30.6896 126.567 29.625 126.528 29.1268C125.583 30.6491 123.547 31.5923 120.245 31.5923C115.429 31.5923 113.487 28.6584 113.487 25.8437C113.487 21.2213 117.533 19.9375 122.721 19.9375H126.409V19.3839C126.409 17.9574 125.789 16.8055 123.215 16.8055C120.809 16.8055 120.281 17.7061 120.051 18.7217H114.484C114.631 16.55 116.164 13.0391 123.128 13.0391C130.772 13.0391 131.857 16.6373 131.857 19.5819L131.86 26.1822ZM126.418 23.4612C126.013 23.4314 124.799 23.4314 122.828 23.4314C119.998 23.4314 118.885 24.1744 118.885 25.5605C118.885 26.706 119.811 27.6321 121.829 27.6321C124.88 27.6321 126.418 26.2354 126.418 23.7316V23.4612Z" fill="#31AAB7"/>
</g>
</g>
</g>
<defs>
<linearGradient id="paint0_linear_2138_1772" x1="11.5491" y1="26.9174" x2="9.17907" y2="24.5474" gradientUnits="userSpaceOnUse">
<stop stop-color="white"/>
<stop offset="0.59" stop-color="#68686A"/>
<stop offset="1" stop-color="#050508"/>
</linearGradient>
<linearGradient id="paint1_linear_2138_1772" x1="16.9518" y1="21.5139" x2="14.5818" y2="19.1451" gradientUnits="userSpaceOnUse">
<stop stop-color="white"/>
<stop offset="0.59" stop-color="#68686A"/>
<stop offset="1" stop-color="#050508"/>
</linearGradient>
</defs>
</svg>
