<svg width="25" height="24" viewBox="0 0 25 24" fill="none" xmlns="http://www.w3.org/2000/svg">
<g clip-path="url(#clip0_2138_2095)">
<ellipse cx="9.67929" cy="11.9586" rx="9.19491" ry="9.19492" fill="#F0F8FF"/>
<path d="M16.6677 22.9936H7.84057C7.25529 22.9936 6.69399 22.7611 6.28014 22.3472C5.86629 21.9334 5.63379 21.3721 5.63379 20.7868V3.13256C5.63379 2.54729 5.86629 1.98598 6.28014 1.57213C6.69399 1.15828 7.25529 0.925781 7.84057 0.925781H16.6677C17.253 0.925781 17.8143 1.15828 18.2281 1.57213C18.642 1.98598 18.8745 2.54729 18.8745 3.13256V6.81053C18.8745 7.00562 18.797 7.19272 18.659 7.33067C18.5211 7.46862 18.334 7.54612 18.1389 7.54612C17.9438 7.54612 17.7567 7.46862 17.6187 7.33067C17.4808 7.19272 17.4033 7.00562 17.4033 6.81053V3.13256C17.4033 2.93747 17.3258 2.75037 17.1878 2.61242C17.0499 2.47447 16.8628 2.39697 16.6677 2.39697H7.84057C7.64548 2.39697 7.45838 2.47447 7.32043 2.61242C7.18248 2.75037 7.10498 2.93747 7.10498 3.13256V20.7868C7.10498 20.9819 7.18248 21.169 7.32043 21.3069C7.45838 21.4449 7.64548 21.5224 7.84057 21.5224H16.6677C16.8628 21.5224 17.0499 21.4449 17.1878 21.3069C17.3258 21.169 17.4033 20.9819 17.4033 20.7868V14.1223C17.4033 13.9272 17.4808 13.7401 17.6187 13.6022C17.7567 13.4642 17.9438 13.3867 18.1389 13.3867C18.334 13.3867 18.5211 13.4642 18.659 13.6022C18.797 13.7401 18.8745 13.9272 18.8745 14.1223V20.7868C18.8745 21.3721 18.642 21.9334 18.2281 22.3472C17.8143 22.7611 17.253 22.9936 16.6677 22.9936Z" fill="#8DCBFD"/>
<path d="M16.6677 20.7861H7.84057C7.25529 20.7861 6.69399 20.5536 6.28014 20.1398C5.86629 19.7259 5.63379 19.1646 5.63379 18.5793C5.63379 18.3843 5.71129 18.1972 5.84924 18.0592C5.98719 17.9212 6.17429 17.8438 6.36938 17.8438C6.56447 17.8438 6.75157 17.9212 6.88952 18.0592C7.02748 18.1972 7.10498 18.3843 7.10498 18.5793C7.10498 18.7744 7.18248 18.9615 7.32043 19.0995C7.45838 19.2374 7.64548 19.3149 7.84057 19.3149H16.6677C16.8628 19.3149 17.0499 19.2374 17.1878 19.0995C17.3258 18.9615 17.4033 18.7744 17.4033 18.5793C17.4033 18.3843 17.4808 18.1972 17.6187 18.0592C17.7567 17.9212 17.9438 17.8438 18.1389 17.8438C18.334 17.8438 18.5211 17.9212 18.659 18.0592C18.797 18.1972 18.8745 18.3843 18.8745 18.5793C18.8745 19.1646 18.642 19.7259 18.2281 20.1398C17.8143 20.5536 17.253 20.7861 16.6677 20.7861Z" fill="#8DCBFD"/>
<path d="M12.2539 4.60205H10.0471C9.85203 4.60205 9.66492 4.52455 9.52697 4.3866C9.38902 4.24864 9.31152 4.06154 9.31152 3.86645C9.31152 3.67136 9.38902 3.48426 9.52697 3.34631C9.66492 3.20836 9.85203 3.13086 10.0471 3.13086H12.2539C12.449 3.13086 12.6361 3.20836 12.774 3.34631C12.912 3.48426 12.9895 3.67136 12.9895 3.86645C12.9895 4.06154 12.912 4.24864 12.774 4.3866C12.6361 4.52455 12.449 4.60205 12.2539 4.60205Z" fill="#8DCBFD"/>
<path d="M15.1958 4.60205H14.4602C14.2651 4.60205 14.078 4.52455 13.9401 4.3866C13.8021 4.24864 13.7246 4.06154 13.7246 3.86645C13.7246 3.67136 13.8021 3.48426 13.9401 3.34631C14.078 3.20836 14.2651 3.13086 14.4602 3.13086H15.1958C15.3909 3.13086 15.578 3.20836 15.7159 3.34631C15.8539 3.48426 15.9314 3.67136 15.9314 3.86645C15.9314 4.06154 15.8539 4.24864 15.7159 4.3866C15.578 4.52455 15.3909 4.60205 15.1958 4.60205Z" fill="#8DCBFD"/>
<path d="M14.4609 17.1081C14.3157 17.1074 14.1739 17.0637 14.0535 16.9825C13.9331 16.9014 13.8394 16.7864 13.7842 16.652C13.7279 16.5181 13.7125 16.3704 13.74 16.2277C13.7674 16.0851 13.8366 15.9537 13.9387 15.8503C14.3282 15.4525 14.5696 14.9333 14.6228 14.3791C12.7176 13.6435 11.5186 12.1723 11.5186 10.4878C11.5186 8.05296 14.1593 6.07422 17.4033 6.07422C20.6473 6.07422 23.288 8.05296 23.288 10.4878C23.288 12.5916 21.3019 14.3938 18.6023 14.8057C17.6608 17.1081 14.5345 17.1081 14.4609 17.1081ZM17.4033 7.54541C15.0126 7.54541 12.9897 8.89154 12.9897 10.4878C12.9897 11.6279 14.0122 12.6946 15.5937 13.1653C15.7416 13.2101 15.8716 13.3002 15.9654 13.423C16.0591 13.5458 16.1118 13.695 16.116 13.8494C16.1357 14.3587 16.0736 14.8678 15.9321 15.3574C16.2684 15.2634 16.5755 15.086 16.8249 14.8417C17.0744 14.5974 17.2582 14.294 17.3592 13.9598C17.3953 13.8107 17.4772 13.6767 17.5932 13.5765C17.7093 13.4763 17.8538 13.4148 18.0065 13.4007C20.2133 13.2021 21.8389 11.9295 21.8389 10.4584C21.8169 8.89154 19.794 7.54541 17.4033 7.54541Z" fill="#8DCBFD"/>
</g>
<defs>
<clipPath id="clip0_2138_2095">
<rect width="23.539" height="23.539" fill="white" transform="translate(0.484375 0.189453)"/>
</clipPath>
</defs>
</svg>
