<svg width="377" height="377" viewBox="0 0 377 377" fill="none" xmlns="http://www.w3.org/2000/svg">
<path d="M43.0215 336.274L341.75 335.385C341.75 335.385 308.854 315.825 295.518 322.049C282.182 328.272 289.294 277.595 253.732 267.815C218.169 258.035 203.055 305.157 203.055 305.157C203.055 305.157 205.722 285.598 187.051 286.487C168.38 287.376 161.268 304.268 161.268 304.268C161.268 304.268 133.707 251.813 104.367 264.26C75.0278 276.707 104.367 312.27 104.367 312.27C104.367 312.27 81.2515 295.377 78.5843 309.603C75.917 323.828 57.2461 315.826 57.2461 324.717C57.2461 333.608 43.0215 336.274 43.0215 336.274Z" fill="#EEEEF5"/>
<path d="M84.4788 90.9456L193.93 35.7961C198.412 33.5378 203.487 32.7318 208.448 33.4903C213.409 34.2488 218.011 36.5341 221.613 40.0285L309.101 124.891C311.489 127.208 313.373 129.994 314.634 133.073C315.896 136.152 316.507 139.459 316.43 142.786C316.353 146.113 315.589 149.388 314.187 152.405C312.784 155.423 310.773 158.118 308.28 160.322L213.055 244.494C208.272 248.722 202.01 250.884 195.637 250.508C189.264 250.132 183.3 247.248 179.047 242.487L77.3328 128.602C66.7523 116.754 70.2932 98.0933 84.4788 90.9456Z" fill="#EEEEF5"/>
<path d="M293.039 321.603C293.093 326.424 293.37 330.935 293.709 334.748H307.563C313.884 327.37 319.473 318.443 323.492 309.694C325.118 306.187 326.512 302.577 327.664 298.887C328.829 295.099 329.589 291.501 329.866 288.259C330.25 283.789 329.713 279.997 328.052 277.312C325.85 273.763 321.678 272.148 315.052 273.462C314.031 273.662 313.026 273.936 312.045 274.284V274.288C310.68 274.76 309.371 275.38 308.141 276.139C306.153 277.373 304.377 278.918 302.878 280.715C300.619 283.388 298.846 286.616 297.471 290.197C297.26 290.73 297.062 291.271 296.876 291.82C295.74 295.199 294.892 298.668 294.34 302.189C294.286 302.515 294.232 302.842 294.183 303.172C294.121 303.577 294.063 303.986 294.009 304.395C293.453 308.579 293.137 312.791 293.063 317.011C293.031 318.563 293.023 320.1 293.039 321.603Z" fill="#7B7DB5"/>
<path d="M298.661 334.774L298.479 334.723C298.743 333.786 299.023 332.81 299.315 331.795L299.389 331.538C300.472 327.798 301.575 324.118 302.665 320.597C303.565 317.693 304.481 314.829 305.388 312.086C306.7 308.126 307.929 304.586 309.144 301.264C310.796 296.742 312.418 292.638 313.966 289.064C317.092 281.845 320.011 276.562 322.643 273.365L322.788 273.485C320.168 276.669 317.258 281.936 314.14 289.139C312.594 292.709 310.973 296.811 309.321 301.329C308.106 304.649 306.878 308.187 305.567 312.145C304.66 314.887 303.745 317.75 302.845 320.653C301.755 324.172 300.653 327.852 299.57 331.59L299.496 331.847C299.204 332.861 298.926 333.837 298.661 334.774Z" fill="black"/>
<path d="M295.513 346.339L295.331 346.291C295.331 346.291 295.356 346.196 295.406 346.01L295.588 346.058L295.513 346.339Z" fill="black"/>
<path d="M313.982 289.286L311.952 274.297L312.139 274.271L314.122 288.921L328.175 277.088L328.297 277.232L313.982 289.286Z" fill="black"/>
<path d="M309.177 301.442L302.685 280.413L302.865 280.357L309.284 301.151L329.818 288.18L329.918 288.339L309.177 301.442Z" fill="black"/>
<path d="M305.429 312.252L297.381 290.221L297.558 290.156L305.528 311.974L327.619 298.803L327.716 298.965L305.429 312.252Z" fill="black"/>
<path d="M302.714 320.754L293.926 304.439L294.092 304.35L302.791 320.5L323.449 309.611L323.537 309.777L302.714 320.754Z" fill="black"/>
<path d="M299.447 331.683L299.401 331.615L292.969 322.141L293.125 322.035L299.51 331.441L316.052 323.114L316.136 323.282L299.447 331.683Z" fill="black"/>
<path d="M291.412 319.877C291.412 319.877 327.351 260.804 295.13 247.999C262.908 235.193 283.563 312.028 291.412 319.877Z" fill="#404396"/>
<path d="M291.711 319.683L291.525 319.655C291.549 319.496 293.933 303.541 294.993 286.662C295.972 271.101 295.997 251.553 290.563 246.794L290.688 246.652C293.119 248.781 294.683 253.951 295.336 262.02C295.857 268.459 295.805 276.754 295.181 286.674C294.12 303.562 291.735 319.525 291.711 319.683Z" fill="black"/>
<path d="M294.904 258.683L284.248 247.633L284.384 247.502L294.853 258.359L298.969 249.948L299.139 250.031L294.904 258.683Z" fill="black"/>
<path d="M295.604 269.712L278.782 255.653L278.903 255.509L295.558 269.427L304.377 255.045L304.538 255.144L295.604 269.712Z" fill="black"/>
<path d="M295.367 281.991L277.594 267.875L277.711 267.727L295.336 281.726L308.198 265.482L308.345 265.599L295.367 281.991Z" fill="black"/>
<path d="M294.549 294.207L294.485 294.162L279.198 283.296L279.307 283.142L294.531 293.963L307.085 281.791L307.216 281.927L294.549 294.207Z" fill="black"/>
<path d="M293.721 302.95L281.469 294.162L281.579 294.009L293.7 302.703L304.216 292.008L304.35 292.14L293.721 302.95Z" fill="black"/>
<path d="M261.342 308.588C262.261 311.873 263.482 315.066 264.99 318.126C267.99 324.285 271.992 329.902 276.833 334.749H297.36C297.517 333.51 297.662 332.2 297.777 330.837V330.833C297.819 330.308 297.86 329.771 297.897 329.23C298.269 323.6 298.133 317.201 296.773 311.071V311.067C296.716 310.811 296.658 310.558 296.596 310.303C296.418 309.563 296.224 308.828 296.005 308.101C295.517 306.416 294.908 304.769 294.183 303.173C294.101 302.987 294.014 302.797 293.923 302.611C293.874 302.499 293.82 302.392 293.766 302.28C293.403 301.537 293.014 300.806 292.589 300.091C290.462 296.419 287.518 293.286 283.984 290.937C282.821 290.162 281.601 289.475 280.336 288.88C279.368 288.422 278.377 288.014 277.366 287.657C275.193 286.884 273.236 286.442 271.488 286.302C268.853 286.079 266.696 286.533 264.99 287.52C262.755 288.813 261.293 291.028 260.537 293.861C259.48 297.827 259.806 303.003 261.342 308.588Z" fill="#7B7DB5"/>
<path d="M291.116 334.781C290.678 333.552 290.194 332.235 289.679 330.866C288.703 328.284 287.688 325.756 286.661 323.352C285.27 320.084 283.784 316.858 282.243 313.765C279.508 308.236 276.402 302.899 272.947 297.789C270.512 294.206 267.83 290.796 264.921 287.584L265.06 287.457C267.975 290.675 270.662 294.092 273.103 297.683C276.563 302.8 279.673 308.145 282.412 313.681C283.955 316.777 285.443 320.006 286.835 323.278C287.863 325.685 288.879 328.215 289.856 330.799C290.372 332.169 290.855 333.487 291.294 334.717L291.116 334.781Z" fill="black"/>
<path d="M273.142 297.911L273.001 297.866L260.51 293.95L260.566 293.77L272.916 297.642L271.395 286.312L271.582 286.287L273.142 297.911Z" fill="black"/>
<path d="M282.412 313.842L261.319 308.68L261.364 308.497L282.241 313.606L283.891 290.928L284.079 290.941L282.412 313.842Z" fill="black"/>
<path d="M289.831 330.94L289.752 330.926L270.607 327.577L270.64 327.391L289.706 330.727L296.683 311.035L296.861 311.098L289.831 330.94Z" fill="black"/>
<path d="M296.225 334.786L296.051 334.713L297.691 330.801L297.773 330.835L297.872 330.833L297.864 330.874L296.225 334.786Z" fill="black"/>
<path d="M286.817 323.425L264.967 318.219L265.01 318.035L286.68 323.199L292.498 300.068L292.681 300.114L286.817 323.425Z" fill="black"/>
<path d="M128.823 64.6282C128.823 64.6282 161.964 75.2805 191.554 64.6282C221.144 53.9758 205.284 47.1109 188.95 49.9515C172.617 52.7922 165.989 31.4874 138.292 41.6662C110.596 51.845 128.823 64.6282 128.823 64.6282Z" fill="white"/>
<path d="M139.459 67.6168C139.459 67.6168 144.548 54.6691 143.234 54.933C141.921 55.1969 140.28 59.1793 140.28 59.1793L138.453 57.8059C138.453 57.8059 138.255 47.8929 136.897 47.5773C135.54 47.2618 135.692 55.8357 135.692 55.8357C135.692 55.8357 134.526 48.5439 132.955 47.6095C131.384 46.6752 132.641 55.8847 132.641 55.8847C132.641 55.8847 131.265 49.493 130.036 49.3969C128.807 49.3008 128.76 66.9055 128.76 66.9055L139.459 67.6168Z" fill="#FD8680"/>
<path d="M219.25 177.951L224.085 200.084L211.716 214.4L189.267 213.059L179.309 176.322L219.25 177.951Z" fill="#404396"/>
<path d="M172.196 312.386L171.264 321.531L161.677 320.837L161.013 311.629L172.196 312.386Z" fill="#FD8680"/>
<path d="M192.021 100.283L187.958 94.666L172.423 98.491C172.423 98.491 173.231 107.954 182.508 106.688C191.784 105.423 192.021 100.283 192.021 100.283Z" fill="white"/>
<path d="M192.099 212.918L192.077 213.016L192.069 213.062C190.964 218.367 189.829 223.968 188.693 229.69L188.61 230.106C186.773 239.346 185.231 248.668 183.944 257.562C179.549 287.946 178.138 313.33 178.138 313.33H157.438L158.97 250.177L160.69 179.283L179.952 179.518L192.099 212.918Z" fill="#31AAB7"/>
<path d="M155.228 331.918H137.838C137.849 329.619 138.769 327.418 140.399 325.796C142.028 324.174 144.234 323.264 146.533 323.264C148.832 323.264 151.037 324.174 152.667 325.796C154.296 327.418 155.217 329.619 155.228 331.918Z" fill="white"/>
<path d="M155.228 331.918H137.838C137.836 333.366 138.197 334.792 138.888 336.065H170.592V331.918H155.228Z" fill="#19274A"/>
<path d="M172.196 318.141L170.594 331.918H155.228C155.228 329.612 154.312 327.4 152.681 325.77C151.051 324.139 148.839 323.223 146.533 323.223C146.533 323.223 149.7 322.959 153.001 322.922C153.261 322.919 153.523 322.916 153.782 322.919C153.782 322.919 154.935 326.403 156.127 326.568C157.006 326.655 157.893 326.64 158.77 326.524C159.514 326.43 160.192 326.267 160.559 326.031C161.494 325.428 160.693 322.264 160.693 322.264C161.34 320.994 160.693 318.141 160.693 318.141L172.196 318.141Z" fill="#9395D1"/>
<path d="M192.164 213.077L191.979 213.04L192.002 212.924L184.061 191.151L184.238 191.086L184.413 191.565L192.198 212.91L192.164 213.077Z" fill="#19274A"/>
<path d="M160.559 326.031C160.192 326.267 159.513 326.429 158.769 326.523C157.881 325.635 157.546 323.765 157.438 322.958C158.725 322.968 159.723 322.947 160.126 322.803C160.378 322.704 160.58 322.51 160.692 322.264C160.692 322.264 161.494 325.428 160.559 326.031Z" fill="#404396"/>
<path d="M158.769 326.525C157.893 326.641 157.006 326.656 156.126 326.569C154.934 326.404 153.781 322.92 153.781 322.92C155.078 322.92 156.359 322.951 157.438 322.959C157.546 323.766 157.881 325.637 158.769 326.525Z" fill="#404396"/>
<path d="M181.096 104.235C181.434 104.174 193.132 104.406 193.132 104.406C193.132 104.406 203.744 104.483 206.998 106.498C206.998 106.498 198.787 115.949 195.688 116.259C192.59 116.569 185.618 117.809 183.449 116.414C181.279 115.02 180.815 115.795 180.66 113.16C180.505 110.526 181.096 104.235 181.096 104.235Z" fill="#E39739"/>
<path d="M217.929 179.28C217.558 179.65 215.959 179.958 213.509 180.203C200.004 181.558 160.657 181.06 158.876 179.28C158.172 178.576 157.744 172.371 157.487 164.423C167.195 164.701 201.331 165.34 218.45 161.207C218.448 164.518 218.522 167.734 218.561 170.517C218.626 175.173 218.591 178.618 217.929 179.28Z" fill="#FFAA40"/>
<path d="M219.163 140.992C218.908 145.194 218.535 152.362 218.461 159.373C218.454 159.987 218.451 160.598 218.45 161.207C201.331 165.339 167.195 164.7 157.487 164.423C157.265 157.593 157.17 149.471 157.133 142.446C167.528 143.361 201.449 145.833 219.163 140.992Z" fill="#E39739"/>
<path d="M215.289 184.61L213.509 180.203C215.959 179.958 217.559 179.65 217.929 179.28C218.591 178.618 218.038 170.479 217.973 165.823L230.633 147.368L220.039 140.742L219.21 140.224C219.196 140.467 219.18 140.724 219.164 140.992C201.449 145.833 167.529 143.361 157.133 142.446C157.082 133.202 157.135 125.855 157.135 125.855C147.698 123.591 136.895 120.79 134.402 119.294C127.311 115.038 128.917 67.0056 128.917 67.0056L140.384 66.5176L143.8 99.9445C150.959 101.072 171.801 102.832 181.097 104.235C181.097 104.235 183.271 113.557 192.5 114.034C200.48 114.448 205.773 105.72 205.773 105.72C216.036 110.628 244.926 125.418 248.077 137.737C251.053 149.371 215.289 184.61 215.289 184.61Z" fill="#9395D1"/>
<path d="M219.7 140.254L218.719 140.193C218.834 138.337 218.916 137.229 218.916 137.229L219.896 137.301C219.897 137.302 219.815 138.406 219.7 140.254Z" fill="#19274A"/>
<path d="M157.159 112.999L156.693 152.74L157.677 152.752L158.142 113.011L157.159 112.999Z" fill="#19274A"/>
<path d="M196.869 107.408C194.098 110.87 190.683 110.919 186.746 108.198L187.873 99.9867C194.532 100.309 197.356 96.2674 198.368 94.1719L196.915 106.997L196.869 107.408Z" fill="#FD8680"/>
<path d="M205.364 108.169C203.229 108.643 198.367 108.306 196.915 106.997L198.368 94.1721V94.1705L198.471 93.2611C198.485 93.2598 198.674 93.2432 198.762 93.233C200.504 93.0445 204.361 92.1844 204.693 88.2402C205.082 83.6427 200.238 83.5157 198.473 85.31C198.081 87.8308 197.249 92.6031 196.696 91.5974C195.899 90.1437 194.172 89.3944 191.846 86.3283C189.52 83.2621 189.756 79.2177 189.756 79.2177C185.804 86.5524 179.762 87.3598 178.726 87.4436C178.742 90.8758 179.566 99.2375 187.154 99.9374C187.399 99.9599 187.639 99.977 187.873 99.987L186.996 106.376C186.996 106.376 184.081 107.026 181.782 106.71C179.483 106.394 176.036 105.922 176.265 104.256C177.432 95.7503 174.992 88.8478 178.252 80.4648C180.337 75.1024 186.226 72.5691 189.164 75.2875C189.164 75.2875 193.59 71.4813 199.609 74.2984C205.629 77.1155 207.168 83.1747 206.62 88.5599C205.023 104.273 207.613 107.672 205.364 108.169Z" fill="#8E3332"/>
<path d="M198.762 93.2322C198.674 93.2423 198.485 93.2589 198.471 93.2603L198.368 94.1696V94.1713C197.808 95.3328 197.04 96.382 196.102 97.2666C194.428 98.8301 191.827 100.178 187.873 99.9861C187.639 99.9761 187.399 99.959 187.154 99.9366C179.566 99.2366 178.742 90.875 178.726 87.4428C179.762 87.3589 185.804 86.5515 189.756 79.2168C189.756 79.2168 189.52 83.2613 191.846 86.3274C194.172 89.3935 195.899 90.1428 196.696 91.5965C197.249 92.6022 198.081 87.8299 198.473 85.3091C200.239 83.5148 205.082 83.6418 204.693 88.2394C204.36 92.1839 200.504 93.0446 198.762 93.2322Z" fill="#FD8680"/>
<path d="M198.511 89.8823L197.707 89.2058C198.189 88.6447 198.851 88.2702 199.581 88.1474C200.31 88.0246 201.059 88.1613 201.697 88.5336L201.186 89.4503C199.631 88.5837 198.556 89.8286 198.511 89.8823Z" fill="#19274A"/>
<path d="M196.103 97.2676C193.929 99.3432 190.829 100.161 187.873 99.9871L187.468 102.941C192.715 102.557 196.103 97.2676 196.103 97.2676Z" fill="#19274A"/>
<path d="M160.751 206.115L160.63 205.971C171.689 196.697 176.26 181.803 176.305 181.654L176.486 181.708C176.44 181.858 171.855 196.804 160.751 206.115Z" fill="#19274A"/>
<path d="M157.438 306.014H178.637L178.138 313.33H157.438V306.014Z" stroke="#19274A" stroke-miterlimit="10"/>
<path d="M280.47 261.086L274.812 258.715L270.058 270.263L278.509 272.421L280.47 261.086Z" fill="#FD8680"/>
<path d="M273.771 272.487C273.771 272.487 279.68 260.281 279.82 259.959C273.377 257.06 236.217 242.643 229.403 237.735C228.404 227.231 226.65 211.845 224.085 200.084C220.383 183.117 191.005 187.712 191.005 187.712C191.005 187.712 197.321 250.468 206.996 256.717C207.435 257 207.908 257.281 208.411 257.555C216.845 262.16 233.91 265.486 249.101 267.678C264.863 269.951 273.771 272.487 273.771 272.487Z" fill="#404396"/>
<path d="M273.245 257.207L267.921 271.062L273.771 272.488L279.82 259.96L273.245 257.207Z" stroke="#19274A" stroke-miterlimit="10"/>
<path d="M249.088 267.77C229.112 264.886 215.417 261.481 208.383 257.646L208.473 257.48C217.21 262.244 235.396 265.605 249.114 267.584L249.088 267.77Z" fill="#19274A"/>
<path d="M291.153 280.154L288.188 297.289C287.055 297.103 285.97 296.695 284.995 296.087C284.021 295.48 283.177 294.685 282.511 293.75C281.845 292.814 281.371 291.756 281.117 290.636C280.862 289.517 280.832 288.358 281.028 287.226C281.223 286.095 281.641 285.013 282.257 284.044C282.873 283.075 283.675 282.238 284.616 281.58C285.558 280.923 286.62 280.458 287.742 280.214C288.864 279.969 290.023 279.949 291.153 280.154Z" fill="white"/>
<path d="M291.153 280.154L288.188 297.289C289.615 297.538 291.082 297.425 292.454 296.961L295.06 281.896L297.859 265.721L293.772 265.014L291.153 280.154Z" fill="#19274A"/>
<path d="M280.469 261.086L293.771 265.014L291.152 280.154C288.88 279.761 286.545 280.287 284.66 281.616C282.775 282.944 281.495 284.967 281.102 287.24C281.102 287.24 281.382 284.073 281.908 280.815C281.95 280.559 281.992 280.3 282.039 280.045C282.039 280.045 285.668 279.503 286.035 278.357C286.27 277.505 286.407 276.628 286.441 275.745C286.475 274.995 286.431 274.299 286.261 273.897C285.828 272.873 282.572 273.124 282.572 273.124C281.43 272.269 278.509 272.421 278.509 272.421L280.469 261.086Z" fill="#9395D1"/>
<path d="M286.261 273.898C286.43 274.3 286.475 274.996 286.441 275.746C285.414 276.469 283.514 276.481 282.701 276.449C282.93 275.183 283.08 274.196 283.007 273.774C282.951 273.509 282.795 273.276 282.571 273.125C282.571 273.125 285.826 272.874 286.261 273.898Z" fill="#404396"/>
<path d="M286.441 275.744C286.406 276.628 286.27 277.504 286.034 278.356C285.668 279.503 282.038 280.045 282.038 280.045C282.259 278.767 282.509 277.51 282.7 276.448C283.514 276.479 285.415 276.468 286.441 275.744Z" fill="#404396"/>
<path d="M224.937 204.468C213.49 201.81 207.388 195.831 204.285 191.283C200.921 186.352 200.256 181.989 200.251 181.945L200.438 181.918C200.444 181.961 201.104 186.289 204.447 191.185C207.532 195.702 213.598 201.642 224.98 204.284L224.937 204.468Z" fill="#19274A"/>
<path d="M214.509 182.679L210.814 174.672C210.814 174.672 204.247 176.4 203.279 177.367C202.311 178.335 197.057 182.182 198.025 182.678C198.992 183.175 202.587 181.679 202.587 181.679C202.587 181.679 194.637 188.152 196.296 189.396C197.956 190.64 201.066 187.46 201.066 187.46C201.066 187.46 195.95 192.415 198.232 193.153C200.513 193.891 203.763 189.535 203.763 189.535C203.763 189.535 201.392 192.135 203.348 193.237C204.384 193.822 214.509 182.679 214.509 182.679Z" fill="#FD8680"/>
<path d="M227.177 145.207L208.428 174.672L217.434 185.904L241.209 154.614L227.177 145.207Z" fill="#9395D1"/>
<path d="M218.844 139.418L218.322 140.252L232.742 149.265L233.263 148.431L218.844 139.418Z" fill="#19274A"/>
<path d="M222.012 130.994L147.15 116.434L135.405 176.82L210.267 191.381L222.012 130.994Z" fill="#E57D00"/>
<path d="M184.584 123.588L147.165 116.326L135.449 176.693L172.868 183.955L184.584 123.588Z" fill="#FFAA40"/>
<path d="M148.367 156.528L139.69 154.844L138.684 160.029L147.361 161.713L148.367 156.528Z" fill="#E57D00"/>
<path d="M220.277 139.739L211.601 138.055L210.81 142.129L219.487 143.812L220.277 139.739Z" fill="#FFAA40"/>
<path d="M65.4396 152.545C65.4396 152.545 113.73 162.488 127.697 151.598C141.663 140.709 103.079 124.376 68.7529 140.473C34.427 156.569 65.4396 152.545 65.4396 152.545Z" fill="white"/>
<path d="M318.269 116.429C318.269 116.429 277.79 109.091 256.722 120.216C235.654 131.342 277.539 138.663 317.078 136.778C356.617 134.893 318.269 116.429 318.269 116.429Z" fill="white"/>
<path d="M80.0815 319.225C80.0163 325.075 79.6804 330.549 79.2693 335.176H62.4566C54.7871 326.223 48.0048 315.39 43.1274 304.773C41.1538 300.518 39.4625 296.138 38.0645 291.66C36.6507 287.063 35.7286 282.697 35.3927 278.762C34.9265 273.338 35.5782 268.737 37.5932 265.478C40.265 261.172 45.3279 259.212 53.3684 260.807C54.6077 261.049 55.8274 261.383 57.0178 261.804V261.809C58.6743 262.382 60.2628 263.135 61.7548 264.055C64.1665 265.553 66.3226 267.428 68.141 269.609C70.8829 272.852 73.0335 276.767 74.7028 281.113C74.9584 281.76 75.199 282.416 75.4246 283.083C76.788 287.033 77.7856 291.289 78.5024 295.665C78.5677 296.061 78.6327 296.457 78.6928 296.858C78.7682 297.35 78.8383 297.846 78.9034 298.342C79.5781 303.419 79.9613 308.53 80.0513 313.651C80.0915 315.536 80.1015 317.4 80.0815 319.225Z" fill="#404396"/>
<path d="M73.2787 335.2C72.9625 334.073 72.6253 332.901 72.2751 331.681L72.1761 331.336C70.8623 326.803 69.5251 322.338 68.2014 318.064C67.1119 314.548 66.0007 311.075 64.8987 307.74C63.307 302.937 61.8167 298.644 60.343 294.614C58.3391 289.129 56.3715 284.152 54.4952 279.822C50.7105 271.078 47.1786 264.685 43.9971 260.821L44.1428 260.701C47.3352 264.58 50.8766 270.988 54.6682 279.747C56.5459 284.081 58.5148 289.062 60.52 294.55C61.9945 298.581 63.4853 302.877 65.0776 307.681C66.1799 311.017 67.2915 314.492 68.3816 318.009C69.7055 322.283 71.0431 326.75 72.3571 331.284L72.4562 331.629C72.8067 332.849 73.1439 334.023 73.4602 335.15L73.2787 335.2Z" fill="black"/>
<path d="M77.0979 349.234C77.0979 349.234 77.0678 349.119 77.0078 348.894L77.1899 348.846C77.25 349.072 77.2804 349.187 77.2804 349.187L77.0979 349.234Z" fill="black"/>
<path d="M54.6539 279.969L54.5227 279.859L37.3105 265.366L37.4321 265.221L54.513 279.604L56.9247 261.791L57.1115 261.816L54.6539 279.969Z" fill="black"/>
<path d="M60.4869 294.73L35.3398 278.844L35.4407 278.684L60.3794 294.439L68.1771 269.182L68.3571 269.237L60.4869 294.73Z" fill="black"/>
<path d="M65.0362 307.847L64.9384 307.789L38.0127 291.735L38.1092 291.574L64.9373 307.569L74.6171 281.07L74.7941 281.135L65.0362 307.847Z" fill="black"/>
<path d="M68.3324 318.166L68.2496 318.123L43.082 304.856L43.1699 304.689L68.2551 317.912L78.8214 298.297L78.9875 298.386L68.3324 318.166Z" fill="black"/>
<path d="M72.2979 331.43L52.0615 321.244L52.1464 321.076L72.235 331.187L79.9936 319.76L80.1495 319.866L72.2979 331.43Z" fill="black"/>
<path d="M82.0565 317.129C82.0565 317.129 38.4455 245.446 77.5451 229.907C116.645 214.367 91.5808 307.605 82.0565 317.129Z" fill="#404396"/>
<path d="M81.7126 316.891C81.6834 316.698 78.7897 297.33 77.5011 276.838C76.7441 264.801 76.681 254.736 77.3126 246.923C78.1043 237.138 80.0001 230.869 82.9461 228.289L83.0704 228.431C80.1624 230.977 78.2885 237.204 77.5006 246.938C76.8689 254.742 76.932 264.797 77.6891 276.825C78.9773 297.309 81.87 316.67 81.899 316.862L81.7126 316.891Z" fill="black"/>
<path d="M77.8245 242.836L72.6982 232.362L72.8675 232.279L77.8756 242.512L90.5993 229.316L90.735 229.447L77.8245 242.836Z" fill="black"/>
<path d="M76.9745 256.225L76.9174 256.133L66.1465 238.567L66.3073 238.469L77.021 255.941L97.249 239.037L97.3698 239.181L76.9745 256.225Z" fill="black"/>
<path d="M77.2608 271.129L61.5244 251.254L61.6722 251.137L77.2913 270.864L98.6949 253.864L98.8122 254.012L77.2608 271.129Z" fill="black"/>
<path d="M78.2508 285.954L78.1946 285.899L62.8916 271.063L63.0228 270.928L78.2694 285.709L96.756 272.569L96.8652 272.723L78.2508 285.954Z" fill="black"/>
<path d="M79.2572 296.562L79.2006 296.504L66.3711 283.456L66.5053 283.324L79.2784 296.315L94.0014 285.754L94.1113 285.908L79.2572 296.562Z" fill="black"/>
<path d="M118.545 303.428C117.431 307.415 115.949 311.289 114.118 315.002C110.478 322.475 105.622 329.292 99.7469 335.173H74.8385C74.6481 333.67 74.4726 332.08 74.3324 330.426V330.421C74.2822 329.785 74.2321 329.133 74.1868 328.476C73.7357 321.644 73.9011 313.879 75.5504 306.441V306.435C75.6206 306.125 75.6907 305.819 75.7659 305.508C75.9815 304.611 76.217 303.719 76.4822 302.836C77.0745 300.793 77.8133 298.794 78.6927 296.856C78.793 296.63 78.8982 296.4 79.0085 296.174C79.0688 296.039 79.1338 295.909 79.199 295.773C79.6401 294.871 80.1114 293.984 80.6277 293.117C83.208 288.66 86.7811 284.859 91.0693 282.008C92.4814 281.069 93.9608 280.234 95.4956 279.512C96.6711 278.957 97.874 278.462 99.0998 278.028C101.736 277.091 104.113 276.554 106.233 276.384C109.431 276.113 112.048 276.665 114.118 277.863C116.83 279.432 118.604 282.119 119.522 285.557C120.806 290.37 120.409 296.651 118.545 303.428Z" fill="#7B7DB5"/>
<path d="M82.3963 335.205L82.2188 335.141C82.7541 333.641 83.3411 332.042 83.9639 330.388C85.1514 327.248 86.3838 324.177 87.6296 321.261C89.3184 317.292 91.1239 313.374 92.9957 309.616C96.5497 302.503 100.35 295.972 104.291 290.206C107.252 285.849 110.513 281.703 114.049 277.799L114.188 277.926C110.658 281.824 107.403 285.963 104.447 290.312C100.51 296.072 96.7146 302.595 93.1644 309.7C91.2943 313.455 89.4905 317.369 87.8031 321.335C86.559 324.249 85.3258 327.317 84.1403 330.454C83.5179 332.107 82.9313 333.705 82.3963 335.205Z" fill="black"/>
<path d="M104.251 290.445L106.14 276.371L106.327 276.396L104.477 290.176L119.494 285.468L119.55 285.648L104.251 290.445Z" fill="black"/>
<path d="M92.9953 309.78L90.9746 282.014L91.1625 282L93.1671 309.544L118.524 303.339L118.568 303.521L92.9953 309.78Z" fill="black"/>
<path d="M83.9886 330.529L75.4639 306.467L75.6416 306.404L84.113 330.315L107.267 326.265L107.299 326.45L83.9886 330.529Z" fill="black"/>
<path d="M76.2358 335.211L74.2383 330.446V330.427L74.3389 330.425L74.4194 330.391L76.4096 335.138L76.2358 335.211Z" fill="black"/>
<path d="M87.6471 321.41L87.6245 321.319L80.5361 293.142L80.7188 293.096L87.7845 321.183L114.099 314.913L114.142 315.096L87.6471 321.41Z" fill="black"/>
<path d="M261.342 204.531C265.467 204.531 268.811 201.187 268.811 197.063C268.811 192.938 265.467 189.594 261.342 189.594C257.217 189.594 253.873 192.938 253.873 197.063C253.873 201.187 257.217 204.531 261.342 204.531Z" fill="#ECA7A9"/>
<path d="M155.407 38.6342C158.402 38.6342 160.83 36.2065 160.83 33.2116C160.83 30.2168 158.402 27.7891 155.407 27.7891C152.412 27.7891 149.984 30.2168 149.984 33.2116C149.984 36.2065 152.412 38.6342 155.407 38.6342Z" fill="#404396"/>
<path d="M298.075 171.135C306.05 171.135 312.515 164.67 312.515 156.696C312.515 148.721 306.05 142.256 298.075 142.256C290.101 142.256 283.636 148.721 283.636 156.696C283.636 164.67 290.101 171.135 298.075 171.135Z" fill="#DD5557"/>
<path d="M104.092 142.681C109.042 142.681 113.055 138.668 113.055 133.718C113.055 128.768 109.042 124.756 104.092 124.756C99.1425 124.756 95.1299 128.768 95.1299 133.718C95.1299 138.668 99.1425 142.681 104.092 142.681Z" fill="#ECA7A9"/>
<path d="M64.2782 162.013L76.371 167.95C77.0944 168.305 77.7145 168.84 78.1721 169.503C78.6298 170.166 78.9096 170.936 78.9849 171.738C79.0602 172.54 78.9284 173.349 78.6021 174.085C78.2759 174.822 77.7661 175.463 77.1214 175.946L67.448 183.203C66.8062 183.684 66.052 183.994 65.257 184.102C64.4621 184.21 63.6526 184.113 62.9055 183.821C62.1584 183.529 61.4983 183.05 60.9878 182.431C60.4774 181.812 60.1335 181.073 59.9889 180.284L57.5704 167.092C56.8728 163.286 60.8062 160.309 64.2782 162.013Z" fill="#404396"/>
<path d="M248.482 39.2117L256.394 43.0948C256.868 43.3271 257.273 43.677 257.573 44.1109C257.872 44.5448 258.055 45.0483 258.105 45.5732C258.154 46.0981 258.068 46.6269 257.854 47.109C257.641 47.591 257.307 48.0103 256.885 48.3266L250.556 53.0738C250.136 53.3887 249.642 53.5912 249.122 53.662C248.602 53.7327 248.073 53.6695 247.584 53.4782C247.095 53.2869 246.663 52.974 246.329 52.569C245.995 52.164 245.77 51.6804 245.676 51.1641L244.093 42.5329C243.991 41.9715 244.046 41.3927 244.253 40.8608C244.46 40.329 244.81 39.8651 245.265 39.5207C245.72 39.1764 246.262 38.9652 246.83 38.9106C247.398 38.856 247.97 38.9603 248.482 39.2117Z" fill="#DD5557"/>
<path d="M134.479 194.406H102.612C101.879 194.406 101.284 195.001 101.284 195.734C101.284 196.467 101.879 197.062 102.612 197.062H134.479C135.212 197.062 135.806 196.467 135.806 195.734C135.806 195.001 135.212 194.406 134.479 194.406Z" fill="#DD5557"/>
<path d="M327.414 75.4043H288.909C287.992 75.4043 287.249 76.1474 287.249 77.064C287.249 77.9807 287.992 78.7238 288.909 78.7238H327.414C328.331 78.7238 329.074 77.9807 329.074 77.064C329.074 76.1474 328.331 75.4043 327.414 75.4043Z" fill="#404396"/>
<path d="M80.9912 80.0508H63.9195C63.0029 80.0508 62.2598 80.7939 62.2598 81.7105C62.2598 82.6272 63.0029 83.3703 63.9195 83.3703H80.9912C81.9079 83.3703 82.651 82.6272 82.651 81.7105C82.651 80.7939 81.9079 80.0508 80.9912 80.0508Z" fill="#DD5557"/>
</svg>
