<svg width="75" height="22" viewBox="0 0 75 22" fill="none" xmlns="http://www.w3.org/2000/svg">
<g id="Group 1000001799">
<path id="Vector" d="M47.9388 15.2606C47.9388 16.5599 47.9968 17.8483 48.0186 18.0636H45.0306C44.9532 17.8216 44.9314 17.2168 44.9096 16.9337C44.3725 17.7987 43.216 18.3346 41.3397 18.3346C38.6045 18.3346 37.5 16.6676 37.5 15.0683C37.5 12.442 39.7985 11.7125 42.7466 11.7125H44.8419V11.398C44.8419 10.5875 44.4898 9.93298 43.0273 9.93298C41.6603 9.93298 41.359 10.4447 41.2284 11.0217H38.0662C38.1508 9.78781 39.0218 7.79297 42.9777 7.79297C47.3218 7.79297 47.9376 9.83742 47.9376 11.5105L47.9388 15.2606ZM44.8467 13.7146C44.6181 13.6977 43.9273 13.6977 42.8071 13.6977C41.1994 13.6977 40.5679 14.1199 40.5679 14.9074C40.5679 15.5582 41.0929 16.0845 42.2397 16.0845C43.9745 16.0845 44.8467 15.2909 44.8467 13.8682V13.7146Z" fill="#282B36"/>
<g id="Group 348">
<g id="Group 341">
<path id="Vector_2" d="M16.89 21.0793H20.0814L10.3904 11.3877L9.25224 10.2495L9.71585 9.77946L19.4947 0H16.3033L8.44429 7.85833L8.44236 7.8564L8.11212 8.19113L6.05697 10.2463L6.07108 10.2604L4.60778 11.7442L3.20412 10.3405L13.5447 0H10.3526L0.0126953 10.3405L10.7514 21.0793H13.9435L6.20381 13.3402L7.66711 11.8564L16.89 21.0793Z" fill="#282B36"/>
<g id="Group">
<path id="Vector_3" style="mix-blend-mode:multiply" d="M6.20542 13.3395L4.60938 14.9355L5.8055 16.1317L7.40154 14.5356L6.20542 13.3395Z" fill="url(#paint0_linear_2138_1601)"/>
</g>
<g id="Group_2">
<path id="Vector_4" style="mix-blend-mode:multiply" d="M10.471 11.4677L8.87559 13.0637L7.67969 11.8672L9.25199 10.248L10.4165 11.4125L10.471 11.4677Z" fill="url(#paint1_linear_2138_1601)"/>
</g>
<path id="Vector_5" d="M7.14399 21.0802L0 13.9355V21.0802H7.14399Z" fill="#31AAB7"/>
</g>
<g id="Group 340">
<path id="Vector_6" d="M22.501 4.04492H25.8084V10.0065C27.7742 8.19189 29.6602 6.46197 32.2563 4.04492H36.304L29.9045 9.91454L36.6633 17.6786H32.5502L27.5419 11.7267L25.8084 13.1784V17.681H22.501V4.04492Z" fill="#282B36"/>
<path id="Vector_7" d="M50.6484 3.89648H53.8107V6.42361H50.6484V3.89648ZM50.6484 8.30717H53.8107V18.3092H50.6484V8.30717Z" fill="#282B36"/>
<path id="Vector_8" d="M56.617 10.3945C56.617 9.48965 56.617 8.57993 56.5977 7.67747H59.6946C59.7478 8.03071 59.7865 9.13762 59.7865 9.67595C60.3442 8.35976 61.5672 7.37745 63.6419 7.42342V10.3014C61.3797 10.2651 59.7865 11.1724 59.7865 14.0249V17.6795H56.617V10.3945Z" fill="#282B36"/>
<path id="Vector_9" d="M74.9202 14.8759C74.9202 16.1751 74.9783 17.4635 75.0001 17.6788H72.012C71.9346 17.4369 71.9128 16.832 71.8911 16.5489C71.3539 17.4139 70.1974 17.9498 68.3211 17.9498C65.5847 17.9498 64.4814 16.2828 64.4814 14.6835C64.4814 12.0572 66.7799 11.3277 69.7281 11.3277H71.8233V11.0132C71.8233 10.2027 71.4713 9.54821 70.0087 9.54821C68.6417 9.54821 68.3417 10.0599 68.2111 10.637H65.0476C65.1311 9.40305 66.0021 7.4082 69.9591 7.4082C74.3021 7.4082 74.919 9.45265 74.919 11.1257L74.9202 14.8759ZM71.8281 13.3298C71.5983 13.3129 70.9087 13.3129 69.7885 13.3129C68.1808 13.3129 67.5481 13.7351 67.5481 14.5226C67.5481 15.1735 68.0743 15.6997 69.2212 15.6997C70.9547 15.6997 71.8281 14.9061 71.8281 13.4835V13.3298Z" fill="#282B36"/>
</g>
</g>
</g>
<defs>
<linearGradient id="paint0_linear_2138_1601" x1="6.56097" y1="15.2909" x2="5.21438" y2="13.9443" gradientUnits="userSpaceOnUse">
<stop stop-color="white"/>
<stop offset="0.59" stop-color="#68686A"/>
<stop offset="1" stop-color="#050508"/>
</linearGradient>
<linearGradient id="paint1_linear_2138_1601" x1="9.63096" y1="12.2224" x2="8.28437" y2="10.8765" gradientUnits="userSpaceOnUse">
<stop stop-color="white"/>
<stop offset="0.59" stop-color="#68686A"/>
<stop offset="1" stop-color="#050508"/>
</linearGradient>
</defs>
</svg>
