<svg width="154" height="44" viewBox="0 0 154 44" fill="none" xmlns="http://www.w3.org/2000/svg">
<g id="Group 1993">
<g id="Group 347">
<g id="Group 341">
<path id="Vector" d="M34.6812 43.283H41.2343L21.3354 23.3828L18.9983 21.0457L19.9503 20.0806L40.0295 0H33.4765L17.3393 16.1358L17.3354 16.1319L16.6573 16.8192L12.4373 21.0391L12.4663 21.0681L9.46165 24.1149L6.57945 21.2327L27.8121 0H21.2577L0.0263672 21.2327L22.0767 43.283H28.6311L12.7389 27.3921L15.7435 24.3453L34.6812 43.283Z" fill="#282B36"/>
<g id="Group">
<path id="Vector_2" style="mix-blend-mode:multiply" d="M12.744 27.3966L9.4668 30.6738L11.9229 33.1299L15.2001 29.8527L12.744 27.3966Z" fill="url(#paint0_linear_227_4920)"/>
</g>
<g id="Group_2">
<path id="Vector_3" style="mix-blend-mode:multiply" d="M21.502 23.5492L18.2261 26.8264L15.7705 24.3695L18.999 21.0449L21.3901 23.436L21.502 23.5492Z" fill="url(#paint1_linear_227_4920)"/>
</g>
<path id="Vector_4" d="M14.6691 43.2837L0 28.6133V43.2837H14.6691Z" fill="#31AAB7"/>
</g>
<g id="Group 340">
<path id="Vector_5" d="M46.2021 8.30664H52.9934V20.5478C57.0299 16.8218 60.9024 13.2697 66.2331 8.30664H74.5445L61.4042 20.359L75.2823 36.3013H66.8367L56.5529 24.08L52.9934 27.0608V36.3062H46.2021V8.30664Z" fill="#282B36"/>
<path id="Vector_6" d="M104 8H110.493V13.1891H104V8ZM104 17.0566H110.493V37.5943H104V17.0566Z" fill="#282B36"/>
<path id="Vector_7" d="M116.256 21.3422C116.256 19.4841 116.256 17.6162 116.216 15.7631H122.575C122.684 16.4884 122.764 18.7613 122.764 19.8667C123.909 17.1641 126.42 15.1471 130.68 15.2415V21.1509C126.035 21.0764 122.764 22.9394 122.764 28.7966V36.3008H116.256V21.3422Z" fill="#282B36"/>
<path id="Vector_8" d="M153.837 30.5446C153.837 33.2124 153.956 35.8579 154.001 36.3H147.865C147.706 35.8032 147.662 34.5612 147.617 33.98C146.514 35.756 144.139 36.8564 140.287 36.8564C134.668 36.8564 132.402 33.4335 132.402 30.1497C132.402 24.7569 137.122 23.2591 143.175 23.2591H147.478V22.6132C147.478 20.949 146.755 19.6051 143.752 19.6051C140.945 19.6051 140.329 20.6558 140.06 21.8407H133.565C133.736 19.307 135.525 15.2109 143.65 15.2109C152.567 15.2109 153.834 19.4089 153.834 22.8443L153.837 30.5446ZM147.488 27.3701C147.016 27.3353 145.6 27.3353 143.3 27.3353C139.998 27.3353 138.699 28.2022 138.699 29.8193C138.699 31.1557 139.78 32.2362 142.135 32.2362C145.694 32.2362 147.488 30.6067 147.488 27.6856V27.3701Z" fill="#282B36"/>
</g>
</g>
<g id="Group 1000001797">
<path id="Vector_9" d="M98.4344 31.3337C98.4344 34.0015 98.5536 36.6469 98.5983 37.0891H92.4629C92.3039 36.5923 92.2592 35.3503 92.2145 34.769C91.1116 36.5451 88.7369 37.6455 84.8842 37.6455C79.2679 37.6455 77 34.2226 77 30.9387C77 25.546 81.7196 24.0481 87.7731 24.0481H92.0754V23.4023C92.0754 21.738 91.3525 20.3942 88.3494 20.3942C85.5425 20.3942 84.9239 21.4449 84.6557 22.6298H78.1625C78.3364 20.0961 80.1249 16 88.2475 16C97.1675 16 98.4319 20.198 98.4319 23.6333L98.4344 31.3337ZM92.0853 28.1591C91.6158 28.1244 90.1975 28.1244 87.8973 28.1244C84.5961 28.1244 83.2994 28.9913 83.2994 30.6084C83.2994 31.9447 84.3775 33.0253 86.7323 33.0253C90.2943 33.0253 92.0853 31.3958 92.0853 28.4746V28.1591Z" fill="#282B36"/>
<g id="Group 348">
<g id="Group 341_2">
<path id="Vector_10" d="M34.6812 43.283H41.2343L21.3354 23.3828L18.9983 21.0457L19.9503 20.0806L40.0295 0H33.4765L17.3393 16.1358L17.3354 16.1319L16.6573 16.8192L12.4373 21.0391L12.4663 21.0681L9.46165 24.1149L6.57945 21.2327L27.8121 0H21.2577L0.0263672 21.2327L22.0767 43.283H28.6311L12.7389 27.3921L15.7435 24.3453L34.6812 43.283Z" fill="#282B36"/>
<g id="Group_3">
<path id="Vector_11" style="mix-blend-mode:multiply" d="M12.744 27.3966L9.4668 30.6738L11.9229 33.1299L15.2001 29.8527L12.744 27.3966Z" fill="url(#paint2_linear_227_4920)"/>
</g>
<g id="Group_4">
<path id="Vector_12" style="mix-blend-mode:multiply" d="M21.502 23.5492L18.2261 26.8264L15.7705 24.3695L18.999 21.0449L21.3901 23.436L21.502 23.5492Z" fill="url(#paint3_linear_227_4920)"/>
</g>
<path id="Vector_13" d="M14.6691 43.2837L0 28.6133V43.2837H14.6691Z" fill="#31AAB7"/>
</g>
<g id="Group 340_2">
<path id="Vector_14" d="M46.2021 8.30664H52.9934V20.5478C57.0299 16.8218 60.9024 13.2697 66.2331 8.30664H74.5445L61.4042 20.359L75.2823 36.3013H66.8367L56.5529 24.08L52.9934 27.0608V36.3062H46.2021V8.30664Z" fill="#282B36"/>
<path id="Vector_15" d="M104 8H110.493V13.1891H104V8ZM104 17.0566H110.493V37.5943H104V17.0566Z" fill="#282B36"/>
<path id="Vector_16" d="M116.256 21.3422C116.256 19.4841 116.256 17.6162 116.216 15.7631H122.575C122.684 16.4884 122.764 18.7613 122.764 19.8667C123.909 17.1641 126.42 15.1471 130.68 15.2415V21.1509C126.035 21.0764 122.764 22.9394 122.764 28.7966V36.3008H116.256V21.3422Z" fill="#282B36"/>
<path id="Vector_17" d="M153.837 30.5446C153.837 33.2124 153.956 35.8579 154.001 36.3H147.865C147.706 35.8032 147.662 34.5612 147.617 33.98C146.514 35.756 144.139 36.8564 140.287 36.8564C134.668 36.8564 132.402 33.4335 132.402 30.1497C132.402 24.7569 137.122 23.2591 143.175 23.2591H147.478V22.6132C147.478 20.949 146.755 19.6051 143.752 19.6051C140.945 19.6051 140.329 20.6558 140.06 21.8407H133.565C133.736 19.307 135.525 15.2109 143.65 15.2109C152.567 15.2109 153.834 19.4089 153.834 22.8443L153.837 30.5446ZM147.488 27.3701C147.016 27.3353 145.6 27.3353 143.3 27.3353C139.998 27.3353 138.699 28.2022 138.699 29.8193C138.699 31.1557 139.78 32.2362 142.135 32.2362C145.694 32.2362 147.488 30.6067 147.488 27.6856V27.3701Z" fill="#282B36"/>
</g>
</g>
</g>
<g id="Group 1000001798">
<path id="Vector_18" d="M98.4344 31.3337C98.4344 34.0015 98.5536 36.6469 98.5983 37.0891H92.4629C92.3039 36.5923 92.2592 35.3503 92.2145 34.769C91.1116 36.5451 88.7369 37.6455 84.8842 37.6455C79.2679 37.6455 77 34.2226 77 30.9387C77 25.546 81.7196 24.0481 87.7731 24.0481H92.0754V23.4023C92.0754 21.738 91.3525 20.3942 88.3494 20.3942C85.5425 20.3942 84.9239 21.4449 84.6557 22.6298H78.1625C78.3364 20.0961 80.1249 16 88.2475 16C97.1675 16 98.4319 20.198 98.4319 23.6333L98.4344 31.3337ZM92.0853 28.1591C91.6158 28.1244 90.1975 28.1244 87.8973 28.1244C84.5961 28.1244 83.2994 28.9913 83.2994 30.6084C83.2994 31.9447 84.3775 33.0253 86.7323 33.0253C90.2943 33.0253 92.0853 31.3958 92.0853 28.4746V28.1591Z" fill="#282B36"/>
<g id="Group 348_2">
<g id="Group 341_3">
<path id="Vector_19" d="M34.6812 43.283H41.2343L21.3354 23.3828L18.9983 21.0457L19.9503 20.0806L40.0295 0H33.4765L17.3393 16.1358L17.3354 16.1319L16.6573 16.8192L12.4373 21.0391L12.4663 21.0681L9.46165 24.1149L6.57945 21.2327L27.8121 0H21.2577L0.0263672 21.2327L22.0767 43.283H28.6311L12.7389 27.3921L15.7435 24.3453L34.6812 43.283Z" fill="#282B36"/>
<g id="Group_5">
<path id="Vector_20" style="mix-blend-mode:multiply" d="M12.744 27.3966L9.4668 30.6738L11.9229 33.1299L15.2001 29.8527L12.744 27.3966Z" fill="url(#paint4_linear_227_4920)"/>
</g>
<g id="Group_6">
<path id="Vector_21" style="mix-blend-mode:multiply" d="M21.502 23.5492L18.2261 26.8264L15.7705 24.3695L18.999 21.0449L21.3901 23.436L21.502 23.5492Z" fill="url(#paint5_linear_227_4920)"/>
</g>
<path id="Vector_22" d="M14.6691 43.2837L0 28.6133V43.2837H14.6691Z" fill="#31AAB7"/>
</g>
<g id="Group 340_3">
<path id="Vector_23" d="M46.2021 8.30664H52.9934V20.5478C57.0299 16.8218 60.9024 13.2697 66.2331 8.30664H74.5445L61.4042 20.359L75.2823 36.3013H66.8367L56.5529 24.08L52.9934 27.0608V36.3062H46.2021V8.30664Z" fill="#282B36"/>
<path id="Vector_24" d="M104 8H110.493V13.1891H104V8ZM104 17.0566H110.493V37.5943H104V17.0566Z" fill="#282B36"/>
<path id="Vector_25" d="M116.256 21.3422C116.256 19.4841 116.256 17.6162 116.216 15.7631H122.575C122.684 16.4884 122.764 18.7613 122.764 19.8667C123.909 17.1641 126.42 15.1471 130.68 15.2415V21.1509C126.035 21.0764 122.764 22.9394 122.764 28.7966V36.3008H116.256V21.3422Z" fill="#282B36"/>
<path id="Vector_26" d="M153.837 30.5446C153.837 33.2124 153.956 35.8579 154.001 36.3H147.865C147.706 35.8032 147.662 34.5612 147.617 33.98C146.514 35.756 144.139 36.8564 140.287 36.8564C134.668 36.8564 132.402 33.4335 132.402 30.1497C132.402 24.7569 137.122 23.2591 143.175 23.2591H147.478V22.6132C147.478 20.949 146.755 19.6051 143.752 19.6051C140.945 19.6051 140.329 20.6558 140.06 21.8407H133.565C133.736 19.307 135.525 15.2109 143.65 15.2109C152.567 15.2109 153.834 19.4089 153.834 22.8443L153.837 30.5446ZM147.488 27.3701C147.016 27.3353 145.6 27.3353 143.3 27.3353C139.998 27.3353 138.699 28.2022 138.699 29.8193C138.699 31.1557 139.78 32.2362 142.135 32.2362C145.694 32.2362 147.488 30.6067 147.488 27.6856V27.3701Z" fill="#282B36"/>
</g>
</g>
</g>
</g>
<defs>
<linearGradient id="paint0_linear_227_4920" x1="13.4741" y1="31.4035" x2="10.7091" y2="28.6384" gradientUnits="userSpaceOnUse">
<stop stop-color="white"/>
<stop offset="0.59" stop-color="#68686A"/>
<stop offset="1" stop-color="#050508"/>
</linearGradient>
<linearGradient id="paint1_linear_227_4920" x1="19.7771" y1="25.099" x2="17.0121" y2="22.3353" gradientUnits="userSpaceOnUse">
<stop stop-color="white"/>
<stop offset="0.59" stop-color="#68686A"/>
<stop offset="1" stop-color="#050508"/>
</linearGradient>
<linearGradient id="paint2_linear_227_4920" x1="13.4741" y1="31.4035" x2="10.7091" y2="28.6384" gradientUnits="userSpaceOnUse">
<stop stop-color="white"/>
<stop offset="0.59" stop-color="#68686A"/>
<stop offset="1" stop-color="#050508"/>
</linearGradient>
<linearGradient id="paint3_linear_227_4920" x1="19.7771" y1="25.099" x2="17.0121" y2="22.3353" gradientUnits="userSpaceOnUse">
<stop stop-color="white"/>
<stop offset="0.59" stop-color="#68686A"/>
<stop offset="1" stop-color="#050508"/>
</linearGradient>
<linearGradient id="paint4_linear_227_4920" x1="13.4741" y1="31.4035" x2="10.7091" y2="28.6384" gradientUnits="userSpaceOnUse">
<stop stop-color="white"/>
<stop offset="0.59" stop-color="#68686A"/>
<stop offset="1" stop-color="#050508"/>
</linearGradient>
<linearGradient id="paint5_linear_227_4920" x1="19.7771" y1="25.099" x2="17.0121" y2="22.3353" gradientUnits="userSpaceOnUse">
<stop stop-color="white"/>
<stop offset="0.59" stop-color="#68686A"/>
<stop offset="1" stop-color="#050508"/>
</linearGradient>
</defs>
</svg>
