<svg width="23" height="23" viewBox="0 0 23 23" fill="none" xmlns="http://www.w3.org/2000/svg">
<g id="square 4" clip-path="url(#clip0_2137_1493)">
<path id="Vector" d="M20.3646 0H2.63542C1.18163 0 0 1.18163 0 2.63542V20.3646C0 21.8184 1.18163 23 2.63542 23H20.3646C21.8184 23 23 21.8184 23 20.3646V2.63542C23 1.18163 21.8184 0 20.3646 0ZM15.3333 16.2917H7.66667C7.13671 16.2917 6.70833 15.8623 6.70833 15.3333C6.70833 14.8043 7.13671 14.375 7.66667 14.375H15.3333C15.8633 14.375 16.2917 14.8043 16.2917 15.3333C16.2917 15.8623 15.8633 16.2917 15.3333 16.2917ZM15.3333 12.4583H7.66667C7.13671 12.4583 6.70833 12.029 6.70833 11.5C6.70833 10.971 7.13671 10.5417 7.66667 10.5417H15.3333C15.8633 10.5417 16.2917 10.971 16.2917 11.5C16.2917 12.029 15.8633 12.4583 15.3333 12.4583ZM15.3333 8.625H7.66667C7.13671 8.625 6.70833 8.19567 6.70833 7.66667C6.70833 7.13767 7.13671 6.70833 7.66667 6.70833H15.3333C15.8633 6.70833 16.2917 7.13767 16.2917 7.66667C16.2917 8.19567 15.8633 8.625 15.3333 8.625Z" fill="#31AAB7"/>
</g>
<defs>
<clipPath id="clip0_2137_1493">
<rect width="23" height="23" fill="white"/>
</clipPath>
</defs>
</svg>
