<svg width="526" height="416" viewBox="0 0 526 416" fill="none" xmlns="http://www.w3.org/2000/svg">
<path d="M40.478 327.998H482.832C482.832 327.998 538.047 199.924 399.751 194.187C261.456 188.449 342.137 113.703 255.495 87.4615C168.852 61.2199 143.124 122.034 133.877 142.725C118.774 176.52 -12.7795 176.122 40.478 327.998Z" fill="#EEEEF5"/>
<path d="M64.2232 318.204C64.189 321.279 64.0125 324.155 63.7965 326.586H54.9639C50.8744 321.743 47.4586 316.369 44.8095 310.609C43.7728 308.373 42.8843 306.07 42.1499 303.717C41.4455 301.513 40.9747 299.241 40.7454 296.938C40.5005 294.088 40.8429 291.67 41.9016 289.957C43.3061 287.694 45.9649 286.665 50.1888 287.502C50.8398 287.63 51.4807 287.805 52.1061 288.026V288.029C52.9763 288.33 53.8107 288.726 54.5945 289.209C55.8615 289.997 56.9942 290.982 57.9495 292.128C59.428 293.937 60.5932 295.98 61.3967 298.174C61.5311 298.514 61.6575 298.859 61.7759 299.208C62.4999 301.363 63.0407 303.574 63.3924 305.82C63.4266 306.028 63.4608 306.236 63.4923 306.447C63.5318 306.705 63.5686 306.966 63.6031 307.227C63.9575 309.895 64.1588 312.581 64.206 315.272C64.2285 316.264 64.2338 317.245 64.2232 318.204Z" fill="#404396"/>
<path d="M60.5689 326.621C60.4022 326.028 60.2244 325.41 60.0389 324.768L59.9882 324.591C59.2992 322.212 58.5967 319.865 57.9008 317.618C57.33 315.775 56.7464 313.95 56.1661 312.194C55.3303 309.671 54.5477 307.415 53.7736 305.298C52.7213 302.418 51.6883 299.803 50.7033 297.529C48.7184 292.941 46.8668 289.588 45.2002 287.563L45.405 287.395C47.0873 289.439 48.9519 292.813 50.9466 297.423C51.9337 299.703 52.9685 302.322 54.0225 305.207C54.7976 307.328 55.581 309.585 56.4176 312.11C56.9985 313.868 57.5836 315.695 58.1539 317.539C58.8503 319.788 59.5528 322.136 60.2429 324.517L60.2935 324.694C60.479 325.337 60.6561 325.955 60.8235 326.55L60.5689 326.621Z" fill="black"/>
<path d="M62.5757 333.996L62.5283 333.817L62.7856 333.749L62.8332 333.929L62.5757 333.996Z" fill="black"/>
<path d="M50.9269 297.734L41.7002 289.962L41.8711 289.759L50.7289 297.22L51.9755 288.009L52.2384 288.044L50.9269 297.734Z" fill="black"/>
<path d="M53.9773 305.459L40.6748 297.052L40.8163 296.828L53.8262 305.05L57.8908 291.88L58.1439 291.958L53.9773 305.459Z" fill="black"/>
<path d="M56.3638 312.348L42.0811 303.83L42.2165 303.602L56.2244 311.956L61.2754 298.125L61.5245 298.216L56.3638 312.348Z" fill="black"/>
<path d="M58.0848 317.759L44.7471 310.726L44.8706 310.491L57.9761 317.402L63.4879 307.166L63.7214 307.292L58.0848 317.759Z" fill="black"/>
<path d="M60.1619 324.724L49.4658 319.338L49.5848 319.102L60.0734 324.383L64.1084 318.438L64.3276 318.586L60.1619 324.724Z" fill="black"/>
<path d="M65.2607 317.102C65.2607 317.102 42.35 279.432 62.8908 271.265C83.4315 263.098 70.2643 312.097 65.2607 317.102Z" fill="#7B7DB5"/>
<path d="M64.9984 316.99C64.9831 316.889 63.4614 306.707 62.7851 295.934C61.874 281.437 62.8458 272.83 65.6737 270.353L65.8483 270.552C59.2378 276.342 65.1988 316.546 65.26 316.951L64.9984 316.99Z" fill="black"/>
<path d="M63.0147 278.202L60.2695 272.591L60.5075 272.475L63.0865 277.746L69.6886 270.896L69.8791 271.08L63.0147 278.202Z" fill="black"/>
<path d="M62.5704 285.222L56.832 275.86L57.0578 275.722L62.6359 284.822L73.1889 275.999L73.3588 276.203L62.5704 285.222Z" fill="black"/>
<path d="M62.7279 293.044L54.4092 282.534L54.6169 282.369L62.7709 292.671L73.9498 283.789L74.1147 283.996L62.7279 293.044Z" fill="black"/>
<path d="M63.2535 300.827L55.1348 292.953L55.3195 292.763L63.2794 300.483L72.9351 293.617L73.0886 293.833L63.2535 300.827Z" fill="black"/>
<path d="M63.7806 306.402L56.9609 299.464L57.1499 299.278L63.8105 306.054L71.4872 300.546L71.6417 300.762L63.7806 306.402Z" fill="black"/>
<path d="M84.4281 309.902C83.8428 311.998 83.0645 314.034 82.103 315.985C80.1905 319.913 77.6391 323.495 74.553 326.586H61.4673C61.3674 325.795 61.2752 324.96 61.2023 324.091V324.088C61.1758 323.754 61.1493 323.411 61.126 323.066C60.8875 319.476 60.9757 315.395 61.8415 311.486V311.483C61.8783 311.32 61.9152 311.159 61.9547 310.996C62.0678 310.524 62.1916 310.055 62.3312 309.591C62.6422 308.516 63.0303 307.466 63.4925 306.448C63.5455 306.329 63.6006 306.209 63.6584 306.09C63.6902 306.018 63.7244 305.95 63.7585 305.877C63.9902 305.403 64.2377 304.937 64.509 304.481C65.8647 302.139 67.7418 300.142 69.9946 298.644C70.7365 298.15 71.5137 297.711 72.3201 297.332C72.9376 297.04 73.5696 296.78 74.2135 296.552C75.4199 296.103 76.6795 295.812 77.9607 295.688C79.6408 295.546 81.0156 295.835 82.1032 296.465C83.5279 297.29 84.4602 298.702 84.942 300.509C85.6159 303.04 85.4078 306.341 84.4281 309.902Z" fill="#7B7DB5"/>
<path d="M65.5162 326.63L65.2666 326.541C65.5472 325.754 65.856 324.913 66.184 324.041C66.8065 322.393 67.4561 320.778 68.1112 319.241C68.9995 317.153 69.9484 315.093 70.9321 313.118C72.6794 309.584 74.6638 306.173 76.8717 302.907C78.4296 300.614 80.145 298.433 82.0054 296.378L82.2009 296.557C80.349 298.603 78.6413 300.775 77.0903 303.057C74.8893 306.313 72.9111 309.714 71.1693 313.237C70.1888 315.207 69.2411 317.263 68.3547 319.346C67.6999 320.88 67.053 322.491 66.4318 324.136C66.1043 325.005 65.7961 325.844 65.5162 326.63Z" fill="black"/>
<path d="M76.8193 303.197L77.829 295.672L78.0919 295.707L77.1373 302.82L84.9017 300.385L84.9809 300.637L76.8193 303.197Z" fill="black"/>
<path d="M70.9301 313.344L69.8613 298.654L70.1255 298.635L71.1715 313.012L84.3971 309.774L84.4599 310.031L70.9301 313.344Z" fill="black"/>
<path d="M66.2197 324.238L61.7178 311.527L61.9674 311.438L66.3946 323.938L78.4891 321.822L78.5347 322.083L66.2197 324.238Z" fill="black"/>
<path d="M62.1255 326.637L61.0693 324.091L61.2048 324.09L61.3241 324.04L62.3699 326.535L62.1255 326.637Z" fill="black"/>
<path d="M68.1358 319.452L64.3799 304.517L64.6369 304.452L68.3287 319.133L82.0732 315.857L82.1344 316.115L68.1358 319.452Z" fill="black"/>
<path d="M435.168 315.839C435.124 319.763 434.899 323.434 434.624 326.537H423.352C418.133 320.356 413.774 313.497 410.393 306.147C409.07 303.294 407.936 300.356 406.999 297.353C406.1 294.541 405.5 291.641 405.208 288.703C404.895 285.066 405.332 281.98 406.683 279.795C408.474 276.907 411.868 275.592 417.259 276.661C418.09 276.824 418.907 277.048 419.705 277.33V277.334C420.816 277.718 421.881 278.223 422.881 278.84C424.498 279.845 425.943 281.102 427.163 282.565C429.001 284.738 430.443 287.365 431.562 290.279C431.733 290.713 431.894 291.153 432.046 291.6C432.97 294.35 433.66 297.172 434.109 300.038C434.153 300.303 434.196 300.568 434.237 300.838C434.287 301.168 434.334 301.501 434.378 301.833C434.83 305.238 435.086 308.666 435.146 312.1C435.175 313.366 435.181 314.616 435.168 315.839Z" fill="#404396"/>
<path d="M430.541 326.573C430.326 325.808 430.099 325.012 429.86 324.185L429.802 323.981C428.92 320.937 428.023 317.943 427.137 315.082C426.406 312.723 425.662 310.393 424.923 308.159C423.858 304.944 422.859 302.065 421.87 299.358C420.526 295.68 419.208 292.343 417.951 289.441C415.416 283.582 413.052 279.301 410.923 276.714L411.127 276.546C413.272 279.152 415.649 283.455 418.194 289.335C419.453 292.243 420.774 295.584 422.119 299.267C423.109 301.976 424.109 304.857 425.175 308.075C425.914 310.311 426.659 312.642 427.39 315.003C428.277 317.866 429.174 320.861 430.056 323.907L430.114 324.111C430.352 324.939 430.58 325.735 430.796 326.5L430.541 326.573Z" fill="black"/>
<path d="M433.298 335.687L433.041 335.755L433.102 335.984L433.359 335.916L433.298 335.687Z" fill="black"/>
<path d="M418.174 289.646L406.45 279.771L406.621 279.568L417.976 289.133L419.576 277.312L419.838 277.347L418.174 289.646Z" fill="black"/>
<path d="M422.071 299.519L405.136 288.817L405.277 288.593L421.92 299.11L427.121 282.258L427.374 282.336L422.071 299.519Z" fill="black"/>
<path d="M425.119 308.312L406.93 297.464L407.065 297.237L424.979 307.921L431.44 290.229L431.689 290.319L425.119 308.312Z" fill="black"/>
<path d="M427.32 315.222L410.331 306.264L410.455 306.029L427.211 314.865L434.263 301.771L434.496 301.896L427.32 315.222Z" fill="black"/>
<path d="M429.973 324.115L416.352 317.256L416.471 317.02L429.884 323.774L435.051 316.16L435.271 316.309L429.973 324.115Z" fill="black"/>
<path d="M436.492 314.433C436.492 314.433 407.254 266.36 433.467 255.938C459.68 245.517 442.877 308.046 436.492 314.433Z" fill="#404396"/>
<path d="M436.192 314.285C436.173 314.155 434.231 301.163 433.368 287.418C432.206 268.929 433.442 257.956 437.043 254.802L437.217 255.001C428.766 262.403 436.376 313.728 436.454 314.245L436.192 314.285Z" fill="black"/>
<path d="M433.636 264.729L430.156 257.616L430.394 257.499L433.708 264.273L442.17 255.494L442.36 255.678L433.636 264.729Z" fill="black"/>
<path d="M433.068 273.693L432.988 273.562L425.768 261.782L425.993 261.644L433.134 273.293L446.634 262.007L446.803 262.211L433.068 273.693Z" fill="black"/>
<path d="M433.265 283.681L422.672 270.297L422.88 270.133L433.308 283.308L447.603 271.951L447.768 272.158L433.265 283.681Z" fill="black"/>
<path d="M433.934 293.616L433.855 293.54L423.596 283.59L423.78 283.399L433.96 293.272L446.307 284.494L446.461 284.71L433.934 293.616Z" fill="black"/>
<path d="M434.607 300.731L425.927 291.9L426.116 291.714L434.637 300.383L444.46 293.336L444.614 293.551L434.607 300.731Z" fill="black"/>
<path d="M460.954 305.247C460.207 307.921 459.213 310.52 457.986 313.01C455.545 318.022 452.289 322.593 448.351 326.537H431.652C431.524 325.53 431.407 324.463 431.313 323.354V323.35C431.279 322.923 431.245 322.486 431.215 322.046C430.913 317.464 431.024 312.256 432.129 307.268V307.264C432.176 307.056 432.223 306.851 432.274 306.642C432.418 306.04 432.576 305.442 432.754 304.85C433.151 303.48 433.647 302.139 434.236 300.84C434.304 300.688 434.374 300.534 434.448 300.382C434.489 300.292 434.532 300.204 434.576 300.114C434.872 299.508 435.188 298.914 435.534 298.332C437.264 295.344 439.659 292.795 442.534 290.883C443.481 290.252 444.473 289.693 445.502 289.209C446.29 288.836 447.097 288.504 447.918 288.213C449.458 287.64 451.066 287.27 452.701 287.111C454.845 286.929 456.599 287.299 457.987 288.102C459.805 289.155 460.995 290.957 461.61 293.263C462.469 296.49 462.204 300.703 460.954 305.247Z" fill="#7B7DB5"/>
<path d="M436.785 326.581L436.535 326.492C436.895 325.483 437.289 324.41 437.705 323.303C438.5 321.199 439.327 319.141 440.164 317.179C441.296 314.517 442.507 311.888 443.763 309.366C445.992 304.858 448.524 300.506 451.34 296.34C453.328 293.416 455.516 290.633 457.888 288.012L458.084 288.191C455.72 290.802 453.539 293.576 451.559 296.49C448.749 300.646 446.224 304.987 444 309.484C442.747 312.001 441.538 314.625 440.408 317.283C439.572 319.24 438.746 321.297 437.953 323.396C437.537 324.502 437.144 325.574 436.785 326.581Z" fill="black"/>
<path d="M451.288 296.638L452.569 287.092L452.831 287.127L451.606 296.261L461.569 293.136L461.649 293.389L451.288 296.638Z" fill="black"/>
<path d="M443.762 309.594L442.401 290.89L442.666 290.871L444.004 309.261L460.923 305.12L460.986 305.377L443.762 309.594Z" fill="black"/>
<path d="M437.741 323.499L437.703 323.394L432.006 307.307L432.256 307.219L437.915 323.2L453.38 320.493L453.426 320.754L437.741 323.499Z" fill="black"/>
<path d="M432.526 326.589L431.182 323.354L431.318 323.352L431.436 323.303L432.771 326.486L432.526 326.589Z" fill="black"/>
<path d="M440.19 317.389L440.158 317.262L435.405 298.364L435.663 298.3L440.383 317.07L457.958 312.881L458.019 313.139L440.19 317.389Z" fill="black"/>
<path d="M137.268 314.647C137.224 318.57 136.999 322.241 136.723 325.344H125.452C120.233 319.163 115.874 312.305 112.493 304.955C111.17 302.101 110.036 299.163 109.099 296.161C108.2 293.348 107.6 290.449 107.307 287.511C106.995 283.873 107.432 280.787 108.783 278.602C110.574 275.714 113.968 274.4 119.359 275.469C120.189 275.632 121.007 275.855 121.805 276.138V276.141C122.916 276.525 123.981 277.03 124.981 277.647C126.598 278.652 128.043 279.91 129.262 281.372C131.1 283.546 132.542 286.173 133.661 289.086C133.833 289.52 133.994 289.96 134.145 290.407C135.069 293.157 135.76 295.98 136.209 298.846C136.252 299.111 136.296 299.376 136.336 299.646C136.387 299.975 136.434 300.309 136.478 300.641C136.929 304.046 137.186 307.473 137.246 310.908C137.274 312.173 137.28 313.424 137.268 314.647Z" fill="#7B7DB5"/>
<path d="M132.64 325.38C132.428 324.624 132.202 323.836 131.967 323.018L131.901 322.789C131.022 319.755 130.125 316.761 129.237 313.89C128.507 311.534 127.762 309.205 127.023 306.967C125.955 303.745 124.956 300.866 123.969 298.165C122.625 294.486 121.307 291.15 120.05 288.248C117.516 282.39 115.151 278.109 113.022 275.522L113.227 275.354C115.371 277.96 117.749 282.263 120.294 288.143C121.552 291.049 122.873 294.39 124.218 298.074C125.206 300.777 126.206 303.658 127.274 306.883C128.014 309.123 128.76 311.453 129.49 313.81C130.379 316.683 131.276 319.679 132.156 322.715L132.221 322.944C132.457 323.763 132.681 324.551 132.895 325.308L132.64 325.38Z" fill="black"/>
<path d="M135.2 334.792L135.14 334.564L135.397 334.495L135.458 334.725L135.2 334.792Z" fill="black"/>
<path d="M120.273 288.454L108.549 278.579L108.719 278.376L120.075 287.94L121.675 276.119L121.937 276.155L120.273 288.454Z" fill="black"/>
<path d="M124.171 298.327L107.235 287.624L107.377 287.4L124.02 297.918L129.221 281.065L129.474 281.144L124.171 298.327Z" fill="black"/>
<path d="M127.218 307.12L109.029 296.272L109.165 296.044L127.079 306.728L133.54 289.036L133.789 289.127L127.218 307.12Z" fill="black"/>
<path d="M129.418 314.03L112.43 305.071L112.553 304.837L129.31 313.673L136.361 300.578L136.594 300.704L129.418 314.03Z" fill="black"/>
<path d="M132.072 322.923L118.451 316.064L118.57 315.827L131.984 322.581L137.151 314.968L137.37 315.117L132.072 322.923Z" fill="black"/>
<path d="M138.591 313.242C138.591 313.242 109.353 265.168 135.566 254.747C161.779 244.325 144.976 306.855 138.591 313.242Z" fill="#7B7DB5"/>
<path d="M138.291 313.094C138.271 312.964 136.33 299.971 135.467 286.226C134.305 267.738 135.541 256.764 139.141 253.61L139.316 253.81C130.865 261.212 138.475 312.537 138.553 313.054L138.291 313.094Z" fill="black"/>
<path d="M135.735 263.537L132.255 256.424L132.493 256.308L135.807 263.081L144.269 254.303L144.459 254.487L135.735 263.537Z" fill="black"/>
<path d="M135.166 272.501L127.865 260.591L128.091 260.452L135.232 272.101L148.731 260.816L148.901 261.019L135.166 272.501Z" fill="black"/>
<path d="M135.363 282.49L124.771 269.106L124.978 268.941L135.406 282.117L149.701 270.759L149.866 270.967L135.363 282.49Z" fill="black"/>
<path d="M136.033 292.425L125.694 282.398L125.879 282.208L136.059 292.081L148.406 283.302L148.559 283.518L136.033 292.425Z" fill="black"/>
<path d="M136.706 299.541L128.025 290.71L128.214 290.523L136.736 299.193L146.558 292.146L146.713 292.361L136.706 299.541Z" fill="black"/>
<path d="M163.054 304.054C162.307 306.727 161.313 309.326 160.086 311.816C157.646 316.828 154.39 321.4 150.451 325.344H133.753C133.625 324.337 133.507 323.27 133.413 322.16V322.157C133.38 321.73 133.346 321.293 133.316 320.853C133.013 316.27 133.124 311.063 134.23 306.074V306.071C134.277 305.863 134.324 305.657 134.374 305.449C134.519 304.847 134.677 304.249 134.855 303.657C135.252 302.286 135.747 300.946 136.337 299.647C136.404 299.495 136.475 299.341 136.549 299.189C136.589 299.099 136.633 299.011 136.677 298.92C136.973 298.315 137.288 297.72 137.635 297.139C139.364 294.15 141.76 291.601 144.635 289.69C145.581 289.059 146.574 288.5 147.603 288.015C148.391 287.643 149.197 287.311 150.019 287.02C151.558 286.447 153.166 286.076 154.801 285.917C156.945 285.736 158.699 286.106 160.087 286.909C161.906 287.961 163.095 289.763 163.71 292.07C164.57 295.296 164.304 299.509 163.054 304.054Z" fill="#7B7DB5"/>
<path d="M138.885 325.388L138.636 325.299C138.995 324.29 139.389 323.218 139.806 322.11C140.601 320.004 141.429 317.944 142.264 315.987C143.397 313.323 144.608 310.694 145.864 308.173C148.093 303.666 150.625 299.314 153.441 295.148C155.428 292.223 157.616 289.44 159.989 286.819L160.185 286.998C157.82 289.61 155.64 292.383 153.66 295.297C150.85 299.453 148.325 303.795 146.101 308.292C144.848 310.808 143.639 313.432 142.508 316.09C141.674 318.044 140.848 320.101 140.054 322.204C139.637 323.31 139.244 324.381 138.885 325.388Z" fill="black"/>
<path d="M153.389 295.445L154.67 285.898L154.932 285.933L153.707 295.067L163.67 291.942L163.749 292.195L153.389 295.445Z" fill="black"/>
<path d="M145.862 308.4L144.501 289.697L144.765 289.678L146.103 308.068L163.023 303.926L163.086 304.184L145.862 308.4Z" fill="black"/>
<path d="M139.841 322.306L134.106 306.114L134.356 306.025L140.016 322.006L155.481 319.3L155.526 319.561L139.841 322.306Z" fill="black"/>
<path d="M134.626 325.395L133.281 322.161L133.418 322.159L133.536 322.109L134.871 325.293L134.626 325.395Z" fill="black"/>
<path d="M142.289 316.196L137.505 297.171L137.762 297.106L142.482 315.877L160.057 311.688L160.119 311.945L142.289 316.196Z" fill="black"/>
<path d="M101.829 328.029C121.453 328.029 137.361 324.846 137.361 320.92C137.361 316.994 121.453 313.812 101.829 313.812C82.2059 313.812 66.2979 316.994 66.2979 320.92C66.2979 324.846 82.2059 328.029 101.829 328.029Z" fill="#404396"/>
<path d="M369.12 275.004H198.765C197.309 275.004 196.128 276.185 196.128 277.642V304.205C196.128 305.662 197.309 306.843 198.765 306.843H369.12C370.577 306.843 371.757 305.662 371.757 304.205V277.642C371.757 276.185 370.577 275.004 369.12 275.004Z" fill="#47103D"/>
<path d="M327.626 206.339H188.875C187.375 206.339 186.158 207.556 186.158 209.057V301.057C186.158 302.558 187.375 303.774 188.875 303.774H327.626C329.127 303.774 330.343 302.558 330.343 301.057V209.057C330.343 207.556 329.127 206.339 327.626 206.339Z" fill="#9395D1"/>
<path d="M323.057 214.394H192.677V218.052H323.057V214.394Z" fill="#404396"/>
<path d="M194.74 290.348H182.944C181.966 290.348 181.173 291.141 181.173 292.12V303.92C181.173 304.898 181.966 305.692 182.944 305.692H194.74C195.719 305.692 196.512 304.898 196.512 303.92V292.12C196.512 291.141 195.719 290.348 194.74 290.348Z" fill="#47103D"/>
<path d="M333.172 234.416L333.758 300.057C333.767 301.151 334.206 302.198 334.98 302.972C335.753 303.745 336.8 304.184 337.893 304.193L422.39 304.891C422.94 304.896 423.486 304.791 423.996 304.584C424.506 304.376 424.97 304.07 425.361 303.682C425.752 303.294 426.062 302.833 426.274 302.324C426.485 301.816 426.594 301.271 426.594 300.72V294.521C426.594 293.973 426.487 293.43 426.277 292.924C426.067 292.418 425.76 291.958 425.373 291.571C424.986 291.184 424.526 290.876 424.02 290.667C423.514 290.457 422.972 290.349 422.424 290.349H376.112C375.372 290.349 374.646 290.153 374.008 289.78C373.37 289.407 372.842 288.87 372.479 288.226L340.975 232.331C338.858 228.575 333.134 230.106 333.172 234.416Z" fill="#47103D"/>
<path d="M332.644 217.847H370.99L390.93 252.371L421.608 275.387V290.348L333.026 288.046C333.026 288.046 332.644 232.424 332.644 217.847Z" fill="#404396"/>
<path d="M423.36 276.538H421.39C420.875 276.538 420.458 276.956 420.458 277.471V284.812C420.458 285.327 420.875 285.745 421.39 285.745H423.36C423.875 285.745 424.293 285.327 424.293 284.812V277.471C424.293 276.956 423.875 276.538 423.36 276.538Z" fill="#FF9E1D"/>
<path d="M379.044 257.839H340.696V226.384H366.772L381.344 252.469L379.044 257.839Z" fill="#D7E3FF"/>
<path d="M333.027 278.072L420.62 277.688L422.376 295.334L422.818 303.746L333.411 303.773L333.027 278.072Z" fill="#9395D1"/>
<path d="M224.887 327.941C237.594 327.941 247.895 317.636 247.895 304.924C247.895 292.213 237.594 281.908 224.887 281.908C212.18 281.908 201.879 292.213 201.879 304.924C201.879 317.636 212.18 327.941 224.887 327.941Z" fill="#404396"/>
<path d="M224.888 317.199C231.665 317.199 237.159 311.703 237.159 304.924C237.159 298.144 231.665 292.648 224.888 292.648C218.111 292.648 212.617 298.144 212.617 304.924C212.617 311.703 218.111 317.199 224.888 317.199Z" fill="#9395D1"/>
<path d="M387.479 327.174C400.186 327.174 410.487 316.869 410.487 304.158C410.487 291.446 400.186 281.142 387.479 281.142C374.772 281.142 364.471 291.446 364.471 304.158C364.471 316.869 374.772 327.174 387.479 327.174Z" fill="#404396"/>
<path d="M387.48 316.433C394.257 316.433 399.751 310.938 399.751 304.158C399.751 297.379 394.257 291.883 387.48 291.883C380.703 291.883 375.209 297.379 375.209 304.158C375.209 310.938 380.703 316.433 387.48 316.433Z" fill="#9395D1"/>
<path d="M381.58 245.85H381.107C379.12 245.85 377.509 247.461 377.509 249.449V258.362C377.509 260.349 379.12 261.961 381.107 261.961H381.58C383.567 261.961 385.178 260.349 385.178 258.362V249.449C385.178 247.461 383.567 245.85 381.58 245.85Z" fill="#47103D"/>
<path d="M342.931 300.565H290.469V326.9H342.931V300.565Z" fill="#E57D00"/>
<path d="M316.7 300.565H290.469V326.9H316.7V300.565Z" fill="#FFAA40"/>
<path d="M296.551 317.368H290.469V319.63H296.551V317.368Z" fill="#E57D00"/>
<path d="M342.931 304.442H336.849V306.22H342.931V304.442Z" fill="#FF9E1D"/>
<path d="M292.456 292.613H255.494V326.899H292.456V292.613Z" fill="#E57D00"/>
<path d="M273.975 292.613H255.494V326.899H273.975V292.613Z" fill="#FFAA40"/>
<path d="M259.78 314.488H255.494V317.433H259.78V314.488Z" fill="#E57D00"/>
<path d="M292.456 297.662H288.171V299.976H292.456V297.662Z" fill="#FF9E1D"/>
<path d="M327.432 277.697H292.457V300.659H327.432V277.697Z" fill="#E57D00"/>
<path d="M309.944 277.697H292.457V300.659H309.944V277.697Z" fill="#FFAA40"/>
<path d="M296.512 292.347H292.457V294.319H296.512V292.347Z" fill="#E57D00"/>
<path d="M327.431 281.077H323.376V282.627H327.431V281.077Z" fill="#FF9E1D"/>
<path d="M292.854 276.312H267.882V292.707H292.854V276.312Z" fill="#E57D00"/>
<path d="M280.368 276.312H267.882V292.707H280.368V276.312Z" fill="#FFAA40"/>
<path d="M270.777 286.772H267.882V288.181H270.777V286.772Z" fill="#E57D00"/>
<path d="M292.853 278.726H289.958V279.832H292.853V278.726Z" fill="#FF9E1D"/>
<path d="M119.011 124.18C119.011 124.18 126.121 149.538 146.804 139.695C167.487 129.852 173.659 143.555 190.338 136.856C207.017 130.157 193.716 103.344 169.595 108.703C145.474 114.061 158.185 86.0102 120.117 100.344C82.049 114.677 119.011 124.18 119.011 124.18Z" fill="white"/>
<path d="M306.648 110.174C306.648 110.174 268.824 98.2572 249.763 108.387C230.702 118.516 280.737 151.884 337.622 121.794C394.507 91.7027 306.648 110.174 306.648 110.174Z" fill="white"/>
<path d="M491.806 232.743C491.806 232.743 492.402 207.718 469.768 214.868C447.133 222.017 431.348 212.484 420.031 225.593C408.713 238.702 452.791 258.365 489.126 245.852C525.461 233.339 491.806 232.743 491.806 232.743Z" fill="white"/>
<path d="M28.884 224.524C28.884 224.524 63.4317 247.762 89.0446 233.164C114.658 218.566 126.571 230.781 135.209 218.268C143.846 205.754 117.637 190.56 91.4281 198.902C65.2194 207.244 64.6231 157.49 28.884 188.177C-6.85505 218.863 28.884 224.524 28.884 224.524Z" fill="white"/>
<path d="M388.268 198.472C388.116 198.489 387.961 198.462 387.823 198.394C387.686 198.325 387.571 198.218 387.493 198.086C386.868 197.027 386.233 195.965 385.606 194.927C385.551 194.838 385.514 194.738 385.497 194.635C385.48 194.531 385.484 194.425 385.509 194.322C385.534 194.22 385.578 194.124 385.64 194.039C385.702 193.954 385.781 193.883 385.871 193.828C385.96 193.774 386.06 193.738 386.164 193.722C386.268 193.707 386.374 193.712 386.476 193.738C386.578 193.763 386.674 193.809 386.758 193.872C386.842 193.935 386.913 194.014 386.966 194.104C387.597 195.147 388.234 196.214 388.862 197.276C388.929 197.39 388.967 197.519 388.972 197.652C388.977 197.785 388.948 197.916 388.889 198.035C388.83 198.154 388.743 198.256 388.634 198.332C388.526 198.408 388.4 198.457 388.268 198.472ZM131.47 226.67C131.268 226.693 131.065 226.638 130.902 226.516C130.74 226.393 130.63 226.214 130.596 226.013C130.589 225.974 130.433 225.041 130.247 223.415C130.145 222.531 130.055 221.608 129.977 220.671C129.96 220.461 130.027 220.252 130.163 220.091C130.299 219.93 130.494 219.83 130.704 219.812C130.915 219.795 131.123 219.862 131.284 219.998C131.445 220.135 131.545 220.329 131.563 220.54C131.639 221.46 131.728 222.367 131.827 223.234C132.008 224.814 132.163 225.738 132.165 225.747C132.2 225.955 132.151 226.169 132.029 226.341C131.907 226.513 131.721 226.629 131.513 226.664C131.499 226.667 131.484 226.669 131.47 226.67ZM383.599 190.791C383.45 190.809 383.299 190.783 383.164 190.718C383.028 190.653 382.914 190.551 382.834 190.423C381.894 188.923 380.938 187.424 379.991 185.967C379.933 185.879 379.893 185.781 379.873 185.678C379.853 185.575 379.854 185.469 379.875 185.366C379.897 185.264 379.938 185.166 379.997 185.079C380.056 184.993 380.132 184.919 380.22 184.862C380.308 184.804 380.407 184.765 380.51 184.746C380.613 184.727 380.719 184.729 380.821 184.751C380.924 184.773 381.021 184.815 381.107 184.875C381.193 184.935 381.267 185.011 381.323 185.1C382.275 186.565 383.237 188.071 384.182 189.579C384.253 189.693 384.294 189.823 384.302 189.957C384.309 190.091 384.283 190.224 384.225 190.345C384.167 190.466 384.079 190.571 383.97 190.649C383.861 190.727 383.734 190.776 383.6 190.791L383.599 190.791ZM130.572 216.088C130.549 216.091 130.526 216.093 130.502 216.093C130.398 216.096 130.294 216.078 130.196 216.041C130.099 216.003 130.009 215.947 129.934 215.875C129.858 215.804 129.797 215.717 129.754 215.622C129.712 215.527 129.689 215.424 129.686 215.319C129.638 213.518 129.641 211.715 129.695 209.962C129.697 209.857 129.719 209.752 129.761 209.655C129.803 209.558 129.864 209.471 129.94 209.398C130.017 209.325 130.107 209.268 130.205 209.23C130.304 209.192 130.409 209.174 130.515 209.177C130.62 209.181 130.724 209.205 130.82 209.249C130.917 209.293 131.003 209.355 131.075 209.433C131.146 209.511 131.202 209.602 131.238 209.701C131.274 209.801 131.289 209.906 131.284 210.012C131.231 211.734 131.228 213.506 131.275 215.277C131.281 215.475 131.211 215.669 131.081 215.819C130.951 215.969 130.769 216.065 130.572 216.088ZM377.821 181.905C377.677 181.922 377.531 181.899 377.398 181.838C377.266 181.777 377.153 181.681 377.072 181.561C376.08 180.094 375.071 178.63 374.072 177.209C373.951 177.037 373.903 176.823 373.939 176.615C373.975 176.408 374.093 176.223 374.265 176.101C374.437 175.98 374.651 175.932 374.859 175.968C375.067 176.004 375.251 176.122 375.373 176.294C376.377 177.723 377.392 179.195 378.389 180.67C378.466 180.783 378.512 180.914 378.523 181.05C378.534 181.187 378.51 181.323 378.453 181.447C378.396 181.572 378.308 181.679 378.197 181.759C378.087 181.839 377.957 181.89 377.821 181.905ZM130.914 205.479C130.796 205.492 130.677 205.479 130.565 205.441C130.453 205.402 130.35 205.339 130.266 205.256C130.181 205.173 130.116 205.072 130.076 204.961C130.035 204.849 130.02 204.73 130.031 204.612C130.207 202.789 130.445 200.999 130.741 199.292C130.777 199.084 130.894 198.899 131.066 198.778C131.239 198.656 131.452 198.608 131.66 198.644C131.868 198.68 132.053 198.797 132.174 198.97C132.296 199.142 132.344 199.356 132.308 199.564C132.019 201.232 131.785 202.982 131.614 204.765C131.597 204.946 131.518 205.116 131.39 205.245C131.263 205.375 131.095 205.458 130.914 205.479ZM371.722 173.238C371.583 173.254 371.442 173.233 371.313 173.177C371.185 173.12 371.073 173.031 370.99 172.918C369.94 171.487 368.874 170.065 367.821 168.691C367.757 168.608 367.711 168.514 367.684 168.413C367.657 168.312 367.65 168.207 367.663 168.103C367.677 168 367.711 167.9 367.763 167.809C367.815 167.719 367.885 167.64 367.968 167.576C368.05 167.513 368.145 167.466 368.246 167.439C368.347 167.412 368.452 167.405 368.555 167.419C368.659 167.432 368.759 167.466 368.849 167.519C368.94 167.571 369.019 167.64 369.082 167.723C370.142 169.105 371.215 170.536 372.272 171.976C372.355 172.089 372.406 172.221 372.421 172.359C372.437 172.497 372.416 172.637 372.36 172.765C372.305 172.893 372.216 173.003 372.105 173.086C371.993 173.169 371.861 173.222 371.722 173.238ZM132.749 195.037C132.62 195.052 132.49 195.035 132.369 194.988C132.248 194.94 132.141 194.864 132.057 194.766C131.972 194.668 131.913 194.551 131.884 194.424C131.855 194.298 131.857 194.167 131.891 194.041C132.354 192.304 132.914 190.593 133.567 188.917C133.605 188.819 133.661 188.729 133.733 188.653C133.806 188.577 133.892 188.516 133.988 188.474C134.084 188.431 134.188 188.408 134.293 188.406C134.398 188.404 134.502 188.423 134.6 188.461C134.698 188.499 134.787 188.557 134.862 188.63C134.938 188.703 134.998 188.79 135.04 188.886C135.081 188.983 135.103 189.086 135.105 189.191C135.106 189.296 135.086 189.401 135.047 189.498C134.416 191.119 133.876 192.773 133.427 194.454C133.386 194.608 133.299 194.746 133.178 194.85C133.057 194.954 132.907 195.019 132.749 195.037ZM365.271 164.829C365.138 164.844 365.003 164.826 364.878 164.774C364.754 164.723 364.645 164.642 364.56 164.537C363.454 163.159 362.325 161.787 361.205 160.46C361.069 160.299 361.003 160.09 361.021 159.88C361.038 159.67 361.139 159.475 361.3 159.339C361.462 159.203 361.67 159.137 361.881 159.154C362.091 159.172 362.285 159.273 362.421 159.434C363.549 160.771 364.686 162.153 365.801 163.541C365.89 163.651 365.948 163.784 365.968 163.925C365.988 164.066 365.971 164.209 365.917 164.341C365.863 164.472 365.774 164.587 365.661 164.673C365.548 164.758 365.414 164.812 365.272 164.828L365.271 164.829ZM136.653 185.203C136.508 185.22 136.361 185.196 136.229 185.134C136.096 185.073 135.983 184.975 135.902 184.854C135.821 184.732 135.775 184.59 135.769 184.444C135.764 184.298 135.799 184.153 135.87 184.025C136.752 182.444 137.764 180.938 138.894 179.523C138.959 179.441 139.04 179.373 139.132 179.322C139.223 179.271 139.324 179.239 139.428 179.227C139.532 179.216 139.638 179.225 139.739 179.254C139.839 179.283 139.933 179.332 140.015 179.398C140.096 179.464 140.164 179.545 140.215 179.637C140.265 179.729 140.296 179.83 140.307 179.934C140.318 180.038 140.309 180.144 140.279 180.244C140.249 180.345 140.2 180.438 140.133 180.52C139.058 181.866 138.096 183.298 137.257 184.803C137.195 184.913 137.108 185.007 137.003 185.076C136.898 185.146 136.779 185.189 136.653 185.203ZM358.435 156.73C358.308 156.745 358.18 156.729 358.061 156.683C357.941 156.638 357.835 156.564 357.75 156.469C356.573 155.144 355.376 153.832 354.192 152.572C354.12 152.496 354.064 152.407 354.027 152.309C353.99 152.211 353.973 152.107 353.976 152.003C353.98 151.898 354.003 151.796 354.046 151.7C354.089 151.605 354.151 151.519 354.227 151.448C354.303 151.376 354.392 151.321 354.49 151.284C354.587 151.247 354.691 151.229 354.796 151.233C354.9 151.236 355.003 151.26 355.098 151.303C355.193 151.346 355.279 151.407 355.35 151.483C356.544 152.755 357.752 154.076 358.938 155.412C359.035 155.521 359.1 155.654 359.126 155.797C359.153 155.94 359.139 156.088 359.087 156.224C359.035 156.36 358.947 156.479 358.832 156.568C358.717 156.658 358.58 156.714 358.435 156.73ZM143.285 177.018C143.116 177.037 142.944 177.002 142.797 176.917C142.649 176.831 142.532 176.701 142.464 176.544C142.397 176.388 142.381 176.213 142.42 176.047C142.458 175.881 142.549 175.732 142.68 175.621C144.066 174.446 145.565 173.411 147.155 172.533C147.34 172.431 147.557 172.406 147.76 172.465C147.963 172.523 148.134 172.66 148.236 172.844C148.338 173.029 148.362 173.247 148.304 173.449C148.245 173.652 148.109 173.823 147.924 173.925C146.426 174.753 145.014 175.727 143.708 176.834C143.589 176.936 143.441 177 143.285 177.018ZM174.981 171.376L174.5 171.286C174.066 171.205 173.637 171.128 173.213 171.057C173.109 171.041 173.009 171.004 172.919 170.949C172.829 170.894 172.751 170.822 172.69 170.737C172.628 170.651 172.584 170.554 172.56 170.452C172.536 170.349 172.533 170.243 172.55 170.139C172.568 170.035 172.606 169.936 172.662 169.847C172.718 169.758 172.791 169.681 172.877 169.62C172.963 169.56 173.061 169.517 173.163 169.494C173.266 169.472 173.373 169.47 173.476 169.489C173.754 169.535 174.034 169.584 174.315 169.635C174.702 169.144 175.458 168.201 176.568 166.886C176.635 166.807 176.717 166.741 176.81 166.693C176.903 166.645 177.004 166.616 177.108 166.607C177.213 166.598 177.317 166.61 177.417 166.642C177.516 166.674 177.609 166.725 177.688 166.792C177.768 166.859 177.834 166.942 177.882 167.035C177.93 167.128 177.959 167.229 177.968 167.333C177.976 167.437 177.965 167.542 177.933 167.642C177.901 167.741 177.85 167.833 177.783 167.913C176.16 169.833 175.288 170.976 175.279 170.987L174.981 171.376ZM168.179 170.398C168.127 170.404 168.075 170.405 168.023 170.4C166.29 170.255 164.551 170.201 162.812 170.238C162.707 170.242 162.602 170.225 162.503 170.188C162.404 170.151 162.314 170.095 162.237 170.022C162.161 169.95 162.099 169.864 162.056 169.767C162.013 169.671 161.99 169.567 161.987 169.462C161.985 169.357 162.003 169.252 162.042 169.154C162.08 169.056 162.137 168.966 162.211 168.89C162.284 168.815 162.371 168.754 162.468 168.713C162.565 168.671 162.669 168.649 162.774 168.648C164.569 168.609 166.364 168.665 168.153 168.815C168.35 168.831 168.534 168.92 168.669 169.064C168.804 169.208 168.88 169.397 168.883 169.595C168.887 169.792 168.816 169.984 168.686 170.132C168.556 170.281 168.375 170.375 168.179 170.398ZM152.472 171.92C152.276 171.942 152.079 171.891 151.919 171.776C151.759 171.661 151.647 171.491 151.605 171.299C151.563 171.106 151.594 170.905 151.692 170.734C151.79 170.563 151.948 170.435 152.135 170.374C153.852 169.815 155.611 169.396 157.395 169.119C157.603 169.086 157.816 169.138 157.987 169.262C158.157 169.387 158.272 169.574 158.304 169.782C158.337 169.991 158.286 170.204 158.161 170.374C158.037 170.545 157.85 170.659 157.642 170.692C155.942 170.955 154.266 171.354 152.63 171.886C152.579 171.903 152.526 171.914 152.472 171.92ZM351.179 149.011C351.06 149.024 350.939 149.011 350.826 148.971C350.713 148.932 350.61 148.867 350.525 148.782C349.276 147.528 348.005 146.29 346.747 145.103C346.669 145.032 346.606 144.946 346.562 144.851C346.517 144.755 346.493 144.651 346.489 144.546C346.485 144.44 346.502 144.335 346.539 144.237C346.576 144.138 346.632 144.048 346.705 143.971C346.777 143.894 346.864 143.832 346.96 143.79C347.056 143.747 347.16 143.724 347.266 143.721C347.371 143.719 347.476 143.738 347.574 143.776C347.672 143.815 347.762 143.873 347.837 143.946C349.108 145.144 350.391 146.393 351.652 147.659C351.757 147.765 351.831 147.898 351.864 148.044C351.897 148.19 351.888 148.342 351.839 148.483C351.79 148.624 351.702 148.748 351.585 148.842C351.468 148.935 351.328 148.994 351.179 149.011ZM180.766 164.192C180.606 164.21 180.443 164.18 180.301 164.103C180.158 164.027 180.042 163.909 179.968 163.766C179.895 163.622 179.866 163.459 179.887 163.299C179.908 163.139 179.977 162.988 180.086 162.869C181.256 161.573 182.479 160.26 183.72 158.964C183.792 158.889 183.878 158.828 183.974 158.786C184.07 158.744 184.173 158.722 184.277 158.719C184.381 158.717 184.485 158.736 184.582 158.774C184.68 158.811 184.769 158.868 184.844 158.94C184.919 159.013 184.98 159.099 185.022 159.195C185.064 159.29 185.087 159.393 185.089 159.498C185.091 159.602 185.073 159.706 185.035 159.803C184.997 159.901 184.94 159.99 184.868 160.065C183.638 161.349 182.425 162.651 181.265 163.935C181.135 164.079 180.957 164.17 180.765 164.191L180.766 164.192ZM343.469 141.745C343.359 141.757 343.247 141.747 343.141 141.713C343.034 141.68 342.936 141.625 342.853 141.551C341.527 140.382 340.176 139.233 338.839 138.138C338.676 138.004 338.572 137.811 338.551 137.601C338.531 137.391 338.594 137.182 338.728 137.019C338.861 136.855 339.054 136.752 339.264 136.731C339.474 136.71 339.683 136.774 339.846 136.907C341.198 138.015 342.563 139.176 343.904 140.358C344.019 140.459 344.103 140.592 344.144 140.741C344.186 140.889 344.183 141.046 344.137 141.193C344.091 141.339 344.004 141.47 343.885 141.568C343.766 141.666 343.622 141.727 343.469 141.745ZM188.11 156.52C187.946 156.539 187.78 156.506 187.635 156.426C187.49 156.346 187.374 156.223 187.302 156.074C187.231 155.925 187.207 155.757 187.236 155.594C187.264 155.431 187.343 155.28 187.46 155.164C188.719 153.921 190.012 152.678 191.303 151.469C191.379 151.396 191.468 151.34 191.567 151.302C191.665 151.264 191.769 151.246 191.874 151.249C191.979 151.252 192.083 151.276 192.179 151.319C192.274 151.362 192.361 151.424 192.432 151.501C192.504 151.578 192.56 151.668 192.597 151.766C192.634 151.865 192.65 151.97 192.646 152.075C192.642 152.18 192.617 152.283 192.573 152.378C192.529 152.474 192.467 152.559 192.389 152.63C191.108 153.829 189.826 155.062 188.578 156.295C188.452 156.421 188.287 156.5 188.11 156.52ZM335.271 135.033C335.069 135.056 334.864 135 334.701 134.877C333.292 133.811 331.859 132.77 330.441 131.785C330.353 131.726 330.277 131.651 330.219 131.563C330.161 131.475 330.12 131.376 330.101 131.272C330.081 131.168 330.082 131.061 330.104 130.958C330.126 130.855 330.168 130.757 330.228 130.67C330.289 130.583 330.366 130.509 330.455 130.452C330.544 130.396 330.643 130.357 330.747 130.339C330.852 130.322 330.958 130.325 331.061 130.349C331.164 130.372 331.261 130.417 331.347 130.478C332.783 131.475 334.235 132.528 335.661 133.608C335.788 133.704 335.883 133.836 335.934 133.986C335.985 134.137 335.99 134.299 335.948 134.452C335.906 134.606 335.819 134.743 335.699 134.846C335.578 134.95 335.429 135.015 335.271 135.033ZM195.862 149.266C195.694 149.286 195.524 149.251 195.377 149.167C195.23 149.083 195.114 148.955 195.045 148.8C194.976 148.646 194.958 148.473 194.993 148.308C195.029 148.143 195.117 147.993 195.244 147.881C196.574 146.702 197.933 145.532 199.282 144.403C199.444 144.272 199.651 144.21 199.859 144.23C200.067 144.25 200.258 144.351 200.392 144.512C200.526 144.672 200.591 144.878 200.574 145.086C200.558 145.294 200.46 145.487 200.302 145.623C198.963 146.743 197.616 147.904 196.298 149.072C196.176 149.18 196.024 149.248 195.862 149.266ZM326.567 128.996C326.387 129.017 326.206 128.975 326.053 128.879C324.563 127.938 323.045 127.028 321.542 126.175C321.45 126.124 321.369 126.055 321.304 125.973C321.239 125.89 321.191 125.796 321.162 125.694C321.134 125.593 321.126 125.487 321.138 125.383C321.151 125.279 321.184 125.178 321.236 125.087C321.288 124.995 321.357 124.915 321.44 124.851C321.523 124.786 321.618 124.739 321.72 124.712C321.821 124.684 321.927 124.677 322.031 124.691C322.135 124.705 322.236 124.739 322.327 124.791C323.851 125.658 325.39 126.579 326.901 127.533C327.041 127.621 327.149 127.75 327.212 127.903C327.275 128.055 327.289 128.223 327.252 128.383C327.215 128.544 327.13 128.689 327.007 128.799C326.884 128.908 326.731 128.977 326.567 128.996ZM204.001 142.456C203.829 142.476 203.656 142.439 203.506 142.351C203.357 142.263 203.241 142.129 203.175 141.969C203.109 141.809 203.097 141.632 203.141 141.464C203.184 141.297 203.282 141.148 203.418 141.041C204.818 139.937 206.242 138.847 207.651 137.803C207.735 137.741 207.831 137.696 207.932 137.67C208.033 137.645 208.139 137.64 208.242 137.655C208.345 137.671 208.444 137.707 208.534 137.76C208.624 137.814 208.702 137.885 208.764 137.969C208.826 138.053 208.871 138.148 208.896 138.25C208.922 138.351 208.927 138.457 208.911 138.56C208.896 138.663 208.86 138.763 208.806 138.852C208.753 138.942 208.682 139.02 208.598 139.082C207.201 140.117 205.79 141.196 204.402 142.291C204.287 142.382 204.148 142.439 204.001 142.456ZM212.527 136.141C212.351 136.161 212.173 136.122 212.021 136.03C211.87 135.937 211.754 135.797 211.691 135.631C211.629 135.465 211.623 135.283 211.676 135.114C211.729 134.944 211.837 134.798 211.983 134.697C213.449 133.68 214.94 132.682 216.413 131.732C216.501 131.674 216.599 131.633 216.703 131.613C216.806 131.594 216.913 131.594 217.016 131.616C217.119 131.637 217.217 131.679 217.303 131.739C217.39 131.799 217.464 131.875 217.521 131.963C217.578 132.052 217.617 132.151 217.636 132.255C217.654 132.358 217.652 132.465 217.629 132.568C217.606 132.67 217.563 132.768 217.502 132.854C217.442 132.94 217.364 133.013 217.275 133.069C215.816 134.009 214.341 134.997 212.888 136.004C212.781 136.079 212.657 136.126 212.527 136.141ZM317.356 123.772C317.203 123.79 317.047 123.762 316.909 123.692C315.338 122.9 313.739 122.145 312.157 121.448C311.968 121.361 311.82 121.203 311.747 121.008C311.673 120.813 311.678 120.597 311.762 120.406C311.846 120.215 312.002 120.065 312.196 119.988C312.389 119.91 312.605 119.912 312.798 119.993C314.405 120.7 316.029 121.467 317.624 122.271C317.777 122.348 317.901 122.473 317.978 122.626C318.055 122.779 318.08 122.953 318.05 123.122C318.02 123.29 317.936 123.445 317.811 123.562C317.686 123.679 317.527 123.753 317.356 123.772ZM221.441 130.393C221.261 130.414 221.078 130.372 220.925 130.275C220.771 130.177 220.655 130.03 220.597 129.858C220.539 129.685 220.541 129.498 220.604 129.328C220.667 129.157 220.787 129.013 220.943 128.92C222.476 128.005 224.033 127.114 225.571 126.272C225.663 126.222 225.764 126.19 225.867 126.179C225.971 126.167 226.076 126.177 226.177 126.206C226.277 126.235 226.37 126.284 226.452 126.349C226.533 126.415 226.601 126.496 226.651 126.587C226.701 126.679 226.733 126.779 226.744 126.883C226.755 126.987 226.746 127.092 226.717 127.192C226.688 127.293 226.639 127.386 226.573 127.468C226.508 127.549 226.427 127.617 226.336 127.667C224.815 128.5 223.274 129.381 221.758 130.286C221.661 130.343 221.553 130.38 221.441 130.393ZM307.664 119.509C307.539 119.523 307.412 119.508 307.294 119.463C305.653 118.845 303.984 118.27 302.33 117.753C302.129 117.69 301.961 117.55 301.863 117.363C301.765 117.176 301.746 116.958 301.808 116.757C301.871 116.556 302.011 116.387 302.198 116.29C302.385 116.192 302.603 116.172 302.804 116.235C304.486 116.761 306.186 117.346 307.854 117.974C308.021 118.037 308.163 118.155 308.255 118.307C308.347 118.46 308.386 118.64 308.364 118.817C308.342 118.994 308.261 119.159 308.134 119.284C308.007 119.41 307.842 119.489 307.664 119.509ZM230.744 125.304C230.558 125.326 230.37 125.281 230.214 125.178C230.058 125.074 229.943 124.919 229.89 124.74C229.837 124.56 229.849 124.368 229.923 124.196C229.998 124.024 230.131 123.885 230.299 123.802C231.9 123.005 233.523 122.239 235.123 121.524C235.316 121.438 235.534 121.432 235.731 121.507C235.928 121.582 236.087 121.733 236.173 121.926C236.259 122.118 236.265 122.337 236.19 122.534C236.115 122.731 235.964 122.89 235.772 122.976C234.191 123.682 232.589 124.439 231.007 125.226C230.925 125.267 230.835 125.294 230.744 125.304ZM297.559 116.352C297.465 116.363 297.369 116.357 297.277 116.334C295.581 115.911 293.856 115.536 292.149 115.219C291.941 115.18 291.758 115.061 291.638 114.887C291.519 114.713 291.474 114.499 291.512 114.291C291.551 114.084 291.67 113.9 291.844 113.781C292.018 113.661 292.232 113.616 292.439 113.654C294.178 113.978 295.934 114.36 297.661 114.791C297.842 114.836 298.001 114.943 298.111 115.094C298.221 115.244 298.275 115.429 298.262 115.615C298.25 115.801 298.173 115.976 298.045 116.111C297.916 116.246 297.744 116.331 297.559 116.352ZM240.423 120.984C240.231 121.007 240.038 120.959 239.879 120.849C239.72 120.739 239.606 120.575 239.56 120.387C239.513 120.2 239.536 120.001 239.625 119.83C239.713 119.658 239.861 119.524 240.041 119.454C241.704 118.797 243.389 118.176 245.049 117.608C245.248 117.542 245.465 117.557 245.653 117.65C245.841 117.744 245.985 117.907 246.052 118.106C246.12 118.304 246.107 118.521 246.015 118.71C245.924 118.899 245.762 119.044 245.564 119.113C243.927 119.674 242.265 120.286 240.624 120.933C240.56 120.959 240.492 120.976 240.423 120.984ZM287.15 114.418C287.088 114.425 287.025 114.425 286.962 114.417C285.232 114.204 283.475 114.043 281.737 113.934C281.526 113.921 281.329 113.825 281.19 113.667C281.05 113.509 280.979 113.302 280.992 113.091C281.005 112.881 281.101 112.684 281.259 112.544C281.417 112.405 281.624 112.334 281.834 112.346C283.604 112.456 285.395 112.621 287.157 112.838C287.35 112.862 287.528 112.956 287.656 113.102C287.785 113.248 287.856 113.436 287.855 113.631C287.854 113.826 287.782 114.013 287.652 114.158C287.523 114.303 287.344 114.396 287.15 114.418ZM250.45 117.56C250.251 117.582 250.052 117.53 249.891 117.412C249.73 117.294 249.619 117.121 249.58 116.925C249.541 116.729 249.577 116.526 249.681 116.356C249.784 116.185 249.948 116.06 250.14 116.005C251.858 115.51 253.596 115.058 255.307 114.66C255.409 114.636 255.515 114.633 255.618 114.65C255.721 114.667 255.819 114.704 255.908 114.759C255.996 114.815 256.073 114.887 256.134 114.972C256.195 115.057 256.238 115.153 256.262 115.254C256.286 115.356 256.289 115.462 256.272 115.565C256.255 115.668 256.218 115.766 256.162 115.855C256.107 115.944 256.035 116.02 255.95 116.081C255.865 116.142 255.769 116.185 255.668 116.209C253.983 116.601 252.271 117.047 250.58 117.534C250.538 117.546 250.494 117.554 250.451 117.559L250.45 117.56ZM276.582 113.766C276.552 113.77 276.521 113.771 276.49 113.771C274.754 113.77 272.989 113.822 271.243 113.926C271.033 113.939 270.826 113.867 270.668 113.727C270.51 113.587 270.415 113.39 270.402 113.179C270.39 112.969 270.461 112.762 270.601 112.604C270.741 112.446 270.938 112.351 271.149 112.338C272.926 112.233 274.723 112.18 276.492 112.18C276.695 112.18 276.891 112.257 277.039 112.397C277.186 112.536 277.275 112.727 277.287 112.93C277.299 113.133 277.232 113.332 277.101 113.488C276.97 113.643 276.785 113.743 276.583 113.766L276.582 113.766ZM260.767 115.164C260.558 115.194 260.346 115.14 260.177 115.014C260.008 114.888 259.896 114.699 259.866 114.49C259.836 114.282 259.89 114.069 260.016 113.9C260.142 113.731 260.33 113.619 260.539 113.589C262.298 113.279 264.076 113.018 265.826 112.811L265.828 112.81C266.038 112.786 266.248 112.846 266.414 112.977C266.579 113.108 266.686 113.299 266.71 113.508C266.735 113.718 266.675 113.928 266.544 114.094C266.413 114.259 266.222 114.366 266.012 114.39C264.293 114.594 262.544 114.851 260.815 115.156C260.8 115.159 260.784 115.161 260.768 115.163L260.767 115.164Z" fill="#7B7DB5"/>
<path d="M180.869 157.389C180.573 164.059 173.888 171.489 173.888 171.489C173.888 171.489 167.569 164.278 167.252 157.389C167.04 152.78 170.3 150.113 174.06 150.113C177.821 150.113 181.044 153.427 180.869 157.389Z" fill="#31AAB7" fill-opacity="0.3"/>
<path d="M174.042 161.469C176.338 161.469 178.2 159.606 178.2 157.309C178.2 155.011 176.338 153.148 174.042 153.148C171.745 153.148 169.883 155.011 169.883 157.309C169.883 159.606 171.745 161.469 174.042 161.469Z" fill="#31AAB7"/>
<path d="M188.12 257.346L184.718 265.33L185.205 265.538L188.607 257.554L188.12 257.346Z" fill="#19274A"/>
<path d="M187.942 211.858L182.806 211.469L178.234 211.53L175.292 212.386C175.292 212.386 176.514 217.526 180.313 218.001C184.112 218.476 187.379 215.81 187.942 211.858Z" fill="#5A174A"/>
<path d="M143.038 324.17H154.086C154.014 323.01 153.577 321.902 152.84 321.003C152.102 320.104 151.1 319.461 149.976 319.163C148.852 318.866 147.663 318.93 146.578 319.347C145.493 319.763 144.566 320.511 143.929 321.484C143.835 321.627 143.748 321.776 143.667 321.926L143.643 321.973C143.29 322.655 143.084 323.404 143.038 324.17Z" fill="white"/>
<path d="M208.554 280.309C207.883 283.573 199.604 312.121 199.604 312.121C199.604 312.121 197.896 311.703 197.889 311.7L192.717 310.263C192.717 310.256 190.938 309.766 190.941 309.758C191.05 309.128 193.54 299.51 194.764 291.864C195.575 286.797 196.718 280.818 196.718 280.818L192.318 275.062V275.058L184.96 265.434V265.43L187.44 259.514C189.348 255.168 190.953 251.919 191.415 250.997L193.556 250.9L197.326 250.729C197.326 250.729 199.317 255.134 201.625 260.562C204.96 268.401 208.954 278.376 208.554 280.309Z" fill="#404396"/>
<path d="M201.58 260.824C201.348 260.782 195.879 259.693 193.305 250.976L193.813 250.825C196.289 259.209 201.621 260.293 201.675 260.303L201.58 260.824Z" fill="#19274A"/>
<path d="M196.928 280.663L196.504 280.981L198.04 283.03L198.464 282.712L196.928 280.663Z" fill="#19274A"/>
<path d="M165.426 288.149C166.388 285.585 166.353 272.817 166.174 263.065C166.055 256.625 165.873 251.5 165.873 251.5L175.087 251.224L191.416 250.997C190.954 251.92 189.349 255.17 187.443 259.516C186.763 261.065 186.045 262.754 185.327 264.526C185.204 264.828 184.963 265.435 184.963 265.435C180.394 276.951 176.71 289.469 172.795 295.258C169.899 299.541 157.07 315.769 157.07 315.769L148.691 309.771C148.691 309.771 164.678 290.138 165.426 288.149Z" fill="#404396"/>
<path d="M166.232 263.324L166.115 262.807C168.028 262.376 172.685 260.478 174.624 252.18L174.826 251.173L175.346 251.277L175.142 252.293C174.658 254.396 173.853 256.413 172.755 258.271C171.062 261.03 168.867 262.73 166.232 263.324Z" fill="#19274A"/>
<path d="M192.388 312.317L196.888 313.979L197.901 311.706L197.889 311.703L192.718 310.265C192.647 310.954 192.536 311.64 192.388 312.317Z" fill="#FD8680"/>
<path d="M191.172 319.227L198.33 323.588L203.358 326.651C203.87 326.29 204.273 325.795 204.521 325.219L198.696 321.616C198.945 321.032 199.313 320.505 199.776 320.069C200.238 319.633 200.786 319.297 201.384 319.083C200.917 318.834 200.344 318.54 199.753 318.259C199.641 318.206 199.528 318.151 199.415 318.1C199.415 318.1 198.213 319.38 197.663 319.21C197.264 319.071 196.882 318.886 196.525 318.659C196.264 318.514 196.034 318.319 195.847 318.085C195.563 317.634 196.057 315.768 196.057 315.768C196.03 315.086 196.887 313.978 196.887 313.978L192.387 312.315L190.955 316.828L190.925 316.923L190.593 317.64C190.526 317.782 190.488 317.936 190.482 318.093C190.475 318.249 190.499 318.406 190.553 318.553C190.607 318.701 190.689 318.836 190.795 318.952C190.901 319.067 191.029 319.161 191.172 319.227Z" fill="#9395D1"/>
<path d="M195.848 318.086C196.035 318.32 196.265 318.515 196.526 318.66C196.561 318.647 196.594 318.631 196.626 318.612C196.626 318.611 196.628 318.611 196.629 318.61C196.646 318.6 196.662 318.589 196.678 318.577C196.764 318.512 196.839 318.435 196.903 318.348C196.916 318.33 196.929 318.313 196.942 318.295C196.975 318.247 197.006 318.197 197.037 318.144C197.053 318.118 197.068 318.091 197.082 318.065C197.117 318 197.15 317.936 197.18 317.87C197.2 317.829 197.219 317.788 197.237 317.745C197.256 317.702 197.274 317.662 197.29 317.621C197.307 317.579 197.324 317.539 197.34 317.499C197.373 317.42 197.404 317.343 197.433 317.271C197.448 317.236 197.462 317.202 197.476 317.169C197.478 317.163 197.481 317.157 197.485 317.151C197.492 317.133 197.498 317.117 197.506 317.1C197.524 317.064 197.54 317.03 197.555 317C197.068 316.761 196.611 316.466 196.193 316.119C196.105 316.025 196.056 315.9 196.057 315.771C196.057 315.771 195.564 317.636 195.848 318.086Z" fill="#19274A"/>
<path d="M196.525 318.659C196.882 318.887 197.264 319.072 197.663 319.211C198.213 319.38 199.415 318.1 199.415 318.1C198.853 317.838 198.058 317.229 197.588 317.013C197.577 317.008 197.566 317.003 197.554 316.997C197.539 317.027 197.523 317.061 197.505 317.097C197.498 317.114 197.492 317.13 197.484 317.147C197.481 317.153 197.478 317.16 197.475 317.166C197.463 317.199 197.449 317.233 197.433 317.268C197.404 317.339 197.373 317.416 197.34 317.496C197.324 317.536 197.307 317.576 197.29 317.618C197.272 317.66 197.255 317.7 197.237 317.742C197.219 317.783 197.199 317.826 197.179 317.867C197.149 317.932 197.117 317.997 197.081 318.061C197.068 318.088 197.052 318.114 197.036 318.141C197.006 318.194 196.975 318.244 196.941 318.292C196.928 318.31 196.915 318.328 196.902 318.345C196.839 318.432 196.764 318.509 196.678 318.574C196.662 318.586 196.646 318.597 196.629 318.606C196.629 318.606 196.627 318.606 196.625 318.609C196.594 318.629 196.56 318.646 196.525 318.659Z" fill="#19274A"/>
<path d="M191.172 319.226L198.33 323.587L203.358 326.65C203.871 326.29 204.273 325.794 204.521 325.219L198.696 321.616L190.955 316.829L190.925 316.923L190.593 317.64C190.527 317.782 190.489 317.936 190.483 318.093C190.476 318.25 190.5 318.406 190.554 318.553C190.608 318.701 190.69 318.836 190.796 318.951C190.902 319.067 191.03 319.16 191.172 319.226Z" fill="#19274A"/>
<path d="M198.696 321.616L204.521 325.219C204.751 324.723 204.881 324.187 204.904 323.641C204.927 323.095 204.843 322.55 204.655 322.037C204.467 321.524 204.18 321.053 203.81 320.65C203.441 320.248 202.995 319.923 202.5 319.693C202.5 319.693 202.046 319.435 201.384 319.083C200.786 319.298 200.239 319.633 199.776 320.069C199.314 320.505 198.946 321.032 198.696 321.616Z" fill="white"/>
<path d="M143.929 321.485C144.566 320.512 145.492 319.764 146.578 319.347C147.663 318.93 148.852 318.866 149.976 319.163C151.101 319.461 152.102 320.104 152.84 321.003C153.578 321.902 154.014 323.011 154.086 324.172L153.809 315.965L148.562 312.571L143.667 321.929C143.746 321.776 143.835 321.628 143.929 321.485ZM151.551 316.718L149.472 315.518C149.417 315.487 149.37 315.445 149.331 315.395C149.293 315.345 149.265 315.288 149.248 315.227C149.232 315.166 149.228 315.102 149.236 315.04C149.245 314.977 149.265 314.917 149.296 314.863L149.521 314.474C149.552 314.419 149.594 314.371 149.644 314.333C149.694 314.295 149.751 314.267 149.812 314.25C149.873 314.234 149.937 314.23 149.999 314.238C150.062 314.246 150.122 314.267 150.176 314.298L152.254 315.498C152.364 315.561 152.445 315.666 152.478 315.789C152.511 315.912 152.494 316.043 152.431 316.154L152.206 316.542C152.175 316.597 152.133 316.645 152.083 316.683C152.033 316.721 151.976 316.75 151.915 316.766C151.854 316.782 151.791 316.786 151.728 316.778C151.666 316.77 151.605 316.749 151.551 316.718ZM148.547 316.406L148.771 316.017C148.835 315.907 148.94 315.826 149.063 315.794C149.186 315.761 149.317 315.778 149.427 315.842L151.506 317.041C151.616 317.105 151.696 317.21 151.729 317.334C151.762 317.457 151.745 317.588 151.681 317.698L151.457 318.086C151.393 318.196 151.288 318.276 151.166 318.309C151.043 318.342 150.912 318.325 150.801 318.261L148.722 317.061C148.613 316.997 148.532 316.893 148.499 316.77C148.467 316.647 148.484 316.516 148.547 316.406Z" fill="#9395D1"/>
<path d="M148.723 317.062L150.802 318.262C150.912 318.325 151.043 318.343 151.166 318.31C151.289 318.277 151.394 318.197 151.457 318.086L151.681 317.699C151.745 317.589 151.762 317.457 151.729 317.334C151.696 317.211 151.616 317.106 151.506 317.042L149.427 315.843C149.317 315.779 149.186 315.762 149.063 315.795C148.94 315.828 148.835 315.908 148.771 316.018L148.547 316.407C148.484 316.517 148.467 316.648 148.5 316.771C148.533 316.893 148.613 316.998 148.723 317.062Z" fill="#19274A"/>
<path d="M149.47 315.519L151.549 316.718C151.604 316.75 151.664 316.77 151.727 316.779C151.789 316.787 151.852 316.783 151.913 316.766C151.974 316.75 152.031 316.722 152.081 316.684C152.131 316.645 152.173 316.597 152.205 316.543L152.429 316.154C152.492 316.044 152.509 315.913 152.476 315.79C152.443 315.667 152.363 315.562 152.252 315.498L150.175 314.299C150.12 314.267 150.06 314.247 149.997 314.239C149.935 314.23 149.871 314.234 149.81 314.251C149.75 314.267 149.693 314.295 149.642 314.334C149.592 314.372 149.551 314.42 149.519 314.474L149.295 314.863C149.263 314.918 149.243 314.978 149.235 315.04C149.226 315.103 149.23 315.166 149.247 315.227C149.263 315.288 149.291 315.345 149.33 315.395C149.368 315.445 149.416 315.487 149.47 315.519Z" fill="#19274A"/>
<path d="M152.589 326.228H144.537C144.34 326.228 144.145 326.189 143.964 326.113C143.782 326.038 143.617 325.928 143.478 325.789C143.339 325.649 143.228 325.484 143.153 325.302C143.078 325.121 143.039 324.926 143.039 324.729V324.172H154.087V324.729C154.087 325.126 153.929 325.508 153.648 325.789C153.367 326.07 152.986 326.228 152.589 326.228Z" fill="#19274A"/>
<path d="M160.161 242.002C160.853 242.908 163.267 243.53 166.334 243.957L165.671 252.591C170.942 252.591 197.595 254.897 198.055 254.436C198.273 254.219 198.565 248.769 198.811 243.08C203.42 243.283 221.655 244.087 222.862 244.087C224.246 244.087 224.092 240.397 223.719 239.342C223.343 238.275 209.504 234.514 206.81 233.791C204.37 227.637 199.437 215.294 198.747 214.34C198.281 213.696 195.526 213.067 192.915 212.604C190.36 212.153 187.942 211.856 187.942 211.856C184.351 219.569 178.552 219.173 175.291 212.384C175.291 212.384 173.697 212.814 171.657 213.458C168.609 214.42 164.569 215.859 163.365 217.063C160.926 219.506 157.746 238.838 160.161 242.002Z" fill="#9395D1"/>
<path d="M206.743 234.047L206.291 233.926L206.426 233.414L206.881 233.536L206.743 234.047Z" fill="#19274A"/>
<path d="M199.077 243.09L198.547 243.068C198.819 236.778 199.04 230.107 199.042 230.04L199.573 230.058C199.571 230.124 199.349 236.798 199.077 243.09Z" fill="#19274A"/>
<path d="M207.924 237.331C207.924 237.331 207.385 235.961 206.564 233.891L207.057 233.695C207.879 235.766 208.418 237.137 208.418 237.137L207.924 237.331Z" fill="#19274A"/>
<path d="M184.07 245.146C181.319 245.146 172.451 245.075 166.298 244.218L166.371 243.693C173.034 244.621 182.915 244.621 184.647 244.614V240.623C180.012 238.838 169.655 234.825 169.307 234.476C169.018 234.188 168.992 231.894 169.23 227.66L169.76 227.69C169.601 230.521 169.537 233.655 169.698 234.112C170.313 234.483 179.157 237.941 185.008 240.193L185.178 240.259V245.14L184.916 245.142C184.897 245.143 184.594 245.146 184.07 245.146Z" fill="#19274A"/>
<path d="M191.789 249.529L191.543 249.059C193 248.296 195.425 246.971 195.728 246.668L196.103 247.043C195.643 247.503 192.182 249.323 191.789 249.529Z" fill="#19274A"/>
<path d="M170.393 246.049L170.043 246.447L173.502 249.496L173.852 249.098L170.393 246.049Z" fill="#19274A"/>
<path d="M178.235 206.374C178.334 206.361 178.437 206.342 178.542 206.317C179.133 207.224 181.076 210.016 183.011 210.641C183.303 210.741 183.612 210.781 183.92 210.759C189.18 210.318 188.413 203.619 188.162 202.062C188.021 202.136 188.249 202.698 187.869 202.614C186.933 202.405 184.856 200.683 184.762 200.604C184.408 200.745 184.058 200.887 183.714 201.031C182.804 201.41 181.931 201.803 181.095 202.209C180.369 202.561 179.674 202.924 179.01 203.298C178.568 203 177.673 202.497 176.841 202.64C176.56 202.687 176.298 202.811 176.085 202.998C176.051 203.025 176.019 203.056 175.987 203.088C175.093 203.982 175.748 206.718 178.235 206.374Z" fill="#FD8680"/>
<path d="M184.612 200.825L184.571 200.791L184.759 200.603L184.912 200.387L184.775 200.588L184.947 200.416L184.775 200.588L184.612 200.825Z" fill="#2DEA43"/>
<path d="M184.763 200.605C184.857 200.683 186.934 202.405 187.869 202.615C188.25 202.7 188.021 202.138 188.162 202.063C188.734 201.759 190.249 203.949 190.541 203.387C190.833 202.824 188.702 201.255 188.98 200.741C189.377 200.003 192.311 201.934 192.311 201.158C192.311 200.011 188.878 199.517 188.011 199.408C187.481 199.59 186.96 199.775 186.447 199.961C185.875 200.172 185.313 200.387 184.763 200.605Z" fill="#8E3332"/>
<path d="M176.841 202.64C177.673 202.497 178.568 203.001 179.01 203.298C179.674 202.925 180.369 202.562 181.095 202.209C180.654 201.308 179.892 200.078 179.459 199.396C178.069 200.331 176.991 201.443 176.841 202.64Z" fill="#9395D1"/>
<path d="M185.156 196.843C185.655 197.853 186.086 198.896 186.447 199.963C186.959 199.776 187.48 199.592 188.011 199.41C188.011 199.41 187.447 196.925 186.536 196.645C186.297 196.613 186.054 196.629 185.821 196.69C185.626 196.726 185.403 196.777 185.156 196.843Z" fill="#404396"/>
<path d="M182.337 197.849C182.85 198.886 183.309 199.948 183.713 201.032C184.057 200.888 184.407 200.746 184.762 200.605C185.312 200.388 185.874 200.174 186.448 199.963C186.087 198.896 185.655 197.854 185.157 196.844C184.194 197.11 183.251 197.446 182.337 197.849Z" fill="#9395D1"/>
<path d="M179.458 199.395C179.892 200.077 180.653 201.307 181.095 202.209C181.929 201.802 182.802 201.41 183.713 201.031C183.309 199.947 182.85 198.884 182.337 197.848C181.333 198.277 180.37 198.795 179.458 199.395Z" fill="#404396"/>
<path d="M176.084 202.998C176.298 202.811 176.56 202.687 176.84 202.64C176.99 201.443 178.068 200.331 179.458 199.396C180.37 198.796 181.333 198.278 182.337 197.848C183.251 197.445 184.194 197.11 185.157 196.843C185.404 196.777 185.627 196.726 185.819 196.69C185.4 196.034 183.86 193.983 181.087 194.138C179.928 194.191 178.8 194.531 177.805 195.128C177.298 195.435 176.835 195.811 176.43 196.244C175.497 197.204 174.922 198.455 174.801 199.788C174.764 200.585 175.706 202.333 176.084 202.998ZM179.339 196.867C179.339 196.46 181.15 195.794 181.421 195.68C181.692 195.565 182.366 196.104 182.398 196.377C182.451 196.839 180.463 197.97 180.141 198.012C179.818 198.054 179.339 197.273 179.339 196.867V196.867Z" fill="#404396"/>
<path d="M176.432 196.244C176.837 195.811 177.3 195.435 177.807 195.128C177.732 195.021 177.636 194.931 177.524 194.863C177.413 194.795 177.288 194.752 177.159 194.735C177.029 194.719 176.898 194.729 176.772 194.766C176.647 194.803 176.531 194.866 176.432 194.951C175.612 195.534 176.432 196.244 176.432 196.244Z" fill="#9395D1"/>
<path d="M179.339 196.868C179.339 197.274 179.817 198.055 180.141 198.013C180.464 197.972 182.452 196.84 182.398 196.378C182.366 196.106 181.692 195.566 181.421 195.681C181.15 195.796 179.339 196.461 179.339 196.868Z" fill="#FEFEFE"/>
<path d="M178.15 204.955C177.992 204.751 177.774 204.601 177.527 204.525C177.28 204.449 177.015 204.451 176.77 204.531L176.594 204.031C176.946 203.913 177.326 203.908 177.681 204.016C178.036 204.125 178.348 204.341 178.574 204.636L178.15 204.954L178.362 204.795L178.15 204.955Z" fill="#CC5754"/>
<path d="M178.234 206.374V211.53C179.498 214.094 181.122 215.011 183.107 214.28L183.01 210.641C181.075 210.016 179.132 207.225 178.541 206.317C178.436 206.342 178.334 206.361 178.234 206.374Z" fill="#FD8680"/>
<path d="M183.01 210.642C181.922 210.291 180.831 209.253 179.979 208.252C179.979 208.252 180.234 210.767 183.107 212.343L183.01 210.642H183.01Z" fill="#CC5754"/>
<path d="M222.489 239.009C222.489 239.009 228.297 237.677 228.101 238.217C227.906 238.756 226.114 239.197 226.114 239.197L226.579 240.059C226.579 240.059 230.766 240.774 230.812 241.369C230.858 241.964 227.238 241.354 227.238 241.354C227.238 241.354 230.252 242.312 230.548 243.037C230.843 243.762 227.023 242.643 227.023 242.643C227.023 242.643 229.643 243.633 229.605 244.16C229.567 244.687 222.861 243.699 222.861 243.699L222.489 239.009Z" fill="#FD8680"/>
<path d="M187.549 252.406H229.168V218.823H187.549V252.406Z" fill="#E57D00"/>
<path d="M208.359 252.406H229.168V218.823H208.359V252.406Z" fill="#FFAA40"/>
<path d="M224.343 243.135H229.168V240.25H224.343V243.135Z" fill="#E57D00"/>
<path d="M187.549 226.035H192.374V223.769H187.549V226.035Z" fill="#FF9E1D"/>
<path d="M184.498 240.38C184.498 240.38 190.305 239.048 190.11 239.588C189.915 240.127 188.123 240.569 188.123 240.569L188.588 241.43C188.588 241.43 192.774 242.146 192.821 242.74C192.868 243.334 189.247 242.725 189.247 242.725C189.247 242.725 192.261 243.683 192.556 244.408C192.852 245.133 189.032 244.015 189.032 244.015C189.032 244.015 191.651 245.004 191.614 245.531C191.576 246.058 184.87 245.07 184.87 245.07L184.498 240.38Z" fill="#FD8680"/>
<path d="M148.562 312.57L149.529 310.371L154.925 314.233L153.81 315.962L148.562 312.57Z" fill="#FD8680"/>
<path d="M406.786 191.442C406.161 205.556 392.016 221.278 392.016 221.278C392.016 221.278 378.645 206.022 377.974 191.442C377.525 181.69 384.424 176.047 392.38 176.047C400.336 176.047 407.157 183.059 406.786 191.442Z" fill="#31AAB7" fill-opacity="0.3"/>
<path d="M392.329 199.048C397.189 199.048 401.128 195.107 401.128 190.246C401.128 185.384 397.189 181.443 392.329 181.443C387.469 181.443 383.529 185.384 383.529 190.246C383.529 195.107 387.469 199.048 392.329 199.048Z" fill="#31AAB7"/>
</svg>
