<svg width="24" height="24" viewBox="0 0 24 24" fill="none" xmlns="http://www.w3.org/2000/svg">
<g id="Icon/System/Shipment" clip-path="url(#clip0_2138_2097)">
<ellipse id="Ellipse 1" cx="9.23886" cy="9.75156" rx="9.19491" ry="9.19492" fill="#FFF7E4"/>
<path id="Vector" d="M13.4982 16.2104C13.4395 16.2175 13.3802 16.2175 13.3216 16.2104L12.586 16.0265C11.4234 15.7368 10.3612 15.137 9.51272 14.2911C8.6642 13.4452 8.06116 12.3848 7.76789 11.2231L7.58399 10.4875C7.55285 10.3644 7.5541 10.2354 7.58762 10.1129C7.62113 9.99049 7.68577 9.87879 7.77524 9.78872L12.3359 5.23539C14.9005 2.67055 18.2857 1.08989 21.8986 0.770343L22.3106 0.733563C22.4083 0.728113 22.5061 0.742221 22.5983 0.775062C22.6905 0.807903 22.7753 0.858816 22.8475 0.924818C22.9242 1.00118 22.9831 1.09351 23.0199 1.19523C23.0568 1.29695 23.0708 1.40555 23.0609 1.51329V1.92522C22.7376 5.53715 21.1575 8.92122 18.5958 11.4879L14.0204 15.9971C13.9517 16.0653 13.8702 16.1192 13.7806 16.1558C13.6909 16.1925 13.595 16.211 13.4982 16.2104ZM9.0846 10.4949L9.16551 10.8333C9.39265 11.7388 9.86172 12.5656 10.5225 13.2251C11.1833 13.8846 12.011 14.3521 12.917 14.5774L13.2481 14.6583L17.5071 10.3993C19.7103 8.20133 21.1228 5.33505 21.5235 2.24889C18.441 2.64152 15.5752 4.04339 13.3731 6.2358L9.0846 10.4949Z" fill="#FFB431"/>
<path id="Vector_2" d="M20.677 7.92855C20.6087 7.93929 20.5392 7.93929 20.471 7.92855C19.4098 7.56305 18.4567 6.93855 17.6978 6.11163C16.8572 5.31871 16.2342 4.32333 15.8883 3.22075C15.8361 3.03347 15.8603 2.83318 15.9554 2.66365C16.0505 2.49411 16.2088 2.36911 16.3958 2.31597C16.489 2.28906 16.5867 2.28086 16.6831 2.29183C16.7795 2.30281 16.8727 2.33275 16.9575 2.37992C17.0423 2.4271 17.1169 2.49058 17.177 2.56672C17.2372 2.64285 17.2817 2.73013 17.308 2.82353C17.5843 3.68307 18.0755 4.45784 18.735 5.07444C19.3411 5.72213 20.0998 6.20768 20.9418 6.48678C21.1369 6.51507 21.3127 6.6197 21.4307 6.77765C21.5486 6.93561 21.599 7.13394 21.5707 7.32904C21.5424 7.52413 21.4378 7.69999 21.2798 7.81794C21.1219 7.93589 20.9236 7.98626 20.7285 7.95797L20.677 7.92855Z" fill="#FFB431"/>
<path id="Vector_3" d="M6.43631 18.0708C6.24379 18.0642 6.06155 17.9823 5.92875 17.8428C5.79174 17.7049 5.71484 17.5185 5.71484 17.3242C5.71484 17.1298 5.79174 16.9434 5.92875 16.8056L11.2177 11.5093C11.2862 11.4407 11.3677 11.3863 11.4573 11.3492C11.5469 11.3121 11.6429 11.293 11.7399 11.293C11.8369 11.293 11.933 11.3121 12.0226 11.3492C12.1122 11.3863 12.1936 11.4407 12.2622 11.5093C12.3308 11.5779 12.3852 11.6593 12.4223 11.7489C12.4594 11.8385 12.4785 11.9346 12.4785 12.0316C12.4785 12.1286 12.4594 12.2246 12.4223 12.3142C12.3852 12.4038 12.3308 12.4853 12.2622 12.5538L6.95122 17.8428C6.88458 17.9127 6.8048 17.9689 6.71645 18.008C6.6281 18.0471 6.53291 18.0685 6.43631 18.0708Z" fill="#FFB431"/>
<path id="Vector_4" d="M1.51526 12.5688C1.36915 12.5696 1.2261 12.5269 1.10435 12.4462C0.982595 12.3654 0.887651 12.2502 0.831623 12.1153C0.775595 11.9803 0.761022 11.8318 0.789761 11.6885C0.818501 11.5453 0.889251 11.4138 0.992991 11.3109L4.45763 7.88305C5.08389 7.24931 5.84731 6.76784 6.68905 6.47579C7.53079 6.18373 8.42836 6.08888 9.31255 6.19854L11.4678 6.456C11.6057 6.47215 11.7363 6.52701 11.8443 6.61422C11.9524 6.70144 12.0335 6.81745 12.0784 6.94885C12.1183 7.07595 12.123 7.21152 12.0919 7.34108C12.0608 7.47063 11.9951 7.58931 11.9018 7.68444L8.8197 10.7666C8.71783 10.8709 8.58725 10.9426 8.44455 10.9725C5.92882 11.5022 1.75801 12.532 1.71387 12.5467C1.64898 12.5631 1.58216 12.5705 1.51526 12.5688ZM8.57696 7.62559C7.41701 7.63438 6.30715 8.09946 5.48747 8.92024L3.9133 10.4871C5.18587 10.1781 6.70855 9.83237 7.93699 9.58227L9.79068 7.72122L9.13601 7.64766C8.95763 7.6294 8.7783 7.62203 8.59902 7.62559H8.57696Z" fill="#FFB431"/>
<path id="Vector_5" d="M11.9389 22.9921C11.8126 22.9917 11.6884 22.9588 11.5785 22.8965C11.4385 22.8176 11.3283 22.6951 11.2645 22.5477C11.2008 22.4002 11.187 22.236 11.2254 22.08C11.2254 22.0359 12.2699 17.9018 12.7775 15.3493C12.8075 15.2066 12.8791 15.076 12.9835 14.9742L16.0656 11.892C16.1607 11.7987 16.2794 11.733 16.409 11.702C16.5385 11.6709 16.6741 11.6755 16.8012 11.7155C16.9326 11.7604 17.0486 11.8415 17.1358 11.9496C17.223 12.0576 17.2779 12.1881 17.294 12.326L17.5515 14.4813C17.6556 15.36 17.5601 16.2509 17.2723 17.0876C16.9845 17.9244 16.5117 18.6854 15.8891 19.3142L12.4612 22.7494C12.3949 22.8229 12.3145 22.8823 12.2248 22.924C12.1351 22.9657 12.0378 22.9889 11.9389 22.9921ZM14.1457 15.8569C13.925 17.0632 13.5793 18.5786 13.2851 19.8585L14.8666 18.2843C15.3431 17.808 15.7042 17.2288 15.9222 16.5913C16.1403 15.9538 16.2094 15.2748 16.1244 14.6064L16.0509 13.9517L14.1457 15.8569Z" fill="#FFB431"/>
<path id="Vector_6" d="M15.057 10.9218C14.6193 10.9229 14.1911 10.7938 13.827 10.5509C13.4629 10.308 13.1792 9.96237 13.012 9.55785C12.8449 9.15334 12.8018 8.70825 12.8882 8.27918C12.9746 7.8501 13.1867 7.45643 13.4975 7.1482C13.9197 6.74828 14.4791 6.52539 15.0606 6.52539C15.6422 6.52539 16.2016 6.74828 16.6238 7.1482C16.8295 7.35322 16.9927 7.59684 17.1041 7.86507C17.2155 8.13331 17.2728 8.4209 17.2728 8.71134C17.2728 9.00178 17.2155 9.28937 17.1041 9.55761C16.9927 9.82585 16.8295 10.0695 16.6238 10.2745C16.4182 10.4803 16.1739 10.6435 15.905 10.7546C15.6361 10.8657 15.3479 10.9225 15.057 10.9218ZM15.057 7.97943C14.864 7.98024 14.679 8.05685 14.542 8.19275C14.405 8.33057 14.3281 8.51701 14.3281 8.71134C14.3281 8.90567 14.405 9.09211 14.542 9.22993C14.6799 9.36694 14.8663 9.44384 15.0606 9.44384C15.255 9.44384 15.4414 9.36694 15.5792 9.22993C15.6804 9.12667 15.749 8.99586 15.7763 8.85386C15.8036 8.71185 15.7884 8.56496 15.7327 8.43152C15.677 8.29809 15.5831 8.18404 15.463 8.10364C15.3428 8.02323 15.2016 7.98002 15.057 7.97943Z" fill="#FFB431"/>
<path id="Vector_7" d="M1.51489 22.9923C1.3198 22.9923 1.1327 22.9148 0.994747 22.7768C0.856797 22.6389 0.779297 22.4518 0.779297 22.2567C0.779297 14.5035 6.14913 12.1129 6.37716 12.0172C6.46674 11.9751 6.56391 11.9515 6.66284 11.9478C6.76177 11.9441 6.86042 11.9604 6.9529 11.9957C7.04537 12.0311 7.12976 12.0847 7.201 12.1535C7.27225 12.2222 7.32889 12.3046 7.36753 12.3958C7.40616 12.4869 7.42601 12.5849 7.42586 12.6839C7.42572 12.7829 7.4056 12.8809 7.3667 12.9719C7.3278 13.0629 7.27093 13.1452 7.19948 13.2137C7.12804 13.2822 7.0435 13.3356 6.95092 13.3707C6.77438 13.4296 2.58886 15.3568 2.25048 21.5211C8.39269 21.2048 10.2979 17.0193 10.3788 16.8354C10.4169 16.7465 10.4722 16.666 10.5415 16.5985C10.6108 16.531 10.6926 16.4778 10.7825 16.4419C10.8723 16.4061 10.9683 16.3883 11.065 16.3895C11.1617 16.3907 11.2572 16.411 11.3461 16.4492C11.435 16.4873 11.5155 16.5426 11.583 16.6119C11.6505 16.6812 11.7037 16.763 11.7395 16.8529C11.7754 16.9427 11.7932 17.0387 11.792 17.1354C11.7907 17.2321 11.7704 17.3276 11.7323 17.4165C11.6587 17.6225 9.26804 22.9923 1.51489 22.9923Z" fill="#FFB431"/>
</g>
<defs>
<clipPath id="clip0_2138_2097">
<rect width="23.539" height="23.539" fill="white" transform="translate(0.0439453 0.189453)"/>
</clipPath>
</defs>
</svg>
