<svg width="180" height="30" viewBox="0 0 180 30" fill="none" xmlns="http://www.w3.org/2000/svg">
<g id="Group 627443">
<g id="Group 12728">
<g id="Twitter">
<circle id="Oval 1" cx="65" cy="15" r="15" fill="white"/>
<path id="Fill 1" fill-rule="evenodd" clip-rule="evenodd" d="M71.8705 9.26277C71.4471 9.53396 70.475 9.92804 69.9956 9.92804V9.92885C69.4482 9.357 68.6776 9 67.8229 9C66.1629 9 64.8168 10.3461 64.8168 12.0054C64.8168 12.236 64.8435 12.4609 64.8929 12.6765H64.8924C62.6406 12.6174 60.1779 11.4888 58.6953 9.55711C57.7838 11.1349 58.5726 12.8896 59.607 13.529C59.2529 13.5557 58.6011 13.4882 58.2943 13.1888C58.2737 14.236 58.7773 15.6235 60.6133 16.1269C60.2597 16.3171 59.6337 16.2626 59.3616 16.2221C59.4571 17.1061 60.695 18.2618 62.0487 18.2618C61.5662 18.8198 59.751 19.8321 57.7139 19.51C59.0973 20.3518 60.7098 20.8393 62.4164 20.8393C67.2662 20.8393 71.0326 16.9087 70.8299 12.0598C70.8291 12.0545 70.8291 12.0492 70.8286 12.0433C70.8291 12.0309 70.8299 12.0184 70.8299 12.0054C70.8299 11.9904 70.8286 11.9761 70.8282 11.9616C71.2697 11.6596 71.8621 11.1255 72.2853 10.4225C72.0398 10.5577 71.3035 10.8284 70.6183 10.8956C71.0581 10.6582 71.7096 9.88092 71.8705 9.26277Z" fill="#282B36"/>
</g>
<g id="Facebook">
<circle id="Oval 1_2" cx="115" cy="15" r="15" fill="white"/>
<path id="Fill 4" fill-rule="evenodd" clip-rule="evenodd" d="M112.938 22.3016H115.67V14.7976H117.719L118.125 12.4528H115.67V10.7537C115.67 10.206 116.024 9.63089 116.53 9.63089H117.925V7.28613H116.216V7.29664C113.54 7.39374 112.991 8.94318 112.943 10.5707H112.938V12.4528H111.571V14.7976H112.938V22.3016Z" fill="#282B36"/>
</g>
<g id="Facebook_2">
<circle id="Oval 1_3" cx="165" cy="15" r="15" fill="white"/>
</g>
<g id="Linkedin">
<circle id="Oval 1 Copy 5" cx="15" cy="15" r="15" fill="white"/>
<path id="Fill 182" fill-rule="evenodd" clip-rule="evenodd" d="M9.15697 11.1282C10.1896 11.1282 11.0268 10.3648 11.0268 9.42196C11.0268 8.47832 10.1896 7.71387 9.15697 7.71387C8.1233 7.71387 7.28613 8.47832 7.28613 9.42196C7.28613 10.3648 8.1233 11.1282 9.15697 11.1282Z" fill="#282B36"/>
<path id="Fill 183" fill-rule="evenodd" clip-rule="evenodd" d="M7.71387 22.1049H11.0689V12.4287H7.71387V22.1049Z" fill="#282B36"/>
<path id="Fill 184" fill-rule="evenodd" clip-rule="evenodd" d="M15.7782 16.723C15.7782 15.6134 16.3032 14.5283 17.5585 14.5283C18.8139 14.5283 19.1225 15.6134 19.1225 16.6965V21.9811H22.4625V16.4805C22.4625 12.6588 20.2035 12 18.8139 12C17.4254 12 16.6595 12.4697 15.7782 13.6077V12.305H12.4287V21.9811H15.7782V16.723Z" fill="#282B36"/>
</g>
</g>
<path id="instagram" fill-rule="evenodd" clip-rule="evenodd" d="M165 7C162.827 7 162.556 7.00933 161.701 7.04933C158.795 7.18267 157.181 8.79467 157.048 11.7013C157.009 12.556 157 12.828 157 15C157 17.1733 157.009 17.4453 157.048 18.2987C157.181 21.204 158.795 22.8187 161.701 22.952C162.556 22.9907 162.827 23 165 23C167.173 23 167.445 22.9907 168.3 22.952C171.201 22.8187 172.821 21.2067 172.952 18.2987C172.991 17.4453 173 17.1733 173 15C173 12.828 172.991 12.556 172.952 11.7013C172.821 8.79867 171.207 7.18133 168.3 7.04933C167.445 7.00933 167.173 7 165 7ZM165 8.44267C167.136 8.44267 167.389 8.45067 168.233 8.48933C170.403 8.588 171.413 9.616 171.513 11.768C171.551 12.612 171.559 12.864 171.559 15C171.559 17.136 171.551 17.3893 171.513 18.232C171.413 20.3827 170.404 21.4133 168.233 21.512C167.389 21.5493 167.137 21.5587 165 21.5587C162.864 21.5587 162.611 21.5507 161.768 21.512C159.595 21.412 158.588 20.38 158.488 18.232C158.451 17.3893 158.441 17.136 158.441 15C158.441 12.864 158.451 12.6107 158.488 11.768C158.587 9.61467 159.597 8.58667 161.768 8.488C162.611 8.44933 162.864 8.44267 165 8.44267ZM160.892 15C160.892 12.7307 162.732 10.892 165 10.892C167.268 10.892 169.108 12.732 169.108 15C169.108 17.2693 167.268 19.108 165 19.108C162.732 19.108 160.892 17.2693 160.892 15ZM165 17.6667C163.527 17.6667 162.333 16.4733 162.333 15C162.333 13.528 163.527 12.3333 165 12.3333C166.472 12.3333 167.668 13.5267 167.668 15C167.668 16.4733 166.472 17.6667 165 17.6667ZM168.309 10.7307C168.309 10.2 168.74 9.77067 169.269 9.77067C169.801 9.77067 170.231 10.2 170.231 10.7307C170.231 11.2613 169.8 11.6907 169.269 11.6907C168.739 11.6907 168.309 11.26 168.309 10.7307Z" fill="#282B36"/>
</g>
</svg>
