<svg width="475" height="319" viewBox="0 0 475 319" fill="none" xmlns="http://www.w3.org/2000/svg">
<path d="M85.4518 296.424L388.616 293.877C388.616 293.877 465.4 269.219 418.082 213.21C384.366 173.301 351.171 187.362 359.716 128.864C378.982 -3.03232 190.58 -14.128 154.585 66.0295C113.785 156.885 134.185 169.339 77.2353 178.113C20.286 186.887 35.3027 296.707 85.4518 296.424Z" fill="#EEEEF5"/>
<path d="M113.785 207.267C129.433 207.267 142.118 204.733 142.118 201.606C142.118 198.48 129.433 195.945 113.785 195.945C98.1373 195.945 85.4521 198.48 85.4521 201.606C85.4521 204.733 98.1373 207.267 113.785 207.267Z" fill="#404396"/>
<path d="M128.389 282.975C128.348 286.703 128.134 290.19 127.871 293.138H117.147C112.256 287.434 107.93 280.532 104.819 273.768C103.561 271.057 102.482 268.266 101.59 265.413C100.736 262.741 100.165 259.987 99.8874 257.195C99.5903 253.74 100.006 250.808 101.291 248.732C102.994 245.988 106.224 244.74 111.352 245.755C112.142 245.91 112.92 246.123 113.679 246.392V246.395C114.736 246.76 115.749 247.24 116.7 247.826C118.238 248.781 119.614 249.975 120.774 251.365C122.523 253.431 123.894 255.925 124.958 258.694C125.121 259.106 125.275 259.525 125.419 259.95C126.298 262.562 126.954 265.243 127.382 267.966C127.423 268.219 127.465 268.472 127.503 268.726C127.551 269.039 127.595 269.355 127.637 269.671C128.068 272.906 128.312 276.163 128.37 279.425C128.395 280.625 128.401 281.813 128.389 282.975Z" fill="#404396"/>
<path d="M123.997 293.169C123.797 292.461 123.587 291.724 123.366 290.958L123.293 290.708C122.454 287.816 121.602 284.972 120.759 282.253C120.064 280.013 119.355 277.8 118.653 275.676C117.636 272.61 116.685 269.875 115.748 267.314C114.469 263.82 113.215 260.649 112.02 257.893C109.608 252.327 107.358 248.258 105.332 245.8L105.51 245.654C107.549 248.129 109.81 252.217 112.231 257.802C113.427 260.563 114.684 263.737 115.964 267.236C116.903 269.799 117.853 272.536 118.871 275.604C119.575 277.73 120.284 279.945 120.979 282.186C121.822 284.906 122.675 287.752 123.515 290.646L123.587 290.897C123.807 291.663 124.019 292.4 124.219 293.109L123.997 293.169Z" fill="black"/>
<path d="M126.596 301.834L126.374 301.893L126.432 302.11L126.654 302.051L126.596 301.834Z" fill="black"/>
<path d="M112.212 258.07L101.074 248.702L101.223 248.526L112.04 257.625L113.565 246.375L113.793 246.406L112.212 258.07Z" fill="black"/>
<path d="M115.923 267.453L99.8242 257.293L99.9469 257.099L115.792 267.098L120.744 251.074L120.964 251.142L115.923 267.453Z" fill="black"/>
<path d="M118.822 275.808L101.53 265.51L101.648 265.312L118.701 275.469L124.853 258.648L125.069 258.727L118.822 275.808Z" fill="black"/>
<path d="M120.918 282.375L104.766 273.869L104.873 273.666L120.824 282.065L127.537 269.615L127.739 269.724L120.918 282.375Z" fill="black"/>
<path d="M123.443 290.822L110.493 284.311L110.596 284.105L123.366 290.526L128.287 283.285L128.477 283.414L123.443 290.822Z" fill="black"/>
<path d="M129.648 281.641C129.648 281.641 101.834 235.97 126.772 226.069C151.71 216.169 135.722 275.573 129.648 281.641Z" fill="#404396"/>
<path d="M129.375 281.499C129.356 281.375 127.511 269.033 126.688 255.975C125.584 238.414 126.757 227.992 130.18 224.998L130.332 225.171C122.288 232.207 129.528 280.973 129.602 281.465L129.375 281.499Z" fill="black"/>
<path d="M126.934 234.403L123.63 227.659L123.837 227.558L126.996 234.007L135.057 225.656L135.223 225.816L126.934 234.403Z" fill="black"/>
<path d="M126.393 242.921L126.324 242.808L119.454 231.616L119.65 231.496L126.45 242.574L139.303 231.844L139.45 232.021L126.393 242.921Z" fill="black"/>
<path d="M126.58 252.41L116.51 239.703L116.69 239.561L126.617 252.086L140.226 241.289L140.368 241.469L126.58 252.41Z" fill="black"/>
<path d="M127.215 261.85L127.147 261.784L117.387 252.331L117.547 252.166L127.238 261.552L138.991 253.207L139.125 253.394L127.215 261.85Z" fill="black"/>
<path d="M127.856 268.609L119.604 260.226L119.769 260.064L127.882 268.307L137.234 261.607L137.368 261.793L127.856 268.609Z" fill="black"/>
<path d="M152.921 272.913C152.21 275.454 151.265 277.922 150.098 280.288C147.776 285.049 144.678 289.392 140.932 293.139H125.044C124.923 292.181 124.811 291.168 124.722 290.114V290.111C124.69 289.705 124.658 289.29 124.63 288.872C124.342 284.519 124.448 279.571 125.5 274.832V274.829C125.544 274.631 125.589 274.436 125.638 274.238C125.776 273.666 125.926 273.098 126.095 272.537C126.473 271.234 126.944 269.961 127.505 268.726C127.569 268.583 127.636 268.436 127.706 268.292C127.745 268.206 127.786 268.123 127.828 268.036C128.109 267.462 128.41 266.896 128.739 266.344C130.384 263.505 132.662 261.084 135.396 259.267C136.297 258.668 137.241 258.137 138.219 257.677C138.969 257.323 139.736 257.007 140.518 256.731C141.983 256.187 143.512 255.835 145.067 255.684C147.107 255.511 148.776 255.863 150.096 256.626C151.826 257.626 152.958 259.338 153.543 261.529C154.361 264.594 154.109 268.595 152.921 272.913Z" fill="#7B7DB5"/>
<path d="M129.916 293.179L129.699 293.101C130.04 292.147 130.414 291.128 130.812 290.072C131.569 288.072 132.356 286.114 133.151 284.255C134.229 281.727 135.381 279.228 136.575 276.833C138.695 272.551 141.104 268.417 143.783 264.46C145.673 261.682 147.754 259.038 150.011 256.549L150.181 256.704C147.931 259.186 145.857 261.82 143.972 264.589C141.299 268.538 138.897 272.663 136.781 276.936C135.589 279.326 134.439 281.82 133.363 284.345C132.569 286.202 131.783 288.156 131.028 290.153C130.63 291.208 130.256 292.226 129.916 293.179Z" fill="black"/>
<path d="M143.737 264.718L144.954 255.666L145.182 255.697L144.013 264.391L153.508 261.417L153.577 261.636L143.737 264.718Z" fill="black"/>
<path d="M136.574 277.028L135.28 259.272L135.51 259.256L136.784 276.74L152.892 272.802L152.947 273.025L136.574 277.028Z" fill="black"/>
<path d="M130.844 290.242L130.812 290.15L125.392 274.868L125.609 274.791L130.996 289.982L145.717 287.409L145.757 287.635L130.844 290.242Z" fill="black"/>
<path d="M125.885 293.184L124.606 290.115L124.726 290.113L124.828 290.07L126.097 293.095L125.885 293.184Z" fill="black"/>
<path d="M133.174 284.435L133.146 284.325L128.625 266.373L128.848 266.316L133.341 284.159L150.071 280.177L150.125 280.4L133.174 284.435Z" fill="black"/>
<path d="M344.285 284.393C344.243 288.12 344.029 291.608 343.767 294.556H333.043C328.151 288.852 323.826 281.95 320.715 275.186C319.456 272.475 318.378 269.684 317.486 266.831C316.632 264.159 316.061 261.405 315.783 258.613C315.486 255.158 315.901 252.226 317.187 250.15C318.89 247.406 322.12 246.157 327.248 247.173C328.038 247.328 328.816 247.54 329.575 247.809V247.812C330.632 248.177 331.645 248.657 332.597 249.243C334.135 250.197 335.51 251.392 336.67 252.781C338.419 254.848 339.79 257.342 340.855 260.111C341.018 260.523 341.171 260.942 341.315 261.366C342.194 263.978 342.851 266.66 343.278 269.383C343.32 269.636 343.361 269.887 343.4 270.143C343.448 270.456 343.492 270.772 343.534 271.088C343.964 274.323 344.209 277.579 344.266 280.842C344.291 282.043 344.297 283.231 344.285 284.393Z" fill="#404396"/>
<path d="M339.893 294.587C339.681 293.832 339.456 293.044 339.218 292.223L339.19 292.125C338.355 289.249 337.503 286.404 336.655 283.671C335.96 281.431 335.252 279.218 334.549 277.093C333.535 274.037 332.585 271.302 331.644 268.732C330.366 265.239 329.113 262.069 327.916 259.311C325.504 253.744 323.254 249.676 321.229 247.218L321.406 247.072C323.445 249.547 325.707 253.634 328.127 259.22C329.325 261.983 330.582 265.157 331.861 268.654C332.802 271.226 333.753 273.963 334.768 277.023C335.471 279.149 336.18 281.363 336.876 283.604C337.723 286.34 338.576 289.185 339.411 292.064L339.439 292.162C339.676 292.983 339.901 293.771 340.115 294.527L339.893 294.587Z" fill="black"/>
<path d="M342.329 303.528L342.271 303.311L342.494 303.252L342.552 303.47L342.329 303.528Z" fill="black"/>
<path d="M328.109 259.488L316.971 250.12L317.119 249.944L327.937 259.043L329.462 247.793L329.689 247.824L328.109 259.488Z" fill="black"/>
<path d="M331.82 268.871L315.721 258.711L315.843 258.516L331.689 268.516L336.64 252.492L336.86 252.56L331.82 268.871Z" fill="black"/>
<path d="M334.718 277.226L317.426 266.927L317.544 266.73L334.597 276.887L340.748 260.066L340.964 260.145L334.718 277.226Z" fill="black"/>
<path d="M336.814 283.792L320.661 275.287L320.768 275.083L336.719 283.483L343.432 271.033L343.635 271.142L336.814 283.792Z" fill="black"/>
<path d="M339.339 292.24L326.39 285.729L326.493 285.523L339.262 291.944L344.183 284.703L344.374 284.832L339.339 292.24Z" fill="black"/>
<path d="M345.545 283.059C345.545 283.059 317.73 237.388 342.668 227.487C367.606 217.587 351.619 276.992 345.545 283.059Z" fill="#404396"/>
<path d="M345.271 282.917C345.253 282.793 343.407 270.451 342.585 257.393C341.48 239.832 342.654 229.41 346.077 226.416L346.228 226.589C338.184 233.625 345.425 282.391 345.499 282.882L345.271 282.917Z" fill="black"/>
<path d="M342.83 235.821L339.526 229.077L339.733 228.976L342.893 235.425L350.953 227.074L351.119 227.234L342.83 235.821Z" fill="black"/>
<path d="M342.289 244.339L342.22 244.225L335.351 233.034L335.546 232.914L342.346 243.992L355.199 233.262L355.346 233.439L342.289 244.339Z" fill="black"/>
<path d="M342.477 253.827L332.406 241.121L332.586 240.979L342.514 253.504L356.122 242.707L356.265 242.887L342.477 253.827Z" fill="black"/>
<path d="M343.112 263.268L343.043 263.202L333.283 253.749L333.443 253.584L343.135 262.97L354.888 254.625L355.021 254.812L343.112 263.268Z" fill="black"/>
<path d="M343.752 270.027L335.501 261.644L335.665 261.482L343.779 269.725L353.13 263.025L353.264 263.212L343.752 270.027Z" fill="black"/>
<path d="M368.816 274.33C368.105 276.87 367.16 279.339 365.993 281.704C363.671 286.466 360.574 290.808 356.827 294.555H340.941C340.819 293.597 340.707 292.585 340.619 291.531V291.528C340.587 291.122 340.555 290.707 340.527 290.288C340.239 285.935 340.344 280.988 341.396 276.249V276.245C341.441 276.047 341.486 275.852 341.534 275.654C341.672 275.083 341.822 274.514 341.991 273.953C342.369 272.651 342.84 271.378 343.401 270.143C343.465 269.999 343.532 269.852 343.603 269.709C343.641 269.623 343.683 269.539 343.724 269.453C344.006 268.878 344.306 268.313 344.635 267.76C346.281 264.921 348.56 262.499 351.295 260.683C352.195 260.084 353.139 259.553 354.118 259.093C354.868 258.739 355.635 258.423 356.417 258.147C357.881 257.603 359.41 257.25 360.966 257.1C363.006 256.927 364.675 257.279 365.995 258.042C367.725 259.042 368.856 260.755 369.441 262.945C370.258 266.01 370.005 270.012 368.816 274.33Z" fill="#7B7DB5"/>
<path d="M345.813 294.595L345.597 294.518C345.939 293.56 346.313 292.541 346.71 291.489C347.466 289.489 348.253 287.532 349.049 285.671C350.126 283.143 351.278 280.645 352.473 278.249C354.593 273.967 357.001 269.833 359.68 265.876C361.57 263.098 363.652 260.454 365.909 257.965L366.078 258.12C363.829 260.601 361.754 263.236 359.87 266.005C357.197 269.954 354.794 274.079 352.679 278.352C351.486 280.743 350.336 283.237 349.261 285.761C348.466 287.619 347.68 289.574 346.925 291.57C346.528 292.62 346.154 293.638 345.813 294.595Z" fill="black"/>
<path d="M359.633 266.136L360.849 257.084L361.077 257.115L359.909 265.809L369.404 262.835L369.473 263.054L359.633 266.136Z" fill="black"/>
<path d="M352.47 278.446L351.177 260.69L351.406 260.674L352.68 278.158L368.789 274.219L368.844 274.443L352.47 278.446Z" fill="black"/>
<path d="M346.74 291.658L346.707 291.566L341.287 276.284L341.504 276.207L346.892 291.398L361.613 288.825L361.653 289.052L346.74 291.658Z" fill="black"/>
<path d="M341.781 294.6L340.503 291.531L340.622 291.529L340.724 291.486L341.993 294.511L341.781 294.6Z" fill="black"/>
<path d="M349.069 285.853L349.042 285.743L344.521 267.79L344.744 267.734L349.237 285.577L365.967 281.594L366.021 281.818L349.069 285.853Z" fill="black"/>
<path d="M339.097 229.103L336.834 227.711L319.77 255.409L322.033 256.801L339.097 229.103Z" fill="#404396"/>
<path d="M334.446 226.114L332.183 224.723L315.118 252.421L317.382 253.813L334.446 226.114Z" fill="#404396"/>
<path d="M176.447 186.169C179.475 186.169 181.929 183.272 181.929 179.698C181.929 176.124 179.475 173.227 176.447 173.227C173.42 173.227 170.966 176.124 170.966 179.698C170.966 183.272 173.42 186.169 176.447 186.169Z" fill="#FFAA40"/>
<path d="M183.423 193.304C183.423 193.304 178.772 192.972 174.121 202.928C169.47 212.885 154.521 245.076 154.521 245.076L181.762 251.05L183.423 193.304Z" fill="#404396"/>
<path d="M174.121 167.75H174.944C177.722 167.75 180.386 168.852 182.35 170.814C184.314 172.776 185.417 175.438 185.417 178.212V181.017C185.417 183.792 184.314 186.453 182.35 188.415C180.386 190.377 177.722 191.479 174.944 191.479H174.122V167.75H174.121Z" fill="#404396"/>
<path d="M183.59 193.469C183.59 193.469 183.258 174.885 184.919 172.23C186.58 169.575 196.546 169.243 197.211 176.544C197.875 183.845 198.207 196.124 198.207 198.448C198.207 200.771 186.248 228.98 206.18 267.809H231.096C231.096 267.809 247.706 252.211 242.059 229.644L287.572 229.312C287.572 229.312 330.428 233.294 325.113 277.102H187.577C187.577 277.102 193.556 260.84 173.623 249.224C173.623 249.224 168.64 218.692 183.59 193.469Z" fill="#9395D1"/>
<path d="M173.623 249.224C173.623 249.224 143.891 239.766 138.575 271.294C138.575 271.294 132.927 273.285 131.598 269.966C130.269 266.648 143.225 225.827 173.623 249.224Z" fill="#404396"/>
<path d="M163.158 293.364C174.993 293.364 184.586 283.781 184.586 271.959C184.586 260.136 174.993 250.553 163.158 250.553C151.324 250.553 141.73 260.136 141.73 271.959C141.73 283.781 151.324 293.364 163.158 293.364Z" fill="#404396"/>
<path d="M163.324 283.075C169.379 283.075 174.287 278.172 174.287 272.124C174.287 266.075 169.379 261.172 163.324 261.172C157.27 261.172 152.361 266.075 152.361 272.124C152.361 278.172 157.27 283.075 163.324 283.075Z" fill="#9FA3BF"/>
<path d="M283.088 293.696C294.922 293.696 304.516 284.113 304.516 272.291C304.516 260.468 294.922 250.885 283.088 250.885C271.254 250.885 261.66 260.468 261.66 272.291C261.66 284.113 271.254 293.696 283.088 293.696Z" fill="#404396"/>
<path d="M283.254 283.407C289.309 283.407 294.217 278.504 294.217 272.456C294.217 266.407 289.309 261.504 283.254 261.504C277.199 261.504 272.291 266.407 272.291 272.456C272.291 278.504 277.199 283.407 283.254 283.407Z" fill="#9FA3BF"/>
<path d="M254.233 277.103C254.233 277.103 250.365 245.575 272.291 242.256C294.217 238.937 316.333 261.505 319.727 277.103H254.233Z" fill="#404396"/>
<path d="M284.008 217.697H242.634C240.665 217.697 239.069 219.292 239.069 221.259V225.752C239.069 227.719 240.665 229.313 242.634 229.313H284.008C285.977 229.313 287.573 227.719 287.573 225.752V221.259C287.573 219.292 285.977 217.697 284.008 217.697Z" fill="#404396"/>
<path d="M354.946 223.836H290.666C289.049 223.836 287.739 225.145 287.739 226.759V227.218C287.739 228.833 289.049 230.142 290.666 230.142H354.946C356.562 230.142 357.872 228.833 357.872 227.218V226.759C357.872 225.145 356.562 223.836 354.946 223.836Z" fill="#404396"/>
<path d="M205.305 179.213L191.989 175.716C191.141 175.493 190.273 175.999 190.051 176.846L189.987 177.087C189.764 177.934 190.271 178.801 191.119 179.023L204.435 182.52C205.283 182.743 206.15 182.237 206.373 181.39L206.437 181.149C206.66 180.302 206.153 179.435 205.305 179.213Z" fill="#404396"/>
<path d="M353.851 185.387H288.586V223.892H353.851V185.387Z" fill="#E57D00"/>
<path d="M321.219 185.387H288.586V223.892H321.219V185.387Z" fill="#FFAA40"/>
<path d="M296.153 209.955H288.586V213.262H296.153V209.955Z" fill="#E57D00"/>
<path d="M353.851 191.057H346.284V193.655H353.851V191.057Z" fill="#FF9E1D"/>
<path d="M116.902 89.2377C116.902 89.2377 149.768 111.315 174.135 97.4448C198.501 83.5748 209.834 95.1804 218.051 83.2927C226.268 71.4051 201.335 56.9702 176.401 64.8953C151.468 72.8203 150.902 25.5526 116.902 54.7058C82.9023 83.859 116.902 89.2377 116.902 89.2377Z" fill="white"/>
<path d="M329.399 28.9505C329.399 28.9505 293.416 17.6289 275.283 27.2521C257.15 36.8753 304.749 68.5759 358.865 39.988C412.981 11.4002 329.399 28.9505 329.399 28.9505Z" fill="white"/>
<path d="M369.066 122.353C369.066 122.353 369.633 98.5781 348.1 105.371C326.567 112.164 311.55 103.107 300.784 115.56C290.017 128.014 331.95 146.695 366.516 134.807C401.082 122.919 369.066 122.353 369.066 122.353Z" fill="white"/>
<path d="M113.615 190.875H113.601C113.51 190.874 113.421 190.854 113.338 190.817C113.255 190.781 113.18 190.729 113.117 190.663C113.054 190.598 113.005 190.521 112.972 190.436C112.939 190.352 112.923 190.262 112.925 190.171L112.974 187.872C112.976 187.782 112.996 187.693 113.032 187.61C113.069 187.527 113.121 187.452 113.187 187.389C113.252 187.326 113.329 187.277 113.414 187.244C113.498 187.211 113.588 187.195 113.679 187.197C113.77 187.199 113.859 187.219 113.942 187.256C114.025 187.292 114.1 187.344 114.163 187.41C114.226 187.475 114.275 187.552 114.308 187.637C114.341 187.721 114.357 187.811 114.355 187.902L114.306 190.201C114.302 190.381 114.227 190.553 114.098 190.679C113.969 190.805 113.796 190.875 113.615 190.875Z" fill="#7B7DB5"/>
<path d="M390.95 244.543C390.839 244.543 390.729 244.516 390.631 244.465C390.532 244.413 390.447 244.338 390.384 244.247C390.32 244.155 390.28 244.05 390.266 243.94C390.252 243.829 390.265 243.717 390.304 243.613C390.846 242.159 391.378 240.702 391.885 239.28C391.915 239.195 391.962 239.116 392.023 239.049C392.084 238.982 392.157 238.927 392.239 238.889C392.321 238.85 392.41 238.827 392.5 238.823C392.591 238.818 392.681 238.831 392.767 238.862C392.852 238.892 392.931 238.939 392.998 239C393.065 239.061 393.12 239.134 393.159 239.216C393.198 239.298 393.22 239.386 393.225 239.477C393.229 239.567 393.216 239.658 393.185 239.743C392.676 241.171 392.142 242.634 391.598 244.094C391.548 244.226 391.46 244.34 391.344 244.42C391.229 244.5 391.091 244.543 390.95 244.543ZM394.056 235.837C393.946 235.837 393.838 235.811 393.74 235.761C393.643 235.711 393.558 235.638 393.495 235.549C393.431 235.46 393.389 235.357 393.373 235.249C393.357 235.14 393.367 235.029 393.402 234.925C393.899 233.466 394.386 231.993 394.852 230.549C394.88 230.463 394.924 230.383 394.983 230.314C395.042 230.245 395.114 230.188 395.194 230.147C395.275 230.105 395.363 230.08 395.453 230.073C395.544 230.066 395.635 230.076 395.721 230.104C395.807 230.132 395.887 230.176 395.956 230.235C396.025 230.293 396.082 230.365 396.124 230.446C396.165 230.526 396.19 230.614 396.197 230.704C396.205 230.795 396.194 230.886 396.166 230.972C395.698 232.423 395.208 233.902 394.71 235.369C394.663 235.505 394.575 235.624 394.458 235.708C394.341 235.792 394.2 235.837 394.056 235.837ZM396.891 227.04C396.783 227.04 396.677 227.015 396.58 226.966C396.484 226.918 396.4 226.848 396.336 226.761C396.272 226.674 396.229 226.574 396.21 226.468C396.192 226.362 396.199 226.253 396.23 226.15C396.678 224.676 397.116 223.189 397.531 221.728C397.583 221.554 397.701 221.408 397.861 221.32C398.02 221.233 398.207 221.212 398.381 221.262C398.556 221.311 398.704 221.427 398.794 221.585C398.883 221.743 398.907 221.93 398.859 222.105C398.442 223.574 398.002 225.071 397.551 226.55C397.508 226.692 397.421 226.816 397.302 226.904C397.183 226.992 397.039 227.04 396.891 227.04ZM399.418 218.15C399.358 218.15 399.299 218.142 399.241 218.127C399.064 218.08 398.913 217.965 398.821 217.807C398.729 217.649 398.703 217.461 398.75 217.284C399.144 215.793 399.524 214.291 399.881 212.818C399.903 212.73 399.941 212.647 399.994 212.573C400.048 212.5 400.115 212.438 400.193 212.391C400.27 212.344 400.356 212.312 400.445 212.298C400.535 212.284 400.626 212.288 400.715 212.309C400.803 212.331 400.886 212.369 400.959 212.422C401.032 212.476 401.094 212.543 401.142 212.62C401.189 212.698 401.22 212.784 401.234 212.873C401.248 212.963 401.245 213.054 401.223 213.142C400.864 214.624 400.481 216.136 400.085 217.636C400.046 217.783 399.96 217.913 399.839 218.006C399.718 218.099 399.57 218.15 399.418 218.15ZM401.593 209.167C401.49 209.167 401.388 209.144 401.295 209.099C401.202 209.055 401.12 208.99 401.055 208.91C400.99 208.829 400.944 208.735 400.92 208.635C400.897 208.535 400.896 208.43 400.918 208.329C401.25 206.815 401.565 205.298 401.854 203.82C401.87 203.731 401.905 203.646 401.955 203.57C402.005 203.493 402.069 203.428 402.144 203.377C402.22 203.326 402.304 203.29 402.394 203.272C402.483 203.254 402.575 203.253 402.664 203.271C402.754 203.288 402.839 203.323 402.915 203.373C402.99 203.424 403.055 203.489 403.106 203.564C403.157 203.64 403.192 203.725 403.21 203.814C403.227 203.903 403.227 203.995 403.209 204.084C402.918 205.572 402.602 207.1 402.267 208.625C402.233 208.778 402.148 208.916 402.026 209.014C401.903 209.113 401.75 209.167 401.593 209.167ZM403.362 200.096C403.261 200.096 403.162 200.074 403.071 200.032C402.98 199.99 402.899 199.928 402.834 199.852C402.769 199.775 402.722 199.685 402.695 199.588C402.669 199.492 402.663 199.39 402.68 199.291C402.938 197.768 403.177 196.237 403.389 194.744C403.4 194.652 403.429 194.564 403.475 194.484C403.52 194.405 403.581 194.335 403.654 194.279C403.727 194.223 403.81 194.182 403.899 194.158C403.988 194.135 404.081 194.13 404.172 194.142C404.263 194.155 404.351 194.186 404.43 194.233C404.508 194.281 404.577 194.343 404.632 194.417C404.686 194.491 404.725 194.575 404.746 194.665C404.768 194.754 404.771 194.847 404.756 194.937C404.542 196.443 404.302 197.986 404.042 199.522C404.014 199.682 403.931 199.828 403.807 199.933C403.682 200.038 403.525 200.096 403.362 200.096ZM404.659 190.946C404.562 190.946 404.465 190.926 404.377 190.886C404.288 190.847 404.208 190.789 404.143 190.716C404.078 190.644 404.03 190.559 404 190.466C403.97 190.374 403.961 190.276 403.972 190.179C404.145 188.644 404.294 187.104 404.418 185.601C404.424 185.51 404.449 185.422 404.49 185.341C404.531 185.259 404.588 185.187 404.657 185.128C404.726 185.068 404.807 185.024 404.893 184.995C404.98 184.967 405.071 184.957 405.162 184.964C405.253 184.972 405.342 184.997 405.423 185.039C405.504 185.08 405.576 185.138 405.634 185.207C405.693 185.277 405.737 185.357 405.765 185.444C405.792 185.531 405.802 185.622 405.794 185.713C405.67 187.23 405.518 188.784 405.344 190.334C405.325 190.502 405.244 190.658 405.118 190.771C404.991 190.884 404.828 190.946 404.658 190.946H404.659ZM113.764 183.957H113.749C113.658 183.956 113.569 183.936 113.486 183.899C113.403 183.863 113.328 183.811 113.265 183.745C113.202 183.68 113.153 183.603 113.12 183.518C113.087 183.434 113.071 183.344 113.073 183.253L113.172 178.633C113.176 178.452 113.25 178.28 113.379 178.154C113.508 178.028 113.682 177.958 113.862 177.958H113.877C113.968 177.959 114.057 177.979 114.14 178.016C114.223 178.052 114.298 178.105 114.361 178.17C114.424 178.235 114.473 178.312 114.506 178.397C114.539 178.481 114.555 178.571 114.553 178.662L114.454 183.283C114.45 183.463 114.376 183.635 114.247 183.761C114.118 183.887 113.944 183.957 113.764 183.957V183.957ZM405.406 181.736H405.372C405.189 181.727 405.017 181.646 404.894 181.511C404.771 181.375 404.707 181.197 404.715 181.014C404.79 179.47 404.836 177.924 404.854 176.42C404.855 176.329 404.874 176.24 404.909 176.157C404.945 176.073 404.997 175.998 405.062 175.935C405.126 175.871 405.203 175.822 405.287 175.788C405.371 175.754 405.461 175.737 405.552 175.739C405.643 175.74 405.732 175.759 405.816 175.794C405.899 175.83 405.975 175.882 406.038 175.946C406.101 176.011 406.151 176.088 406.185 176.172C406.219 176.256 406.235 176.346 406.234 176.436C406.216 177.957 406.169 179.519 406.094 181.08C406.086 181.257 406.009 181.423 405.881 181.545C405.753 181.667 405.583 181.735 405.406 181.736V181.736ZM113.961 174.716H113.947C113.856 174.714 113.766 174.695 113.683 174.658C113.6 174.622 113.525 174.569 113.463 174.504C113.4 174.439 113.351 174.362 113.318 174.277C113.285 174.193 113.269 174.103 113.271 174.012L113.369 169.391C113.373 169.208 113.449 169.035 113.582 168.908C113.647 168.845 113.724 168.796 113.809 168.763C113.893 168.73 113.983 168.714 114.074 168.716C114.165 168.718 114.254 168.738 114.337 168.774C114.42 168.811 114.495 168.863 114.558 168.929C114.621 168.994 114.67 169.071 114.703 169.156C114.736 169.24 114.752 169.33 114.75 169.421L114.652 174.041C114.648 174.222 114.574 174.393 114.444 174.52C114.315 174.646 114.142 174.716 113.961 174.716ZM405.509 172.496C405.33 172.496 405.157 172.426 405.028 172.301C404.899 172.176 404.824 172.005 404.819 171.825C404.777 170.282 404.704 168.739 404.599 167.241C404.593 167.151 404.604 167.06 404.633 166.974C404.662 166.889 404.707 166.809 404.767 166.741C404.827 166.673 404.899 166.617 404.98 166.576C405.061 166.536 405.15 166.512 405.24 166.506C405.331 166.499 405.421 166.511 405.507 166.54C405.593 166.569 405.673 166.614 405.741 166.673C405.809 166.733 405.865 166.805 405.906 166.886C405.946 166.967 405.97 167.056 405.977 167.146C406.082 168.663 406.157 170.225 406.199 171.788C406.202 171.878 406.186 171.968 406.154 172.053C406.122 172.138 406.073 172.215 406.01 172.281C405.948 172.347 405.873 172.399 405.791 172.436C405.708 172.473 405.618 172.494 405.528 172.496L405.509 172.496ZM114.158 165.475H114.143C114.052 165.473 113.963 165.454 113.88 165.417C113.797 165.381 113.722 165.328 113.659 165.263C113.596 165.198 113.547 165.121 113.514 165.036C113.481 164.952 113.465 164.862 113.467 164.771L113.566 160.15C113.57 159.967 113.646 159.793 113.778 159.667C113.91 159.54 114.088 159.471 114.271 159.475C114.454 159.479 114.628 159.556 114.755 159.688C114.881 159.82 114.95 159.997 114.946 160.18L114.848 164.8C114.844 164.981 114.77 165.153 114.64 165.279C114.511 165.405 114.338 165.475 114.157 165.475H114.158ZM404.865 163.288C404.696 163.288 404.532 163.226 404.406 163.113C404.28 163.001 404.199 162.845 404.18 162.677C404.004 161.151 403.791 159.625 403.546 158.142C403.518 157.962 403.563 157.779 403.669 157.631C403.776 157.484 403.937 157.385 404.116 157.355C404.296 157.326 404.48 157.368 404.628 157.474C404.777 157.579 404.878 157.739 404.909 157.918C405.157 159.423 405.373 160.971 405.552 162.52C405.573 162.702 405.521 162.884 405.407 163.027C405.293 163.171 405.127 163.263 404.945 163.284C404.918 163.287 404.892 163.288 404.865 163.288ZM114.354 156.234H114.339C114.249 156.233 114.159 156.213 114.076 156.176C113.993 156.14 113.918 156.088 113.856 156.022C113.793 155.957 113.744 155.88 113.711 155.795C113.678 155.711 113.662 155.621 113.664 155.53L113.762 150.909C113.764 150.819 113.784 150.73 113.82 150.647C113.857 150.564 113.909 150.489 113.975 150.426C114.04 150.363 114.117 150.314 114.202 150.281C114.286 150.249 114.377 150.233 114.467 150.235C114.558 150.236 114.647 150.256 114.73 150.293C114.813 150.329 114.888 150.382 114.951 150.447C115.014 150.512 115.063 150.589 115.096 150.674C115.129 150.758 115.145 150.848 115.143 150.939L115.044 155.56C115.041 155.74 114.966 155.912 114.837 156.038C114.708 156.164 114.535 156.234 114.354 156.234ZM403.357 154.188C403.2 154.188 403.047 154.134 402.925 154.036C402.802 153.937 402.717 153.8 402.683 153.646C402.355 152.151 401.984 150.658 401.579 149.208C401.532 149.032 401.556 148.846 401.646 148.688C401.737 148.53 401.885 148.415 402.06 148.366C402.236 148.317 402.423 148.339 402.582 148.427C402.74 148.516 402.858 148.663 402.909 148.837C403.32 150.312 403.698 151.83 404.032 153.351C404.051 153.439 404.053 153.531 404.037 153.62C404.021 153.709 403.988 153.794 403.939 153.871C403.89 153.947 403.827 154.013 403.752 154.065C403.678 154.116 403.594 154.153 403.505 154.172C403.457 154.183 403.407 154.189 403.357 154.189V154.188ZM114.551 146.994H114.537C114.354 146.99 114.18 146.913 114.053 146.781C113.926 146.649 113.857 146.472 113.861 146.29L113.959 141.669C113.96 141.578 113.979 141.488 114.015 141.405C114.051 141.321 114.104 141.246 114.169 141.183C114.235 141.12 114.313 141.071 114.398 141.038C114.482 141.006 114.573 140.991 114.664 140.994C114.755 140.996 114.844 141.015 114.927 141.052C115.01 141.088 115.085 141.14 115.148 141.206C115.211 141.271 115.26 141.348 115.293 141.433C115.326 141.517 115.342 141.607 115.34 141.698L115.241 146.319C115.238 146.499 115.163 146.671 115.034 146.797C114.905 146.923 114.732 146.994 114.551 146.994ZM400.873 145.309C400.729 145.309 400.589 145.265 400.472 145.181C400.355 145.098 400.267 144.98 400.22 144.844C399.722 143.399 399.175 141.963 398.596 140.574C398.526 140.405 398.525 140.215 398.595 140.046C398.665 139.877 398.799 139.742 398.968 139.672C399.137 139.601 399.327 139.601 399.496 139.67C399.665 139.74 399.8 139.874 399.871 140.043C400.461 141.458 401.018 142.923 401.525 144.395C401.561 144.499 401.572 144.61 401.556 144.718C401.54 144.827 401.499 144.931 401.435 145.02C401.371 145.109 401.287 145.182 401.189 145.233C401.091 145.283 400.983 145.309 400.873 145.309ZM114.748 137.753H114.732C114.642 137.751 114.552 137.731 114.469 137.694C114.386 137.658 114.311 137.605 114.249 137.54C114.186 137.475 114.137 137.397 114.104 137.313C114.071 137.229 114.055 137.139 114.057 137.048L114.064 136.757L114.135 136.617C114.165 136.557 114.897 135.122 116.353 132.629C116.398 132.549 116.458 132.479 116.531 132.423C116.603 132.367 116.686 132.325 116.774 132.301C116.862 132.277 116.955 132.271 117.045 132.283C117.136 132.295 117.224 132.325 117.303 132.371C117.382 132.417 117.451 132.479 117.506 132.552C117.561 132.625 117.601 132.708 117.624 132.797C117.646 132.885 117.651 132.977 117.638 133.068C117.624 133.158 117.593 133.245 117.546 133.324C116.363 135.349 115.653 136.69 115.437 137.105C115.426 137.28 115.349 137.445 115.221 137.565C115.093 137.686 114.923 137.753 114.748 137.753ZM397.319 136.802C397.191 136.802 397.065 136.766 396.955 136.698C396.846 136.631 396.758 136.534 396.7 136.419C396.023 135.055 395.293 133.704 394.531 132.401C394.484 132.323 394.453 132.236 394.44 132.146C394.427 132.056 394.432 131.964 394.455 131.876C394.477 131.787 394.517 131.704 394.572 131.632C394.627 131.559 394.696 131.498 394.775 131.452C394.854 131.406 394.941 131.376 395.031 131.364C395.121 131.352 395.213 131.357 395.301 131.381C395.39 131.404 395.472 131.445 395.544 131.501C395.617 131.556 395.677 131.626 395.723 131.705C396.501 133.034 397.246 134.414 397.937 135.805C397.99 135.91 398.014 136.027 398.009 136.144C398.003 136.261 397.968 136.375 397.906 136.475C397.844 136.575 397.758 136.657 397.655 136.714C397.552 136.771 397.437 136.801 397.319 136.802ZM119.352 129.698C119.229 129.698 119.108 129.665 119.002 129.602C118.896 129.54 118.809 129.45 118.749 129.342C118.689 129.234 118.66 129.113 118.663 128.99C118.666 128.867 118.703 128.747 118.768 128.642C119.577 127.351 120.425 126.036 121.293 124.732C121.343 124.656 121.407 124.591 121.483 124.541C121.558 124.49 121.642 124.455 121.731 124.437C121.82 124.419 121.912 124.419 122.001 124.436C122.09 124.454 122.174 124.488 122.25 124.538C122.325 124.588 122.39 124.653 122.441 124.728C122.492 124.803 122.527 124.888 122.545 124.976C122.563 125.065 122.563 125.157 122.546 125.246C122.528 125.334 122.493 125.419 122.443 125.495C121.584 126.788 120.74 128.093 119.939 129.374C119.877 129.473 119.79 129.555 119.688 129.612C119.585 129.669 119.47 129.698 119.352 129.698V129.698ZM392.659 128.844C392.547 128.844 392.436 128.817 392.336 128.764C392.237 128.712 392.152 128.636 392.088 128.543C391.231 127.29 390.32 126.053 389.38 124.867C389.32 124.796 389.275 124.715 389.248 124.626C389.221 124.538 389.211 124.445 389.22 124.353C389.23 124.262 389.257 124.172 389.302 124.091C389.346 124.01 389.406 123.939 389.479 123.882C389.551 123.824 389.634 123.782 389.723 123.757C389.812 123.733 389.906 123.726 389.997 123.738C390.089 123.75 390.177 123.781 390.257 123.827C390.337 123.874 390.406 123.937 390.461 124.011C391.422 125.222 392.353 126.485 393.228 127.765C393.299 127.869 393.34 127.99 393.347 128.115C393.354 128.24 393.327 128.365 393.269 128.476C393.21 128.587 393.122 128.68 393.015 128.745C392.907 128.81 392.784 128.844 392.658 128.844H392.659ZM124.481 121.977C124.354 121.977 124.23 121.942 124.123 121.877C124.015 121.811 123.927 121.717 123.869 121.605C123.81 121.493 123.784 121.367 123.792 121.242C123.801 121.116 123.844 120.995 123.916 120.891C124.802 119.629 125.716 118.36 126.634 117.119C126.743 116.975 126.906 116.879 127.085 116.854C127.265 116.828 127.447 116.874 127.593 116.982C127.739 117.089 127.837 117.25 127.865 117.429C127.893 117.608 127.85 117.791 127.744 117.938C126.833 119.17 125.926 120.43 125.046 121.683C124.983 121.774 124.898 121.848 124.8 121.899C124.701 121.95 124.592 121.977 124.481 121.977ZM386.927 121.615C386.831 121.616 386.736 121.596 386.649 121.557C386.561 121.519 386.482 121.462 386.417 121.391C385.396 120.275 384.319 119.178 383.216 118.129C383.15 118.067 383.098 117.992 383.061 117.909C383.024 117.827 383.004 117.737 383.002 117.647C383 117.556 383.015 117.466 383.048 117.382C383.08 117.297 383.129 117.22 383.192 117.154C383.254 117.089 383.329 117.036 383.412 116.999C383.495 116.962 383.584 116.942 383.675 116.94C383.765 116.938 383.856 116.954 383.94 116.986C384.025 117.019 384.102 117.068 384.168 117.13C385.294 118.2 386.393 119.321 387.436 120.46C387.526 120.559 387.586 120.682 387.607 120.814C387.629 120.946 387.612 121.081 387.558 121.204C387.504 121.326 387.416 121.43 387.303 121.503C387.191 121.576 387.06 121.615 386.926 121.615H386.927ZM380.236 115.253C380.075 115.253 379.919 115.196 379.796 115.094C378.634 114.131 377.417 113.188 376.178 112.291C376.103 112.239 376.039 112.172 375.991 112.094C375.942 112.017 375.909 111.931 375.894 111.841C375.879 111.751 375.882 111.658 375.903 111.569C375.924 111.481 375.962 111.397 376.016 111.323C376.069 111.249 376.137 111.186 376.215 111.138C376.293 111.091 376.38 111.059 376.471 111.045C376.561 111.032 376.653 111.036 376.742 111.058C376.831 111.08 376.914 111.12 376.987 111.174C378.251 112.088 379.492 113.05 380.678 114.032C380.787 114.123 380.866 114.245 380.903 114.382C380.94 114.519 380.935 114.664 380.886 114.797C380.838 114.931 380.75 115.046 380.633 115.128C380.517 115.209 380.378 115.253 380.236 115.253ZM129.987 114.528C129.858 114.528 129.731 114.491 129.621 114.423C129.512 114.355 129.424 114.257 129.367 114.141C129.31 114.025 129.287 113.895 129.301 113.767C129.314 113.639 129.363 113.517 129.442 113.415C130.388 112.198 131.363 110.976 132.34 109.782C132.397 109.71 132.467 109.65 132.547 109.606C132.627 109.561 132.716 109.533 132.807 109.523C132.898 109.513 132.99 109.521 133.078 109.547C133.166 109.573 133.248 109.617 133.319 109.675C133.39 109.732 133.449 109.804 133.492 109.885C133.535 109.966 133.562 110.055 133.57 110.146C133.579 110.237 133.569 110.329 133.541 110.417C133.513 110.504 133.468 110.585 133.409 110.655C132.44 111.84 131.472 113.054 130.532 114.262C130.468 114.345 130.385 114.412 130.29 114.457C130.196 114.503 130.092 114.527 129.987 114.527V114.528ZM372.752 109.832C372.621 109.832 372.494 109.795 372.384 109.725C371.107 108.919 369.779 108.135 368.435 107.395C368.275 107.306 368.157 107.158 368.106 106.982C368.055 106.806 368.076 106.618 368.165 106.458C368.253 106.297 368.402 106.179 368.578 106.128C368.754 106.077 368.943 106.099 369.103 106.187C370.47 106.94 371.822 107.738 373.122 108.559C373.249 108.639 373.346 108.758 373.399 108.898C373.452 109.038 373.458 109.191 373.416 109.334C373.375 109.478 373.287 109.604 373.168 109.694C373.048 109.784 372.902 109.832 372.752 109.832H372.752ZM135.85 107.36C135.718 107.36 135.589 107.322 135.477 107.251C135.366 107.18 135.278 107.078 135.222 106.958C135.167 106.838 135.148 106.705 135.166 106.574C135.185 106.444 135.24 106.321 135.326 106.221C136.335 105.048 137.37 103.876 138.402 102.737C138.462 102.669 138.536 102.613 138.618 102.573C138.7 102.533 138.789 102.51 138.881 102.505C138.972 102.5 139.063 102.513 139.149 102.543C139.236 102.573 139.315 102.621 139.383 102.682C139.45 102.743 139.505 102.817 139.544 102.9C139.583 102.983 139.605 103.072 139.609 103.163C139.613 103.254 139.599 103.346 139.567 103.431C139.536 103.517 139.488 103.596 139.425 103.663C138.402 104.793 137.375 105.957 136.374 107.12C136.309 107.195 136.229 107.256 136.138 107.297C136.048 107.339 135.95 107.36 135.85 107.36ZM364.652 105.365C364.549 105.365 364.447 105.342 364.353 105.297C362.992 104.645 361.581 104.016 360.159 103.427C360.075 103.393 359.999 103.342 359.935 103.278C359.871 103.214 359.82 103.137 359.785 103.054C359.751 102.97 359.733 102.88 359.733 102.79C359.733 102.699 359.751 102.609 359.786 102.526C359.82 102.442 359.871 102.366 359.935 102.302C360 102.238 360.076 102.187 360.16 102.153C360.243 102.118 360.333 102.1 360.424 102.1C360.514 102.1 360.604 102.118 360.688 102.153C362.133 102.751 363.567 103.39 364.951 104.053C365.092 104.12 365.206 104.234 365.274 104.375C365.343 104.516 365.361 104.676 365.326 104.828C365.291 104.981 365.205 105.117 365.083 105.214C364.96 105.312 364.808 105.365 364.652 105.365H364.652ZM356.101 101.821C356.023 101.82 355.945 101.807 355.871 101.781C354.442 101.275 352.971 100.792 351.499 100.35C351.412 100.324 351.331 100.281 351.261 100.224C351.19 100.166 351.132 100.096 351.089 100.016C351.046 99.9363 351.02 99.8489 351.01 99.7588C351.001 99.6687 351.01 99.5776 351.036 99.4909C351.062 99.4042 351.105 99.3234 351.163 99.2533C351.22 99.1831 351.291 99.1249 351.37 99.0821C351.45 99.0392 351.538 99.0124 351.628 99.0033C351.718 98.9942 351.809 99.003 351.896 99.0291C353.39 99.478 354.882 99.9663 356.332 100.481C356.486 100.535 356.615 100.641 356.698 100.782C356.78 100.922 356.81 101.087 356.783 101.248C356.755 101.408 356.672 101.553 356.547 101.658C356.423 101.763 356.265 101.821 356.102 101.821H356.101ZM142.065 100.499C141.93 100.499 141.798 100.46 141.685 100.385C141.572 100.311 141.484 100.205 141.431 100.081C141.378 99.9569 141.362 99.82 141.386 99.6871C141.41 99.5543 141.472 99.4314 141.566 99.3337C142.633 98.2148 143.727 97.098 144.818 96.0149C144.882 95.9503 144.958 95.8989 145.042 95.8638C145.126 95.8287 145.217 95.8106 145.308 95.8105C145.399 95.8104 145.489 95.8283 145.573 95.8632C145.657 95.8981 145.734 95.9493 145.798 96.0139C145.862 96.0784 145.913 96.155 145.947 96.2392C145.982 96.3235 145.999 96.4137 145.999 96.5047C145.998 96.5957 145.98 96.6857 145.944 96.7695C145.908 96.8533 145.857 96.9292 145.792 96.9929C144.71 98.0674 143.624 99.1753 142.565 100.285C142.501 100.353 142.423 100.407 142.337 100.444C142.251 100.481 142.158 100.499 142.065 100.499H142.065ZM347.228 99.1516C347.172 99.1516 347.115 99.1446 347.061 99.1309C345.58 98.7617 344.069 98.4217 342.567 98.1205C342.477 98.1036 342.392 98.069 342.315 98.0189C342.239 97.9687 342.173 97.9039 342.122 97.8282C342.071 97.7525 342.036 97.6675 342.018 97.578C342 97.4885 342 97.3964 342.018 97.3069C342.036 97.2175 342.072 97.1325 342.123 97.0569C342.174 96.9812 342.24 96.9165 342.316 96.8664C342.392 96.8163 342.478 96.7818 342.568 96.765C342.657 96.7482 342.75 96.7493 342.839 96.7683C344.361 97.0736 345.894 97.4182 347.395 97.7927C347.559 97.8334 347.702 97.9324 347.797 98.0711C347.893 98.2099 347.934 98.3787 347.914 98.5458C347.893 98.7128 347.812 98.8667 347.686 98.9783C347.56 99.0899 347.397 99.1515 347.229 99.1516H347.228ZM338.134 97.3283C338.099 97.3284 338.064 97.3257 338.029 97.3203C336.48 97.0849 334.942 96.8902 333.458 96.7419C333.367 96.7343 333.278 96.7086 333.197 96.6664C333.115 96.6241 333.043 96.5661 332.984 96.4957C332.926 96.4253 332.882 96.3439 332.855 96.2563C332.828 96.1687 332.819 96.0767 332.828 95.9856C332.837 95.8944 332.865 95.8061 332.908 95.7256C332.952 95.6451 333.012 95.5741 333.083 95.5167C333.154 95.4594 333.237 95.4169 333.325 95.3916C333.413 95.3664 333.505 95.3589 333.596 95.3696C335.104 95.52 336.665 95.7177 338.237 95.9568C338.409 95.9829 338.565 96.073 338.674 96.209C338.782 96.345 338.835 96.5169 338.822 96.6903C338.809 96.8637 338.731 97.0257 338.603 97.1441C338.476 97.2624 338.308 97.3282 338.134 97.3283H338.134ZM328.923 96.2904C328.774 96.2906 328.628 96.2422 328.509 96.1524C327.279 95.2273 326.031 94.305 324.799 93.411C324.724 93.3584 324.661 93.2914 324.612 93.2139C324.563 93.1365 324.53 93.0502 324.515 92.9599C324.5 92.8697 324.503 92.7774 324.524 92.6884C324.545 92.5993 324.584 92.5154 324.638 92.4414C324.692 92.3674 324.76 92.3048 324.838 92.2574C324.916 92.2099 325.003 92.1784 325.094 92.1648C325.184 92.1513 325.277 92.1558 325.365 92.1782C325.454 92.2006 325.538 92.2404 325.611 92.2953C326.848 93.1937 328.103 94.1206 329.339 95.0503C329.455 95.1372 329.541 95.2585 329.584 95.3968C329.627 95.5351 329.625 95.6834 329.579 95.8208C329.533 95.9582 329.445 96.0776 329.328 96.1622C329.21 96.2467 329.068 96.292 328.923 96.2917L328.923 96.2904ZM148.632 93.9777C148.493 93.9777 148.358 93.9363 148.244 93.8586C148.129 93.781 148.041 93.6708 147.99 93.5423C147.939 93.4138 147.927 93.273 147.958 93.1381C147.988 93.0032 148.058 92.8804 148.158 92.7857C149.287 91.7243 150.442 90.6707 151.589 89.6511C151.726 89.5296 151.906 89.4674 152.088 89.4781C152.271 89.4889 152.442 89.5717 152.564 89.7085C152.685 89.8452 152.748 90.0246 152.737 90.2072C152.726 90.3898 152.643 90.5607 152.506 90.6822C151.369 91.6921 150.224 92.7376 149.104 93.7901C148.977 93.9108 148.808 93.9779 148.632 93.9777ZM321.439 90.858C321.298 90.8581 321.16 90.8145 321.044 90.7332C319.784 89.8516 318.505 88.9736 317.242 88.1237C317.09 88.0215 316.985 87.8633 316.95 87.6837C316.915 87.5042 316.952 87.3181 317.055 87.1663C317.157 87.0146 317.315 86.9097 317.495 86.8747C317.675 86.8396 317.861 86.8774 318.013 86.9795C319.283 87.8343 320.569 88.7171 321.836 89.6035C321.956 89.6877 322.046 89.808 322.094 89.9469C322.141 90.0859 322.142 90.2362 322.098 90.3761C322.054 90.516 321.966 90.6382 321.848 90.7248C321.729 90.8115 321.586 90.8582 321.439 90.858ZM155.553 87.8359C155.411 87.836 155.273 87.7925 155.157 87.7113C155.041 87.63 154.952 87.5151 154.904 87.382C154.855 87.2489 154.849 87.1041 154.886 86.9673C154.923 86.8306 155.001 86.7084 155.109 86.6175C156.302 85.6204 157.516 84.6356 158.72 83.6903C158.864 83.5791 159.046 83.5292 159.227 83.5516C159.408 83.5739 159.572 83.6667 159.685 83.8097C159.797 83.9526 159.849 84.1342 159.828 84.3149C159.807 84.4956 159.716 84.6608 159.573 84.7744C158.381 85.7112 157.177 86.6871 155.996 87.6752C155.872 87.7791 155.715 87.836 155.553 87.8359ZM313.766 85.6961C313.633 85.6962 313.503 85.6577 313.392 85.5855C312.095 84.7484 310.783 83.9202 309.493 83.1236C309.344 83.0246 309.239 82.8714 309.201 82.6964C309.162 82.5214 309.194 82.3383 309.288 82.186C309.382 82.0337 309.532 81.924 309.706 81.8801C309.88 81.8363 310.064 81.8618 310.219 81.9511C311.517 82.7525 312.836 83.5857 314.141 84.4278C314.266 84.5086 314.362 84.6277 314.414 84.7674C314.465 84.907 314.471 85.0597 314.428 85.2025C314.386 85.3453 314.299 85.4707 314.179 85.5598C314.06 85.6488 313.915 85.6969 313.766 85.6967V85.6961ZM162.828 82.1213C162.683 82.1214 162.541 82.0756 162.423 81.9904C162.305 81.9053 162.217 81.7851 162.172 81.647C162.126 81.509 162.126 81.3601 162.17 81.2217C162.214 81.0832 162.301 80.9623 162.418 80.8762C163.67 79.9566 164.945 79.0492 166.207 78.1825C166.358 78.0789 166.544 78.0394 166.724 78.0727C166.904 78.106 167.064 78.2095 167.168 78.3602C167.271 78.511 167.311 78.6968 167.278 78.8767C167.244 79.0566 167.141 79.2159 166.99 79.3196C165.739 80.1775 164.477 81.075 163.239 81.9863C163.12 82.0741 162.976 82.1214 162.829 82.1213H162.828ZM305.897 80.838C305.774 80.8379 305.653 80.8048 305.547 80.7421C304.219 79.9605 302.875 79.1874 301.551 78.4462C301.471 78.4019 301.402 78.3425 301.346 78.2714C301.29 78.2003 301.248 78.1188 301.224 78.0316C301.199 77.9444 301.192 77.8532 301.202 77.7633C301.213 77.6733 301.241 77.5864 301.286 77.5073C301.33 77.4283 301.389 77.3588 301.461 77.3027C301.532 77.2467 301.614 77.2052 301.701 77.1806C301.788 77.156 301.879 77.1489 301.969 77.1595C302.059 77.1702 302.146 77.1985 302.226 77.2427C303.558 77.9892 304.912 78.7667 306.248 79.5541C306.379 79.6309 306.481 79.7485 306.538 79.8888C306.595 80.0291 306.604 80.1842 306.564 80.3302C306.524 80.4763 306.437 80.6051 306.317 80.6969C306.196 80.7886 306.049 80.8382 305.897 80.838ZM170.457 76.8876C170.308 76.8878 170.163 76.8395 170.043 76.7501C169.923 76.6607 169.836 76.5349 169.794 76.3916C169.752 76.2483 169.758 76.0953 169.81 75.9555C169.863 75.8158 169.959 75.6968 170.085 75.6165C171.394 74.7822 172.727 73.9643 174.049 73.1854C174.127 73.1394 174.213 73.1092 174.303 73.0965C174.393 73.0838 174.484 73.0889 174.572 73.1116C174.66 73.1342 174.742 73.1739 174.815 73.2283C174.887 73.2828 174.948 73.351 174.994 73.429C175.04 73.507 175.07 73.5933 175.083 73.683C175.096 73.7726 175.091 73.864 175.068 73.9517C175.045 74.0394 175.006 74.1218 174.951 74.1941C174.897 74.2665 174.828 74.3274 174.75 74.3735C173.442 75.1441 172.123 75.9535 170.828 76.779C170.718 76.8499 170.589 76.8876 170.457 76.8876ZM297.829 76.3213C297.717 76.3212 297.606 76.2935 297.507 76.2406C296.146 75.5192 294.768 74.8096 293.411 74.1312C293.249 74.0478 293.128 73.9045 293.072 73.7322C293.016 73.5599 293.03 73.3724 293.111 73.2104C293.192 73.0483 293.333 72.9247 293.505 72.8661C293.677 72.8076 293.865 72.8189 294.028 72.8976C295.396 73.581 296.784 74.2958 298.154 75.0222C298.29 75.0943 298.399 75.21 298.461 75.3507C298.524 75.4914 298.538 75.649 298.501 75.7985C298.464 75.948 298.377 76.0807 298.256 76.1755C298.134 76.2702 297.984 76.3216 297.83 76.3213H297.829ZM178.425 72.1932C178.271 72.1933 178.122 72.1423 178 72.0481C177.879 71.954 177.793 71.8221 177.755 71.6733C177.717 71.5245 177.73 71.3674 177.792 71.2268C177.853 71.0862 177.96 70.9701 178.095 70.897C179.46 70.1579 180.85 69.4386 182.225 68.7591C182.306 68.7182 182.395 68.6938 182.486 68.6873C182.576 68.6809 182.668 68.6924 182.754 68.7212C182.84 68.7501 182.92 68.7957 182.989 68.8555C183.057 68.9152 183.113 68.988 183.154 69.0695C183.194 69.151 183.218 69.2397 183.224 69.3305C183.23 69.4212 183.218 69.5122 183.188 69.5983C183.159 69.6844 183.113 69.7638 183.052 69.8319C182.992 69.9001 182.919 69.9556 182.837 69.9954C181.477 70.6674 180.103 71.3787 178.753 72.1104C178.652 72.1649 178.539 72.1934 178.425 72.1932ZM289.555 72.189C289.453 72.1891 289.353 72.1668 289.262 72.1237C287.866 71.4697 286.454 70.8306 285.065 70.2242C284.982 70.1879 284.907 70.1357 284.844 70.0705C284.781 70.0052 284.732 69.9283 284.699 69.8439C284.666 69.7596 284.65 69.6696 284.651 69.579C284.653 69.4885 284.672 69.3991 284.709 69.3161C284.745 69.2331 284.797 69.158 284.863 69.0952C284.928 69.0323 285.005 68.9829 285.089 68.9499C285.174 68.9168 285.264 68.9006 285.355 68.9023C285.445 68.904 285.535 68.9235 285.618 68.9598C287.017 69.5713 288.44 70.2154 289.847 70.8745C289.989 70.9411 290.104 71.0542 290.174 71.195C290.243 71.3358 290.262 71.496 290.228 71.6491C290.193 71.8022 290.108 71.939 289.986 72.0371C289.863 72.1352 289.711 72.1886 289.554 72.1886L289.555 72.189ZM281.079 68.4896C280.99 68.4896 280.902 68.4724 280.82 68.4391C279.395 67.863 277.951 67.3032 276.527 66.7749C276.355 66.7112 276.216 66.582 276.139 66.4158C276.063 66.2495 276.056 66.0598 276.12 65.8883C276.184 65.7168 276.313 65.5777 276.479 65.5014C276.646 65.4252 276.836 65.4181 277.007 65.4817C278.444 66.0146 279.901 66.5795 281.338 67.1599C281.487 67.2199 281.61 67.3296 281.686 67.4704C281.763 67.6112 281.788 67.7741 281.757 67.9313C281.727 68.0885 281.642 68.2302 281.518 68.332C281.395 68.4338 281.239 68.4893 281.079 68.4892V68.4896ZM186.715 68.0988C186.557 68.099 186.404 68.045 186.281 67.9457C186.158 67.8464 186.073 67.708 186.039 67.5535C186.006 67.3989 186.027 67.2378 186.099 67.0969C186.171 66.956 186.288 66.8439 186.433 66.7795C187.849 66.1464 189.289 65.5358 190.716 64.9647C190.885 64.899 191.074 64.9028 191.24 64.9751C191.407 65.0474 191.538 65.1826 191.606 65.3511C191.674 65.5197 191.672 65.7081 191.602 65.8754C191.531 66.0428 191.397 66.1756 191.229 66.245C189.82 66.8094 188.396 67.4128 186.997 68.0381C186.908 68.078 186.813 68.0986 186.715 68.0986V68.0988ZM272.408 65.2753C272.333 65.2753 272.258 65.2631 272.187 65.239C270.729 64.7477 269.254 64.2764 267.803 63.838C267.628 63.7844 267.482 63.664 267.396 63.503C267.31 63.342 267.292 63.1537 267.345 62.9791C267.398 62.8046 267.518 62.6581 267.678 62.5716C267.839 62.4851 268.027 62.4658 268.202 62.5178C269.667 62.9603 271.156 63.4373 272.628 63.932C272.784 63.9843 272.915 64.0899 273 64.2301C273.084 64.3703 273.116 64.5359 273.089 64.6973C273.063 64.8588 272.98 65.0055 272.855 65.1114C272.73 65.2173 272.572 65.2754 272.408 65.2753ZM195.298 64.662C195.135 64.6619 194.977 64.6043 194.853 64.4995C194.728 64.3946 194.645 64.2492 194.617 64.0889C194.59 63.9286 194.62 63.7637 194.702 63.6234C194.785 63.4831 194.914 63.3764 195.068 63.3221C196.526 62.8051 198.012 62.3127 199.482 61.8584C199.569 61.8306 199.661 61.8202 199.752 61.8279C199.843 61.8356 199.931 61.8613 200.012 61.9034C200.093 61.9455 200.165 62.0033 200.223 62.0733C200.282 62.1434 200.326 62.2243 200.353 62.3114C200.38 62.3985 200.389 62.4901 200.381 62.5809C200.372 62.6717 200.345 62.7598 200.302 62.8403C200.259 62.9207 200.2 62.9918 200.13 63.0494C200.059 63.1071 199.978 63.1502 199.89 63.1762C198.437 63.6249 196.97 64.1114 195.529 64.6222C195.455 64.6484 195.376 64.6618 195.298 64.6617V64.662ZM263.553 62.6028C263.493 62.6029 263.433 62.5952 263.375 62.5798C261.891 62.1842 260.389 61.8111 258.911 61.4706C258.732 61.4295 258.577 61.3193 258.48 61.1643C258.383 61.0092 258.352 60.8219 258.393 60.6437C258.434 60.4654 258.544 60.3108 258.699 60.2138C258.855 60.1168 259.042 60.0854 259.221 60.1264C260.715 60.4713 262.233 60.8474 263.731 61.2471C263.893 61.2901 264.034 61.3905 264.128 61.5296C264.221 61.6688 264.261 61.8372 264.239 62.0033C264.217 62.1695 264.135 62.322 264.009 62.4325C263.883 62.5429 263.721 62.6037 263.553 62.6035V62.6028ZM204.128 61.9361C203.961 61.9359 203.799 61.8748 203.673 61.7642C203.547 61.6536 203.466 61.5011 203.445 61.335C203.423 61.169 203.463 61.0008 203.556 60.8619C203.65 60.7229 203.79 60.6226 203.952 60.5798C205.446 60.1857 206.967 59.8191 208.474 59.4889C208.653 59.4497 208.84 59.4831 208.995 59.5818C209.149 59.6804 209.257 59.8362 209.297 60.0149C209.336 60.1936 209.303 60.3806 209.204 60.5347C209.105 60.6888 208.949 60.7974 208.77 60.8366C207.282 61.1621 205.78 61.5244 204.306 61.9134C204.248 61.9282 204.189 61.9356 204.129 61.9352L204.128 61.9361ZM254.541 60.5308C254.497 60.5308 254.453 60.5265 254.409 60.5182C252.903 60.2273 251.378 59.9618 249.878 59.7292C249.698 59.7005 249.536 59.6016 249.429 59.4541C249.321 59.3066 249.276 59.1226 249.304 58.9423C249.332 58.762 249.431 58.6002 249.578 58.4922C249.725 58.3842 249.909 58.3389 250.09 58.3661C251.607 58.6016 253.148 58.8698 254.671 59.1639C254.84 59.1963 254.991 59.2903 255.094 59.4276C255.196 59.565 255.245 59.7357 255.228 59.9065C255.212 60.0773 255.133 60.2359 255.005 60.3513C254.878 60.4668 254.713 60.5308 254.541 60.5308ZM213.156 59.9598C212.983 59.9594 212.817 59.8945 212.69 59.7778C212.563 59.661 212.484 59.501 212.469 59.3292C212.455 59.1573 212.505 58.9862 212.61 58.8495C212.715 58.7128 212.868 58.6205 213.038 58.5908C214.561 58.3245 216.107 58.088 217.636 57.8875C217.726 57.8757 217.817 57.8817 217.904 57.9052C217.992 57.9287 218.074 57.9692 218.146 58.0243C218.218 58.0795 218.278 58.1482 218.324 58.2267C218.369 58.3052 218.398 58.3918 218.41 58.4816C218.422 58.5714 218.416 58.6626 218.392 58.7501C218.369 58.8375 218.328 58.9195 218.273 58.9914C218.218 59.0632 218.149 59.1235 218.07 59.1687C217.992 59.214 217.905 59.2433 217.815 59.2551C216.307 59.4531 214.779 59.6866 213.276 59.9494C213.237 59.956 213.197 59.9591 213.157 59.9588L213.156 59.9598ZM245.402 59.1151C245.375 59.1151 245.348 59.1135 245.322 59.1103C243.798 58.9331 242.258 58.7841 240.745 58.6678C240.562 58.6537 240.393 58.5678 240.274 58.4289C240.154 58.29 240.095 58.1095 240.109 57.9271C240.123 57.7447 240.209 57.5753 240.349 57.4563C240.488 57.3373 240.668 57.2783 240.851 57.2923C242.382 57.4103 243.94 57.5608 245.481 57.7402C245.657 57.76 245.818 57.8461 245.932 57.981C246.046 58.1158 246.103 58.289 246.093 58.4651C246.083 58.6411 246.006 58.8066 245.877 58.9275C245.749 59.0484 245.579 59.1155 245.402 59.1151ZM222.32 58.757C222.142 58.7572 221.97 58.6887 221.842 58.5658C221.713 58.4429 221.637 58.275 221.629 58.0973C221.621 57.9196 221.682 57.7458 221.8 57.6121C221.917 57.4785 222.082 57.3954 222.26 57.3801C223.795 57.2445 225.357 57.1399 226.901 57.0689C226.993 57.0633 227.084 57.0759 227.171 57.106C227.257 57.1361 227.337 57.1831 227.405 57.2442C227.473 57.3054 227.528 57.3794 227.568 57.462C227.607 57.5447 227.629 57.6343 227.633 57.7257C227.637 57.817 227.623 57.9083 227.592 57.9942C227.561 58.0801 227.512 58.1588 227.45 58.2259C227.388 58.293 227.313 58.3471 227.23 58.385C227.146 58.4229 227.056 58.4438 226.965 58.4466C225.44 58.5156 223.898 58.6202 222.381 58.7542C222.36 58.7554 222.34 58.757 222.32 58.757ZM236.182 58.4061C236.173 58.4061 236.165 58.4061 236.156 58.4061C234.784 58.356 233.398 58.3305 232.036 58.3305H231.56H231.556C231.373 58.3309 231.197 58.2586 231.068 58.1295C230.938 58.0004 230.865 57.8251 230.864 57.6422C230.864 57.4593 230.937 57.2837 231.066 57.1542C231.195 57.0246 231.37 56.9515 231.553 56.9512H232.035C233.416 56.9512 234.818 56.9769 236.206 57.0277C236.389 57.031 236.564 57.1068 236.691 57.2385C236.818 57.3702 236.887 57.5469 236.884 57.7298C236.881 57.9127 236.805 58.0868 236.673 58.2138C236.541 58.3409 236.364 58.4104 236.181 58.4071L236.182 58.4061Z" fill="#7B7DB5"/>
<path d="M388.494 250.933C388.381 250.933 388.27 250.905 388.171 250.853C388.072 250.8 387.987 250.724 387.923 250.631C387.86 250.538 387.82 250.431 387.808 250.32C387.796 250.208 387.811 250.095 387.852 249.99C388.135 249.275 388.414 248.563 388.689 247.854C388.721 247.768 388.769 247.69 388.832 247.623C388.894 247.556 388.97 247.502 389.053 247.465C389.136 247.428 389.226 247.407 389.318 247.405C389.409 247.402 389.5 247.418 389.586 247.451C389.671 247.484 389.749 247.534 389.815 247.597C389.881 247.66 389.933 247.736 389.97 247.82C390.006 247.904 390.025 247.994 390.027 248.085C390.028 248.177 390.011 248.267 389.976 248.352C389.7 249.064 389.42 249.779 389.136 250.497C389.085 250.626 388.996 250.736 388.882 250.814C388.767 250.891 388.632 250.933 388.494 250.933Z" fill="#7B7DB5"/>
<path d="M345.253 93.5282C344.701 105.977 332.207 119.843 332.207 119.843C332.207 119.843 320.398 106.388 319.805 93.5282C319.409 84.9266 325.502 79.9492 332.529 79.9492C339.556 79.9492 345.581 86.1338 345.253 93.5282Z" fill="#ECA7A9"/>
<path d="M332.493 101.142C336.785 101.142 340.265 97.6654 340.265 93.3774C340.265 89.0894 336.785 85.6133 332.493 85.6133C328.2 85.6133 324.721 89.0894 324.721 93.3774C324.721 97.6654 328.2 101.142 332.493 101.142Z" fill="#DD5557"/>
<path d="M135.296 157.183C134.364 178.214 113.256 201.641 113.256 201.641C113.256 201.641 93.3042 178.909 92.3034 157.183C91.634 142.651 101.928 134.242 113.8 134.242C125.672 134.242 135.85 144.69 135.296 157.183Z" fill="#9395D1"/>
<path d="M113.739 170.046C120.99 170.046 126.869 164.174 126.869 156.929C126.869 149.685 120.99 143.812 113.739 143.812C106.487 143.812 100.608 149.685 100.608 156.929C100.608 164.174 106.487 170.046 113.739 170.046Z" fill="#404396"/>
<path d="M398.239 250.239C397.822 259.652 388.374 270.137 388.374 270.137C388.374 270.137 379.444 259.963 378.996 250.239C378.697 243.734 383.304 239.971 388.618 239.971C393.932 239.971 398.487 244.647 398.239 250.239Z" fill="#7B7DB5"/>
<path d="M388.59 255.996C391.836 255.996 394.467 253.367 394.467 250.125C394.467 246.882 391.836 244.254 388.59 244.254C385.344 244.254 382.713 246.882 382.713 250.125C382.713 253.367 385.344 255.996 388.59 255.996Z" fill="#404396"/>
<path d="M245.935 207.41L245.92 207.479L245.916 207.505C245.164 211.113 244.393 214.912 243.621 218.795L243.564 219.079C238.052 246.772 234.613 277.13 234.613 277.13L222.793 276.664L224.596 184.582L237.682 184.741L245.935 207.41Z" fill="#404396"/>
<path d="M283.675 277.364L269.77 278.288L245.921 207.479L240.653 192.939L240.533 192.614L237.682 184.742L264.588 184.58L267.497 199.358L283.675 277.364Z" fill="#404396"/>
<path d="M220.882 288.183H209.066C209.066 286.618 209.689 285.117 210.797 284.01C211.905 282.903 213.407 282.281 214.974 282.281C216.541 282.281 218.044 282.903 219.152 284.01C220.26 285.117 220.882 286.618 220.882 288.183Z" fill="white"/>
<path d="M286.299 291.725H270.606C270.71 290.078 271.329 288.506 272.377 287.232C273.425 285.957 274.848 285.044 276.444 284.622C278.041 284.201 279.729 284.292 281.271 284.883C282.813 285.473 284.129 286.534 285.033 287.914V287.916C285.781 289.053 286.217 290.366 286.299 291.725Z" fill="white"/>
<path d="M220.882 288.184H209.066C209.065 289.167 209.31 290.135 209.78 290.999H231.321V288.184H220.882Z" fill="#19274A"/>
<path d="M232.411 278.832L231.322 288.183H220.882C220.882 287.408 220.73 286.641 220.433 285.925C220.136 285.209 219.701 284.558 219.152 284.01C218.603 283.462 217.952 283.028 217.235 282.731C216.519 282.434 215.75 282.282 214.975 282.282C214.975 282.282 217.127 282.102 219.37 282.077C219.546 282.075 219.724 282.074 219.899 282.075C219.899 282.075 220.682 284.44 221.493 284.552C222.09 284.611 222.692 284.601 223.288 284.522C223.711 284.49 224.124 284.377 224.503 284.188C225.139 283.779 224.594 281.631 224.594 281.631C225.034 280.768 224.594 278.832 224.594 278.832H232.411Z" fill="#FFAA40"/>
<path d="M285.033 287.915C284.334 286.849 283.386 285.968 282.27 285.35C281.155 284.731 279.905 284.393 278.63 284.364C277.354 284.336 276.09 284.618 274.948 285.186C273.806 285.754 272.819 286.591 272.073 287.625L272.769 281.555H283.675L285.033 287.915Z" fill="#FFAA40"/>
<path d="M246.147 207.526L245.809 207.457L245.72 207.49L245.696 207.434L245.697 207.429L240.437 193.019L240.869 192.861L246.174 207.393L246.147 207.526Z" fill="#19274A"/>
<path d="M224.783 201.578L224.406 201C224.475 200.954 231.279 196.391 232.341 184.65L233.029 184.713C231.935 196.807 225.074 201.389 224.783 201.578Z" fill="#19274A"/>
<path d="M267.329 199.659C258.58 194.81 255.651 184.986 255.622 184.887L256.285 184.695C256.313 184.791 259.17 194.348 267.664 199.055L267.329 199.659Z" fill="#19274A"/>
<path d="M224.505 284.188C224.125 284.377 223.712 284.49 223.289 284.522C222.686 283.919 222.458 282.65 222.385 282.102C223.259 282.109 223.937 282.095 224.211 281.997C224.382 281.929 224.52 281.798 224.596 281.631C224.596 281.631 225.14 283.778 224.505 284.188Z" fill="#404396"/>
<path d="M223.289 284.521C222.693 284.6 222.091 284.61 221.494 284.551C220.684 284.439 219.9 282.074 219.9 282.074C220.782 282.074 221.652 282.096 222.386 282.101C222.457 282.649 222.685 283.918 223.289 284.521Z" fill="#404396"/>
<path d="M270.606 291.725H286.298V292.23C286.298 292.77 286.083 293.288 285.701 293.67C285.319 294.052 284.801 294.266 284.26 294.266H272.643C272.103 294.266 271.584 294.052 271.202 293.67C270.82 293.288 270.605 292.77 270.605 292.23V291.725H270.606Z" fill="#19274A"/>
<path d="M239.265 130.578C239.51 130.533 247.998 130.702 247.998 130.702C247.998 130.702 255.699 130.758 258.06 132.219C258.06 132.219 252.102 139.07 249.853 139.294C247.605 139.519 242.546 140.417 240.972 139.407C239.398 138.396 239.061 138.957 238.948 137.048C238.836 135.139 239.265 130.578 239.265 130.578Z" fill="#404396"/>
<path d="M265.99 184.973C265.721 185.242 264.56 185.465 262.783 185.643C252.984 186.625 224.434 186.264 223.142 184.973C222.631 184.463 222.32 179.965 222.134 174.204C229.178 174.406 253.946 174.869 266.368 171.873C266.366 174.273 266.42 176.604 266.448 178.621C266.495 181.996 266.47 184.493 265.99 184.973Z" fill="#9395D1"/>
<path d="M266.885 157.219C266.701 160.265 266.43 165.461 266.376 170.542C266.371 170.987 266.368 171.43 266.368 171.871C253.947 174.867 229.178 174.404 222.134 174.202C221.973 169.251 221.904 163.364 221.877 158.273C229.42 158.936 254.032 160.729 266.885 157.219Z" fill="#9395D1"/>
<path d="M267.577 190.166L262.783 185.642C264.56 185.464 265.721 185.241 265.99 184.972C266.47 184.492 266.496 181.995 266.448 178.62L275.208 161.842L267.521 157.039L266.92 156.663C266.91 156.839 266.897 157.025 266.886 157.22C254.033 160.729 229.422 158.937 221.878 158.274C221.841 151.573 221.879 146.248 221.879 146.248C215.032 144.607 207.194 142.576 205.384 141.492C200.239 138.407 185.998 110.727 185.998 110.727L190.648 106.271L208.863 125.957C214.058 126.774 232.521 129.56 239.265 130.577C239.265 130.577 240.842 137.334 247.539 137.68C253.329 137.98 257.17 131.653 257.17 131.653C264.617 135.211 285.579 145.931 287.865 154.861C290.024 163.293 267.577 190.166 267.577 190.166Z" fill="#9395D1"/>
<path d="M209.031 125.801L208.693 126.113L211.648 129.309L211.986 128.997L209.031 125.801Z" fill="#19274A"/>
<path d="M267.149 156.678L266.688 156.649C266.773 155.305 266.832 154.502 266.832 154.502L267.291 154.536C267.291 154.536 267.233 155.338 267.149 156.678Z" fill="#19274A"/>
<path d="M275.33 161.649L275.086 162.039L276.806 163.113L277.05 162.723L275.33 161.649Z" fill="#19274A"/>
<path d="M222.021 136.93L221.684 165.736L222.144 165.742L222.482 136.936L222.021 136.93Z" fill="#19274A"/>
<path d="M251.344 123.194C251.202 123.176 251.058 123.148 250.908 123.114C250.068 124.402 247.308 128.361 244.561 129.247C244.146 129.389 243.706 129.446 243.269 129.415C235.798 128.789 236.888 119.287 237.244 117.079C237.444 117.184 237.119 117.983 237.661 117.862C238.989 117.565 241.939 115.122 242.073 115.012C242.576 115.211 243.073 115.413 243.562 115.617C244.855 116.155 246.094 116.712 247.281 117.288C248.312 117.788 249.3 118.303 250.243 118.833C250.871 118.41 252.142 117.696 253.324 117.899C253.723 117.965 254.094 118.141 254.398 118.407C254.446 118.446 254.492 118.489 254.536 118.534C255.807 119.802 254.877 123.683 251.344 123.194Z" fill="#FD8680"/>
<path d="M242.199 115.203L242.073 115.011L241.915 114.844L242.057 114.987L241.947 114.818L242.057 114.987L242.24 115.17L242.199 115.203Z" fill="#2DEA43"/>
<path d="M242.072 115.01C241.939 115.122 238.988 117.564 237.66 117.861C237.119 117.981 237.443 117.183 237.243 117.078C236.431 116.647 234.279 119.753 233.864 118.956C233.449 118.158 236.476 115.932 236.082 115.203C235.516 114.156 231.351 116.897 231.351 115.794C231.351 114.167 236.226 113.466 237.458 113.314C238.211 113.573 238.951 113.834 239.678 114.099C240.492 114.398 241.29 114.702 242.072 115.01Z" fill="#8E3332"/>
<path d="M253.325 117.897C252.143 117.694 250.872 118.408 250.244 118.831C249.301 118.301 248.314 117.786 247.282 117.286C247.909 116.007 248.991 114.262 249.607 113.295C251.58 114.62 253.111 116.199 253.325 117.897Z" fill="#404396"/>
<path d="M241.512 109.675C240.794 110.998 239.993 113.206 239.678 114.1C238.952 113.835 238.212 113.573 237.459 113.315C237.459 113.315 238.259 109.791 239.553 109.394C239.893 109.349 240.239 109.371 240.57 109.457C240.845 109.508 241.161 109.581 241.512 109.675Z" fill="#7B7DB5"/>
<path d="M245.518 111.102C244.789 112.572 244.136 114.079 243.562 115.617C243.073 115.412 242.576 115.21 242.072 115.011C241.291 114.702 240.494 114.399 239.679 114.101C239.993 113.207 240.794 110.999 241.512 109.676C242.88 110.054 244.219 110.53 245.518 111.102Z" fill="#404396"/>
<path d="M249.606 113.297C248.99 114.264 247.908 116.009 247.282 117.287C246.097 116.711 244.857 116.154 243.562 115.617C244.137 114.079 244.79 112.572 245.519 111.102C246.943 111.711 248.311 112.446 249.606 113.297Z" fill="#7B7DB5"/>
<path d="M256.22 113.852C256.145 112.294 255.373 110.389 253.906 108.826C253.331 108.211 252.673 107.678 251.953 107.241C250.54 106.395 248.938 105.912 247.292 105.838C243.354 105.618 241.166 108.528 240.57 109.457C240.845 109.508 241.161 109.581 241.512 109.675C242.879 110.053 244.218 110.529 245.516 111.1C246.941 111.71 248.31 112.444 249.605 113.295C251.579 114.621 253.11 116.2 253.323 117.897C253.721 117.963 254.093 118.139 254.397 118.405C254.935 117.462 256.273 114.983 256.22 113.852ZM248.637 111.334C248.179 111.275 245.354 109.67 245.431 109.015C245.477 108.628 246.434 107.862 246.818 108.026C247.203 108.19 249.775 109.133 249.775 109.71C249.775 110.286 249.095 111.392 248.637 111.334Z" fill="#404396"/>
<path d="M253.906 108.826C253.331 108.212 252.673 107.679 251.953 107.242C251.953 107.242 252.714 106.143 253.906 106.991C255.07 107.819 253.906 108.826 253.906 108.826Z" fill="#404396"/>
<path d="M249.775 109.709C249.775 110.286 249.095 111.393 248.636 111.334C248.178 111.275 245.354 109.67 245.43 109.015C245.476 108.629 246.433 107.863 246.818 108.027C247.202 108.19 249.775 109.133 249.775 109.709Z" fill="#FEFEFE"/>
<path d="M251.35 121.093L250.981 120.817C250.992 120.803 252.03 119.448 253.628 120.009L253.475 120.443C252.201 119.995 251.384 121.048 251.35 121.093Z" fill="#CC5754"/>
<path d="M251.344 123.193L251.313 131.319C249.518 134.956 247.242 135.444 244.423 134.407L244.561 129.246C247.308 128.36 250.069 124.4 250.908 123.113C251.058 123.148 251.202 123.175 251.344 123.193Z" fill="#FD8680"/>
<path d="M244.561 129.248C246.106 128.749 247.656 127.278 248.864 125.857C248.864 125.857 248.503 129.425 244.423 131.661L244.561 129.247V129.248Z" fill="#CC5754"/>
<path d="M191.769 107.526C191.769 107.526 188.478 99.7379 188.018 100.41C187.558 101.083 188.538 103.511 188.538 103.511L187.16 103.69C187.16 103.69 182.859 99.466 182.134 99.9051C181.409 100.344 185.121 104.006 185.121 104.006C185.121 104.006 181.514 101.333 180.433 101.593C179.353 101.854 183.815 105.323 183.815 105.323C183.815 105.323 180.499 103.13 179.924 103.61C179.348 104.091 186.057 110.99 186.057 110.99L191.769 107.526Z" fill="#FD8680"/>
<path d="M267.577 190.167L263.342 196.344L258.171 189.605L262.783 185.643L267.577 190.167Z" fill="#FD8680"/>
<path d="M224.596 278.832V276.734L232.412 277.043V278.832H224.596Z" fill="#FD8680"/>
<path d="M272.856 278.083L272.77 281.554H283.675L282.689 277.43L272.856 278.083Z" fill="#FD8680"/>
</svg>
